<?xml version="1.0" encoding="UTF-8"?>
<svg width="138px" height="25px" viewBox="0 0 138 25" version="1.1" xmlns="http://www.w3.org/2000/svg" xmlns:xlink="http://www.w3.org/1999/xlink">
    <!-- Generator: Sketch 51.2 (57519) - http://www.bohemiancoding.com/sketch -->
    <title>LOGO_white_Nikahku</title>
    <desc>Created with Sketch.</desc>
    <defs></defs>
    <g id="Page-1" stroke="none" stroke-width="1" fill="none" fill-rule="evenodd">
        <g id="Home-page-1" transform="translate(-119.000000, -5107.000000)" fill="#FFFFFF" fill-rule="nonzero">
            <g id="Footer" transform="translate(0.000000, 5040.000000)">
                <g id="LOGO_white_Nikahku" transform="translate(119.000000, 67.000000)">
                    <path d="M35.9605911,5.35201149 L35.8550317,5.24425287 L30.1548205,0.0718390805 L30.0492611,0 L24.137931,0.538793103 L25.0527797,12.0689655 L36.2068966,11.4942529 L35.9605911,5.35201149 Z M33.0049261,4.20258621 L32.0548909,6.93247126 L28.9584799,4.13074713 L31.4919071,2.83764368 L33.0049261,4.20258621 Z M29.6622097,1.18534483 L30.5770584,2.01149425 L28.0436312,3.3045977 L26.0731879,1.50862069 L29.6622097,1.18534483 Z M25.4046446,2.44252874 L27.3399015,4.16666667 L25.8972555,8.62068966 L25.4046446,2.44252874 Z M28.2547502,4.99281609 L31.3511612,7.79454023 L26.5657987,10.308908 L28.2547502,4.99281609 Z M28.1491907,10.7758621 L32.2660099,8.62068966 L34.3068262,10.4525862 L28.1491907,10.7758621 Z M32.9697396,7.72270115 L33.9197748,5.02873563 L34.86981,5.85488506 L35.0457424,9.5545977 L32.9697396,7.72270115 Z" id="Shape"></path>
                    <g id="Group" transform="translate(44.827586, 8.620690)">
                        <path d="M11.5600564,13.6432677 C11.5600564,13.7828407 11.4908345,13.9224138 11.3870017,14.0270936 C11.2831688,14.1317734 11.144725,14.2015599 11.0062812,14.2015599 L10.4178951,14.2015599 C10.2102295,14.2015599 10.0717857,14.1317734 9.96795283,13.9573071 L9.96795283,13.9922003 L1.52288168,2.96592775 L1.52288168,13.6432677 C1.52288168,13.7828407 1.45365979,13.9224138 1.34982695,14.0270936 C1.2459941,14.1317734 1.10755031,14.2015599 0.969106525,14.2015599 L0.588386104,14.2015599 C0.449942315,14.2015599 0.311498526,14.1317734 0.207665684,14.0270936 C0.103832842,13.9224138 0.0346109473,13.7828407 0.0346109473,13.6432677 L0.0346109473,0.872331691 C0.0346109473,0.732758621 0.103832842,0.59318555 0.207665684,0.488505747 C0.311498526,0.383825944 0.449942315,0.314039409 0.588386104,0.314039409 L1.14216126,0.314039409 C1.28060505,0.314039409 1.41904884,0.383825944 1.59210358,0.558292282 L1.59210358,0.523399015 C2.66504294,1.98891626 4.25714652,4.04761905 6.33380336,6.69950739 L8.4104602,9.35139573 C9.03345725,10.1539409 9.55262146,10.8518062 10.0371747,11.4798851 L10.0371747,0.872331691 C10.0371747,0.488505747 10.2102295,0.314039409 10.5909499,0.314039409 L10.9716703,0.314039409 C11.1101141,0.314039409 11.2485579,0.383825944 11.3523907,0.488505747 C11.4562236,0.59318555 11.5254455,0.732758621 11.5254455,0.872331691 L11.5254455,13.6432677 L11.5600564,13.6432677 Z" id="Shape"></path>
                        <path d="M16.4748109,13.6432677 C16.4748109,14.0270936 16.3017562,14.2015599 15.9210358,14.2015599 L15.7133701,14.2015599 C15.2288168,14.2015599 14.9865402,14.0270936 14.9865402,13.6432677 L14.9865402,0.872331691 C14.9865402,0.488505747 15.2288168,0.314039409 15.7133701,0.314039409 L15.9210358,0.314039409 C16.3017562,0.314039409 16.4748109,0.488505747 16.4748109,0.872331691 L16.4748109,13.6432677 Z" id="Shape"></path>
                        <path d="M32.7073452,13.6781609 C32.7073452,13.9922003 32.4304576,14.2364532 32.1535701,14.2364532 L31.6344058,14.2364532 C31.4613511,14.2364532 31.3229073,14.1666667 31.2190745,14.0619869 L24.5045507,7.32758621 L22.1856172,9.17692939 L22.1856172,13.6432677 C22.1856172,13.7828407 22.1163953,13.9224138 22.0125625,14.0619869 C21.9087297,14.1666667 21.7702859,14.2364532 21.6318421,14.2364532 L21.2511217,14.2364532 C21.1126779,14.2364532 20.9742341,14.1666667 20.8357903,14.0619869 C20.6973465,13.9573071 20.6627355,13.817734 20.6627355,13.6781609 L20.6627355,0.872331691 C20.6627355,0.732758621 20.7319574,0.59318555 20.8357903,0.488505747 C20.9742341,0.383825944 21.0780669,0.314039409 21.2511217,0.314039409 L21.6318421,0.314039409 C21.7702859,0.314039409 21.9087297,0.383825944 22.0125625,0.488505747 C22.1163953,0.59318555 22.1856172,0.732758621 22.1856172,0.872331691 L22.1856172,7.29269294 L30.5960774,0.628078818 C30.872965,0.418719212 31.2190745,0.279146141 31.565184,0.279146141 L31.8074606,0.279146141 C32.188181,0.279146141 32.3612357,0.453612479 32.3612357,0.837438424 C32.3612357,1.01190476 32.2920138,1.1863711 32.1189591,1.2910509 L25.7851557,6.31568144 L32.6035124,13.1896552 C32.6727343,13.3292282 32.7419562,13.4688013 32.7073452,13.6781609 Z" id="Shape"></path>
                        <path d="M47.8669401,13.6781609 C47.8669401,14.0619869 47.6592745,14.2364532 47.2439431,14.2364532 L46.8286117,14.2364532 C46.5517241,14.2364532 46.3786694,14.1317734 46.2748366,13.8875205 L44.648122,10.0143678 L38.3489296,10.0143678 L36.6183823,13.8875205 C36.4799385,14.0968801 36.3068837,14.2015599 36.099218,14.2015599 L35.6492757,14.2015599 C35.2685553,14.2015599 35.0955006,14.0270936 35.0955006,13.6432677 C35.0955006,13.5734811 35.1301115,13.4688013 35.1647225,13.3641215 L35.1301115,13.3990148 L40.7716959,0.628078818 C40.9101397,0.383825944 41.0831945,0.279146141 41.2908601,0.279146141 L41.8100244,0.279146141 C42.052301,0.279146141 42.2599667,0.383825944 42.3291886,0.628078818 L47.7631073,13.3641215 C47.8323292,13.5036946 47.8669401,13.6083744 47.8669401,13.6781609 Z M44.025125,8.47906404 L41.5677477,2.82635468 L39.0065376,8.47906404 L44.025125,8.47906404 Z" id="Shape"></path>
                        <path d="M62.403538,13.6432677 C62.403538,13.7828407 62.3343161,13.9224138 62.2304833,14.0270936 C62.1266504,14.1317734 61.9882066,14.2015599 61.8497629,14.2015599 L61.4690424,14.2015599 C61.088322,14.2015599 60.9152673,14.0270936 60.9152673,13.6432677 L60.9152673,7.74630542 L52.4009742,7.74630542 L52.4009742,13.6432677 C52.4009742,13.7828407 52.3317523,13.9224138 52.2279195,14.0270936 C52.1240867,14.1317734 51.9856429,14.2015599 51.8471991,14.2015599 L51.4664787,14.2015599 C51.3280349,14.2015599 51.1895911,14.1317734 51.0857582,14.0270936 C50.9819254,13.9224138 50.9127035,13.7828407 50.9127035,13.6432677 L50.9127035,0.872331691 C50.9127035,0.732758621 50.9819254,0.59318555 51.0857582,0.488505747 C51.1895911,0.383825944 51.3280349,0.314039409 51.4664787,0.314039409 L51.8471991,0.314039409 C51.9856429,0.314039409 52.1240867,0.383825944 52.2279195,0.488505747 C52.3317523,0.59318555 52.4009742,0.732758621 52.4009742,0.872331691 L52.4009742,6.24589491 L60.9152673,6.24589491 L60.9152673,0.872331691 C60.9152673,0.488505747 61.088322,0.314039409 61.4690424,0.314039409 L61.8497629,0.314039409 C61.9882066,0.314039409 62.1266504,0.383825944 62.2304833,0.488505747 C62.3343161,0.59318555 62.403538,0.732758621 62.403538,0.872331691 L62.403538,13.6432677 Z" id="Shape"></path>
                        <path d="M78.5322395,13.6781609 C78.5322395,13.9922003 78.2553519,14.2364532 77.9784643,14.2364532 L77.4593001,14.2364532 C77.2862454,14.2364532 77.1478016,14.1666667 77.0439687,14.0619869 L70.294834,7.32758621 L67.9759005,9.17692939 L67.9759005,13.6432677 C67.9759005,13.7828407 67.9066786,13.9224138 67.8028458,14.0619869 C67.6990129,14.1666667 67.5605692,14.2364532 67.4221254,14.2364532 L67.0414049,14.2364532 C66.9029612,14.2364532 66.7645174,14.1666667 66.6260736,14.0619869 C66.4876298,13.9573071 66.4530188,13.817734 66.4530188,13.6781609 L66.4530188,0.872331691 C66.4530188,0.732758621 66.5222407,0.59318555 66.6260736,0.488505747 C66.7645174,0.383825944 66.8683502,0.314039409 67.0414049,0.314039409 L67.4221254,0.314039409 C67.5605692,0.314039409 67.6990129,0.383825944 67.8028458,0.488505747 C67.9066786,0.59318555 67.9759005,0.732758621 67.9759005,0.872331691 L67.9759005,7.29269294 L76.5248045,0.523399015 C76.6978592,0.383825944 76.9055249,0.314039409 77.1478016,0.314039409 L77.5631329,0.314039409 C77.9438534,0.314039409 78.1169081,0.488505747 78.1169081,0.872331691 C78.1169081,1.04679803 78.0476862,1.22126437 77.8746315,1.32594417 L71.5408281,6.35057471 L78.3591847,13.2245484 C78.4630176,13.3292282 78.5322395,13.4688013 78.5322395,13.6781609 Z" id="Shape"></path>
                        <path d="M93.0342264,8.93267652 C93.0342264,11.6892447 91.961287,13.3990148 89.8500192,14.0619869 C89.1578003,14.2713465 88.3617485,14.3760263 87.4618639,14.3760263 C85.6274837,14.3760263 84.2776567,13.9573071 83.3431611,13.0849754 C82.3740546,12.1777504 81.8895013,10.7820197 81.8895013,8.89778325 L81.8895013,0.872331691 C81.8895013,0.488505747 82.0625561,0.314039409 82.4432765,0.314039409 L82.8239969,0.314039409 C83.2047173,0.314039409 83.3777721,0.488505747 83.3777721,0.872331691 L83.3777721,8.86288998 C83.3777721,11.5147783 84.727599,12.8407225 87.4618639,12.8407225 C90.1615178,12.8407225 91.5459556,11.5496716 91.5459556,8.93267652 L91.5459556,0.837438424 C91.5459556,0.453612479 91.7190104,0.279146141 92.0997308,0.279146141 L92.4804512,0.279146141 C92.8611716,0.279146141 93.0342264,0.453612479 93.0342264,0.837438424 L93.0342264,8.93267652 Z" id="Shape"></path>
                    </g>
                    <path d="M17.2543808,23.4631194 C12.4570681,20.2944028 11.5399348,13.743348 15.0673706,9.39971395 C15.2437424,9.1860926 15.3848398,9.00807481 15.5612116,8.83005702 C15.8434065,8.54522855 16.3019732,8.54522855 16.584168,8.86566057 C16.8310885,9.15048904 16.8310885,9.54212818 16.5488937,9.82695665 C16.4077962,9.96937088 16.2666988,10.1473887 16.1256014,10.3254065 C13.233104,13.9213658 13.8680425,19.2618996 17.6071244,22.0389771 C20.9934628,24.5312262 25.8260498,23.9615692 28.5421753,20.757249 C29.8473266,19.226296 30.5175394,17.3037039 30.482265,15.3099046 C30.482265,14.953869 30.7291855,14.633437 31.1172035,14.5978334 C31.5404958,14.5622299 31.8932394,14.8826619 31.8932394,15.274301 C31.9637881,17.9445679 30.9055573,20.5080241 28.8949189,22.4306162 C25.7555011,25.4213151 20.8876397,25.8485578 17.2543808,23.4631194 Z" id="Shape"></path>
                    <path d="M18.2880405,5.10072392 C13.2967697,1.04573156 5.84452506,1.98149903 2.06641033,7.28418134 C-1.19178035,11.8243865 -0.533209893,18.2014684 3.59152086,22.0138544 C6.19114108,24.4052602 9.55331657,25.3410276 12.742184,24.8904729 C13.1581233,24.8211568 13.4007545,24.4399182 13.3314313,24.0586796 C13.2621081,23.7120991 12.9154921,23.5041508 12.568876,23.5388088 C9.69196299,23.9547055 6.60708032,23.0882541 4.31941452,20.8354806 C0.991900638,17.5776235 0.402653387,12.3789153 2.8982888,8.46255518 C6.15647948,3.47179536 12.9154921,2.50136984 17.4215005,6.1751236 C21.4422464,9.46763876 22.2048017,15.2555338 19.2585654,19.4491584 C19.0505958,19.7264228 19.119919,20.1423195 19.3972118,20.3502678 C19.7091662,20.5928742 20.1597671,20.5235581 20.4023983,20.2116356 C23.7299122,15.4634822 22.8633721,8.84379378 18.2880405,5.10072392 Z" id="Shape"></path>
                </g>
            </g>
        </g>
    </g>
</svg>