<?xml version="1.0" encoding="UTF-8"?>
<svg width="139px" height="25px" viewBox="0 0 139 25" version="1.1" xmlns="http://www.w3.org/2000/svg" xmlns:xlink="http://www.w3.org/1999/xlink">
    <!-- Generator: Sketch 51.2 (57519) - http://www.bohemiancoding.com/sketch -->
    <title>LOGO_Nikahku</title>
    <desc>Created with Sketch.</desc>
    <defs></defs>
    <g id="Page-1" stroke="none" stroke-width="1" fill="none" fill-rule="evenodd">
        <g id="Menu" transform="translate(-118.000000, -41.000000)" fill-rule="nonzero">
            <g id="Header" transform="translate(16.000000, 41.000000)">
                <g id="LOGO_Nikahku" transform="translate(102.000000, 0.000000)">
                    <path d="M36.0416667,5.38194444 L35.9375,5.27777778 L30.3125,0.277777778 L30.2083333,0.208333333 L24.375,0.729166667 L25.2777778,11.875 L36.2847222,11.3194444 L36.0416667,5.38194444 Z M33.125,4.27083333 L32.1875,6.90972222 L29.1319444,4.20138889 L31.6319444,2.95138889 L33.125,4.27083333 Z M29.8263889,1.35416667 L30.7291667,2.15277778 L28.2291667,3.40277778 L26.2847222,1.66666667 L29.8263889,1.35416667 Z M25.625,2.56944444 L27.5347222,4.23611111 L26.1111111,8.54166667 L25.625,2.56944444 Z M28.4375,5.03472222 L31.4930556,7.74305556 L26.7708333,10.1736111 L28.4375,5.03472222 Z M28.3333333,10.625 L32.3958333,8.54166667 L34.4097222,10.3125 L28.3333333,10.625 Z M33.0902778,7.67361111 L34.0277778,5.06944444 L34.9652778,5.86805556 L35.1388889,9.44444444 L33.0902778,7.67361111 Z" id="Shape" fill="#FFA4A4"></path>
                    <g id="Group" transform="translate(44.791667, 8.333333)" fill="#444444">
                        <path d="M11.5972222,13.5763889 C11.5972222,13.7152778 11.5277778,13.8541667 11.4236111,13.9583333 C11.3194444,14.0625 11.1805556,14.1319444 11.0416667,14.1319444 L10.4513889,14.1319444 C10.2430556,14.1319444 10.1041667,14.0625 10,13.8888889 L10,13.9236111 L1.52777778,2.95138889 L1.52777778,13.5763889 C1.52777778,13.7152778 1.45833333,13.8541667 1.35416667,13.9583333 C1.25,14.0625 1.11111111,14.1319444 0.972222222,14.1319444 L0.590277778,14.1319444 C0.451388889,14.1319444 0.3125,14.0625 0.208333333,13.9583333 C0.104166667,13.8541667 0.0347222222,13.7152778 0.0347222222,13.5763889 L0.0347222222,0.868055556 C0.0347222222,0.729166667 0.104166667,0.590277778 0.208333333,0.486111111 C0.3125,0.381944444 0.451388889,0.3125 0.590277778,0.3125 L1.14583333,0.3125 C1.28472222,0.3125 1.42361111,0.381944444 1.59722222,0.555555556 L1.59722222,0.520833333 C2.67361111,1.97916667 4.27083333,4.02777778 6.35416667,6.66666667 L8.4375,9.30555556 C9.0625,10.1041667 9.58333333,10.7986111 10.0694444,11.4236111 L10.0694444,0.868055556 C10.0694444,0.486111111 10.2430556,0.3125 10.625,0.3125 L11.0069444,0.3125 C11.1458333,0.3125 11.2847222,0.381944444 11.3888889,0.486111111 C11.4930556,0.590277778 11.5625,0.729166667 11.5625,0.868055556 L11.5625,13.5763889 L11.5972222,13.5763889 Z" id="Shape"></path>
                        <path d="M16.5277778,13.5763889 C16.5277778,13.9583333 16.3541667,14.1319444 15.9722222,14.1319444 L15.7638889,14.1319444 C15.2777778,14.1319444 15.0347222,13.9583333 15.0347222,13.5763889 L15.0347222,0.868055556 C15.0347222,0.486111111 15.2777778,0.3125 15.7638889,0.3125 L15.9722222,0.3125 C16.3541667,0.3125 16.5277778,0.486111111 16.5277778,0.868055556 L16.5277778,13.5763889 Z" id="Shape"></path>
                        <path d="M32.8125,13.6111111 C32.8125,13.9236111 32.5347222,14.1666667 32.2569444,14.1666667 L31.7361111,14.1666667 C31.5625,14.1666667 31.4236111,14.0972222 31.3194444,13.9930556 L24.5833333,7.29166667 L22.2569444,9.13194444 L22.2569444,13.5763889 C22.2569444,13.7152778 22.1875,13.8541667 22.0833333,13.9930556 C21.9791667,14.0972222 21.8402778,14.1666667 21.7013889,14.1666667 L21.3194444,14.1666667 C21.1805556,14.1666667 21.0416667,14.0972222 20.9027778,13.9930556 C20.7638889,13.8888889 20.7291667,13.75 20.7291667,13.6111111 L20.7291667,0.868055556 C20.7291667,0.729166667 20.7986111,0.590277778 20.9027778,0.486111111 C21.0416667,0.381944444 21.1458333,0.3125 21.3194444,0.3125 L21.7013889,0.3125 C21.8402778,0.3125 21.9791667,0.381944444 22.0833333,0.486111111 C22.1875,0.590277778 22.2569444,0.729166667 22.2569444,0.868055556 L22.2569444,7.25694444 L30.6944444,0.625 C30.9722222,0.416666667 31.3194444,0.277777778 31.6666667,0.277777778 L31.9097222,0.277777778 C32.2916667,0.277777778 32.4652778,0.451388889 32.4652778,0.833333333 C32.4652778,1.00694444 32.3958333,1.18055556 32.2222222,1.28472222 L25.8680556,6.28472222 L32.7083333,13.125 C32.7777778,13.2638889 32.8472222,13.4027778 32.8125,13.6111111 Z" id="Shape"></path>
                        <path d="M48.0208333,13.6111111 C48.0208333,13.9930556 47.8125,14.1666667 47.3958333,14.1666667 L46.9791667,14.1666667 C46.7013889,14.1666667 46.5277778,14.0625 46.4236111,13.8194444 L44.7916667,9.96527778 L38.4722222,9.96527778 L36.7361111,13.8194444 C36.5972222,14.0277778 36.4236111,14.1319444 36.2152778,14.1319444 L35.7638889,14.1319444 C35.3819444,14.1319444 35.2083333,13.9583333 35.2083333,13.5763889 C35.2083333,13.5069444 35.2430556,13.4027778 35.2777778,13.2986111 L35.2430556,13.3333333 L40.9027778,0.625 C41.0416667,0.381944444 41.2152778,0.277777778 41.4236111,0.277777778 L41.9444444,0.277777778 C42.1875,0.277777778 42.3958333,0.381944444 42.4652778,0.625 L47.9166667,13.2986111 C47.9861111,13.4375 48.0208333,13.5416667 48.0208333,13.6111111 Z M44.1666667,8.4375 L41.7013889,2.8125 L39.1319444,8.4375 L44.1666667,8.4375 Z" id="Shape"></path>
                        <path d="M62.6041667,13.5763889 C62.6041667,13.7152778 62.5347222,13.8541667 62.4305556,13.9583333 C62.3263889,14.0625 62.1875,14.1319444 62.0486111,14.1319444 L61.6666667,14.1319444 C61.2847222,14.1319444 61.1111111,13.9583333 61.1111111,13.5763889 L61.1111111,7.70833333 L52.5694444,7.70833333 L52.5694444,13.5763889 C52.5694444,13.7152778 52.5,13.8541667 52.3958333,13.9583333 C52.2916667,14.0625 52.1527778,14.1319444 52.0138889,14.1319444 L51.6319444,14.1319444 C51.4930556,14.1319444 51.3541667,14.0625 51.25,13.9583333 C51.1458333,13.8541667 51.0763889,13.7152778 51.0763889,13.5763889 L51.0763889,0.868055556 C51.0763889,0.729166667 51.1458333,0.590277778 51.25,0.486111111 C51.3541667,0.381944444 51.4930556,0.3125 51.6319444,0.3125 L52.0138889,0.3125 C52.1527778,0.3125 52.2916667,0.381944444 52.3958333,0.486111111 C52.5,0.590277778 52.5694444,0.729166667 52.5694444,0.868055556 L52.5694444,6.21527778 L61.1111111,6.21527778 L61.1111111,0.868055556 C61.1111111,0.486111111 61.2847222,0.3125 61.6666667,0.3125 L62.0486111,0.3125 C62.1875,0.3125 62.3263889,0.381944444 62.4305556,0.486111111 C62.5347222,0.590277778 62.6041667,0.729166667 62.6041667,0.868055556 L62.6041667,13.5763889 Z" id="Shape"></path>
                        <path d="M78.7847222,13.6111111 C78.7847222,13.9236111 78.5069444,14.1666667 78.2291667,14.1666667 L77.7083333,14.1666667 C77.5347222,14.1666667 77.3958333,14.0972222 77.2916667,13.9930556 L70.5208333,7.29166667 L68.1944444,9.13194444 L68.1944444,13.5763889 C68.1944444,13.7152778 68.125,13.8541667 68.0208333,13.9930556 C67.9166667,14.0972222 67.7777778,14.1666667 67.6388889,14.1666667 L67.2569444,14.1666667 C67.1180556,14.1666667 66.9791667,14.0972222 66.8402778,13.9930556 C66.7013889,13.8888889 66.6666667,13.75 66.6666667,13.6111111 L66.6666667,0.868055556 C66.6666667,0.729166667 66.7361111,0.590277778 66.8402778,0.486111111 C66.9791667,0.381944444 67.0833333,0.3125 67.2569444,0.3125 L67.6388889,0.3125 C67.7777778,0.3125 67.9166667,0.381944444 68.0208333,0.486111111 C68.125,0.590277778 68.1944444,0.729166667 68.1944444,0.868055556 L68.1944444,7.25694444 L76.7708333,0.520833333 C76.9444444,0.381944444 77.1527778,0.3125 77.3958333,0.3125 L77.8125,0.3125 C78.1944444,0.3125 78.3680556,0.486111111 78.3680556,0.868055556 C78.3680556,1.04166667 78.2986111,1.21527778 78.125,1.31944444 L71.7708333,6.31944444 L78.6111111,13.1597222 C78.7152778,13.2638889 78.7847222,13.4027778 78.7847222,13.6111111 Z" id="Shape"></path>
                        <path d="M93.3333333,8.88888889 C93.3333333,11.6319444 92.2569444,13.3333333 90.1388889,13.9930556 C89.4444444,14.2013889 88.6458333,14.3055556 87.7430556,14.3055556 C85.9027778,14.3055556 84.5486111,13.8888889 83.6111111,13.0208333 C82.6388889,12.1180556 82.1527778,10.7291667 82.1527778,8.85416667 L82.1527778,0.868055556 C82.1527778,0.486111111 82.3263889,0.3125 82.7083333,0.3125 L83.0902778,0.3125 C83.4722222,0.3125 83.6458333,0.486111111 83.6458333,0.868055556 L83.6458333,8.81944444 C83.6458333,11.4583333 85,12.7777778 87.7430556,12.7777778 C90.4513889,12.7777778 91.8402778,11.4930556 91.8402778,8.88888889 L91.8402778,0.833333333 C91.8402778,0.451388889 92.0138889,0.277777778 92.3958333,0.277777778 L92.7777778,0.277777778 C93.1597222,0.277777778 93.3333333,0.451388889 93.3333333,0.833333333 L93.3333333,8.88888889 Z" id="Shape"></path>
                    </g>
                    <path d="M17.0138889,23.2986111 C12.2916667,20.2083333 11.3888889,13.8194444 14.8611111,9.58333333 C15.0347222,9.375 15.1736111,9.20138889 15.3472222,9.02777778 C15.625,8.75 16.0763889,8.75 16.3541667,9.0625 C16.5972222,9.34027778 16.5972222,9.72222222 16.3194444,10 C16.1805556,10.1388889 16.0416667,10.3125 15.9027778,10.4861111 C13.0555556,13.9930556 13.6805556,19.2013889 17.3611111,21.9097222 C20.6944444,24.3402778 25.4513889,23.7847222 28.125,20.6597222 C29.4097222,19.1666667 30.0694444,17.2916667 30.0347222,15.3472222 C30.0347222,15 30.2777778,14.6875 30.6597222,14.6527778 C31.0763889,14.6180556 31.4236111,14.9305556 31.4236111,15.3125 C31.4930556,17.9166667 30.4513889,20.4166667 28.4722222,22.2916667 C25.3819444,25.2083333 20.5902778,25.625 17.0138889,23.2986111 Z" id="Shape" fill="#FFA4A4"></path>
                    <path d="M18.4027778,4.86111111 C13.4027778,0.798611111 5.9375,1.73611111 2.15277778,7.04861111 C-1.11111111,11.5972222 -0.451388889,17.9861111 3.68055556,21.8055556 C6.28472222,24.2013889 9.65277778,25.1388889 12.8472222,24.6875 C13.2638889,24.6180556 13.5069444,24.2361111 13.4375,23.8541667 C13.3680556,23.5069444 13.0208333,23.2986111 12.6736111,23.3333333 C9.79166667,23.75 6.70138889,22.8819444 4.40972222,20.625 C1.07638889,17.3611111 0.486111111,12.1527778 2.98611111,8.22916667 C6.25,3.22916667 13.0208333,2.25694444 17.5347222,5.9375 C21.5625,9.23611111 22.3263889,15.0347222 19.375,19.2361111 C19.1666667,19.5138889 19.2361111,19.9305556 19.5138889,20.1388889 C19.8263889,20.3819444 20.2777778,20.3125 20.5208333,20 C23.8541667,15.2430556 22.9861111,8.61111111 18.4027778,4.86111111 Z" id="Shape" fill="#38D9F4"></path>
                </g>
            </g>
        </g>
    </g>
</svg>