<?xml version="1.0" encoding="UTF-8"?>
<svg width="343px" height="504px" viewBox="0 0 343 504" version="1.1" xmlns="http://www.w3.org/2000/svg" xmlns:xlink="http://www.w3.org/1999/xlink">
    <!-- Generator: Sketch 51.2 (57519) - http://www.bohemiancoding.com/sketch -->
    <title>RSVP</title>
    <desc>Created with Sketch.</desc>
    <defs></defs>
    <g id="Page-1" stroke="none" stroke-width="1" fill="none" fill-rule="evenodd">
        <g id="Home-page-1" transform="translate(-16.000000, -4471.000000)">
            <g id="Get-Guest" transform="translate(0.000000, 4001.000000)">
                <g id="RSVP" transform="translate(16.000000, 470.000000)">
                    <rect id="Bg" fill="#FFFFFF" x="0" y="0" width="343" height="504" rx="4"></rect>
                    <g id="1" transform="translate(7.000000, 7.000000)" fill="#FFCFCF">
                        <path d="M5.95980742,6.07117074 L6.43280742,5.90817074 C7.25880742,8.29617074 8.18280742,9.60617074 8.97580742,10.3071707 C9.77080742,11.0061707 10.4288074,11.1241707 10.8488074,11.1281707 C11.0798074,11.1281707 11.2378074,11.0871707 11.2898074,11.0711707 L11.4368074,11.5491707 L10.9588074,11.4021707 C10.9748074,11.3501707 11.0158074,11.1911707 11.0158074,10.9601707 C11.0128074,10.5401707 10.8938074,9.88217074 10.1948074,9.08717074 C9.49480742,8.29417074 8.18480742,7.37017074 5.79680742,6.54417074 L5.95980742,6.07117074 L6.43280742,5.90817074 L5.95980742,6.07117074 L6.12380742,5.59917074 C8.61880742,6.46417074 10.0878074,7.45817074 10.9438074,8.42417074 C11.8018074,9.38817074 12.0198074,10.3281707 12.0158074,10.9601707 C12.0158074,11.3091707 11.9548074,11.5651707 11.9148074,11.6951707 L11.8368074,11.9491707 L11.5838074,12.0261707 C11.4528074,12.0671707 11.1978074,12.1271707 10.8488074,12.1281707 C10.2168074,12.1311707 9.27680742,11.9131707 8.31280742,11.0551707 C7.34680742,10.1991707 6.35180742,8.73117074 5.48780742,6.23517074 L5.15080742,5.26217074 L6.12380742,5.59917074 L5.95980742,6.07117074" id="Fill-349"></path>
                        <path d="M17.7468074,22.2391707 L17.8308074,22.3281707 C17.9038074,22.4091707 17.9008074,22.4051707 17.9708074,22.5151707 C18.0858074,22.6981707 18.2098074,23.0331707 18.2298074,23.4831707 C18.2538074,23.9261707 18.1758074,24.4861707 17.9508074,25.0061707 C17.8218074,25.3041707 17.6858074,25.5561707 17.5148074,25.8511707 C17.3508074,26.1381707 17.1688074,26.4321707 17.0078074,26.7471707 C16.6778074,27.3741707 16.4658074,28.0771707 16.4568074,28.7481707 C16.4448074,29.4221707 16.6448074,30.0301707 16.9108074,30.4791707 C17.1798074,30.9311707 17.5038074,31.2281707 17.7438074,31.4061707 C17.9838074,31.5871707 18.1368074,31.6631707 18.1368074,31.6631707 C18.1368074,31.6631707 17.9908074,31.5721707 17.7718074,31.3721707 C17.5528074,31.1751707 17.2658074,30.8551707 17.0518074,30.4041707 C16.8398074,29.9551707 16.7118074,29.3731707 16.7808074,28.7691707 C16.8458074,28.1621707 17.0968074,27.5481707 17.4538074,27.0031707 C17.6298074,26.7271707 17.8318074,26.4591707 18.0288074,26.1821707 C18.2218074,25.9151707 18.4278074,25.6021707 18.5788074,25.3271707 C18.9168074,24.6981707 19.0608074,24.0571707 19.0838074,23.4831707 C19.1098074,22.9091707 18.9888074,22.4041707 18.8188074,22.0661707 C18.7518074,21.9121707 18.6108074,21.7161707 18.5778074,21.6791707 L18.5018074,21.5841707 C18.3308074,21.3671707 18.0158074,21.3311707 17.7988074,21.5031707 C17.5828074,21.6741707 17.5468074,21.9891707 17.7178074,22.2061707 L17.7468074,22.2391707" id="Fill-350"></path>
                        <path d="M18.6758074,19.8091707 C18.6758074,19.8091707 17.3488074,27.3511707 11.7338074,27.2331707 C11.7338074,27.2331707 9.36780742,27.0381707 9.00380742,28.9911707 C9.34780742,28.6161707 9.84880742,28.5101707 10.3518074,28.5861707 C10.6878074,28.6371707 10.9998074,28.7971707 11.3368074,28.8401707 C11.7698074,28.8961707 12.2258074,28.7451707 12.5398074,28.4411707 C12.6908074,28.2941707 12.8768074,28.1191707 12.9488074,27.9201707 C12.8568074,28.6251707 12.3638074,29.2411707 11.6908074,29.4721707 C12.0518074,29.3481707 12.4538074,29.3531707 12.8218074,29.2081707 C13.2188074,29.0521707 13.5908074,28.8311707 13.9188074,28.5581707 C14.4708074,28.0981707 14.8698074,27.3731707 15.1118074,26.6991707 C15.1358074,27.2581707 15.0388074,27.8711707 14.6648074,28.2871707 C14.6648074,28.2871707 18.3588074,25.5231707 18.6758074,19.8091707" id="Fill-351"></path>
                        <path d="M13.4798074,20.1881707 L13.4708074,20.3311707 L13.4708074,20.1881707 L13.4798074,20.1881707 L13.4708074,20.3311707 L13.4708074,20.1881707 L13.4708074,20.3431707 L13.3878074,20.2111707 L13.4708074,20.1881707 L13.4708074,20.3431707 L13.3878074,20.2111707 L13.4208074,20.2641707 L13.3788074,20.2171707 L13.3878074,20.2111707 L13.4208074,20.2641707 L13.3788074,20.2171707 L13.4228074,20.1471707 L13.4768074,19.9831707 C13.5148074,19.8011707 13.5378074,19.6161707 13.5378074,19.4421707 C13.5378074,19.1791707 13.4868074,18.9471707 13.3818074,18.7611707 C13.0448074,18.1791707 12.5638074,17.9671707 11.9778074,17.9581707 C11.3088074,17.9521707 10.5438074,18.3101707 10.1028074,18.8301707 C9.38080742,19.6741707 9.10480742,20.4701707 9.10380742,21.1821707 C9.10380742,22.0861707 9.55480742,22.9071707 10.3088074,23.5271707 C11.0608074,24.1441707 12.1088074,24.5321707 13.2188074,24.5311707 C13.5938074,24.5311707 13.9758074,24.4871707 14.3568074,24.3941707 C16.3358074,23.9091707 17.8198074,22.2811707 17.9258074,20.2731707 C17.9318074,20.1541707 17.9348074,20.0351707 17.9348074,19.9161707 C17.9368074,17.9851707 17.1018074,16.0381707 15.6408074,14.8191707 C14.4878074,13.8551707 13.0588074,13.4181707 11.5818074,13.4171707 C9.22080742,13.4131707 6.76880742,14.5591707 5.36180742,16.3741707 C4.17280742,17.9041707 3.73080742,19.4821707 3.72780742,21.1231707 C3.72380742,23.4761707 4.67780742,25.9561707 5.76780742,28.3161707 C7.83280742,32.8011707 10.2888074,37.2321707 11.4928074,42.1741707 C11.7888074,43.3931707 12.0088074,44.6621707 12.0088074,45.9461707 C12.0088074,46.4421707 11.9758074,46.9391707 11.9018074,47.4361707 C11.6308074,49.2261707 10.7748074,51.0051707 9.25080742,52.1061707 C8.25580742,52.8181707 6.95480742,53.4191707 5.61380742,53.4241707 C4.94080742,53.4251707 4.25380742,53.2631707 3.63680742,52.8691707 C2.47780742,52.1211707 1.81180742,50.7301707 1.80480742,49.3651707 C1.80480742,48.9791707 1.86080742,48.5931707 1.98080742,48.2241707 C2.36780742,47.0501707 3.44180742,46.3591707 4.51780742,46.3581707 C5.40580742,46.3461707 6.32480742,46.8721707 6.73480742,47.9061707 C6.85680742,48.2061707 6.92180742,48.5311707 6.92280742,48.8611707 C6.92380742,49.4031707 6.73680742,49.9901707 6.24680742,50.3791707 C6.02980742,50.5491707 5.71480742,50.5121707 5.54380742,50.2951707 C5.37380742,50.0781707 5.41080742,49.7641707 5.62780742,49.5931707 C5.81280742,49.4501707 5.92180742,49.1901707 5.92280742,48.8611707 C5.92280742,48.6671707 5.88180742,48.4611707 5.80880742,48.2831707 C5.52080742,47.6051707 5.05080742,47.3701707 4.51780742,47.3581707 C3.86680742,47.3561707 3.16980742,47.7921707 2.93180742,48.5341707 C2.84680742,48.7931707 2.80480742,49.0751707 2.80480742,49.3651707 C2.79880742,50.3991707 3.35780742,51.5171707 4.17380742,52.0261707 C4.61380742,52.3051707 5.09580742,52.4241707 5.61380742,52.4241707 C6.64080742,52.4301707 7.79880742,51.9231707 8.66680742,51.2951707 C9.91180742,50.4041707 10.6758074,48.8711707 10.9128074,47.2871707 C10.9798074,46.8451707 11.0098074,46.3971707 11.0098074,45.9461707 C11.0098074,44.7771707 10.8068074,43.5841707 10.5208074,42.4101707 C9.36380742,37.6401707 6.94980742,33.2631707 4.85980742,28.7341707 C3.75680742,26.3361707 2.73080742,23.7451707 2.72780742,21.1231707 C2.72480742,19.2991707 3.24280742,17.4601707 4.57280742,15.7591707 C6.20380742,13.6741707 8.90680742,12.4221707 11.5818074,12.4171707 C13.2538074,12.4161707 14.9278074,12.9181707 16.2828074,14.0521707 C17.9968074,15.4901707 18.9338074,17.7041707 18.9348074,19.9161707 C18.9348074,20.0531707 18.9318074,20.1901707 18.9248074,20.3261707 C18.7908074,22.8131707 16.9598074,24.7911707 14.5938074,25.3661707 C14.1338074,25.4781707 13.6708074,25.5311707 13.2188074,25.5311707 C11.8768074,25.5301707 10.6178074,25.0701707 9.67580742,24.3011707 C8.73480742,23.5341707 8.10380742,22.4321707 8.10380742,21.1821707 C8.10280742,20.2011707 8.49780742,19.1611707 9.34480742,18.1781707 C9.99580742,17.4291707 10.9798074,16.9631707 11.9778074,16.9581707 C12.8408074,16.9471707 13.7468074,17.3581707 14.2518074,18.2691707 C14.4638074,18.6451707 14.5378074,19.0551707 14.5378074,19.4421707 C14.5378074,19.7011707 14.5048074,19.9521707 14.4548074,20.1911707 C14.4128074,20.3801707 14.3448074,20.5821707 14.2078074,20.7791707 C14.1388074,20.8771707 14.0488074,20.9751707 13.9248074,21.0541707 C13.8028074,21.1341707 13.6398074,21.1891707 13.4708074,21.1881707 L13.4188074,21.1871707 C13.1428074,21.1691707 12.9328074,20.9321707 12.9498074,20.6571707 C12.9668074,20.3811707 13.2038074,20.1711707 13.4798074,20.1881707" id="Fill-352"></path>
                        <path d="M5.88880742,48.8891707 C6.31480742,49.0281707 6.54780742,49.4871707 6.40780742,49.9141707 C6.26880742,50.3401707 5.80980742,50.5731707 5.38280742,50.4341707 C4.95680742,50.2941707 4.72380742,49.8351707 4.86280742,49.4081707 C5.00280742,48.9821707 5.46180742,48.7491707 5.88880742,48.8891707" id="Fill-353"></path>
                        <path d="M13.6788074,19.4851707 C14.1058074,19.6251707 14.3378074,20.0841707 14.1988074,20.5101707 C14.0588074,20.9371707 13.5998074,21.1701707 13.1738074,21.0301707 C12.7468074,20.8901707 12.5138074,20.4311707 12.6538074,20.0051707 C12.7928074,19.5781707 13.2518074,19.3461707 13.6788074,19.4851707" id="Fill-354"></path>
                        <path d="M2.78480742,20.1831707 C2.78480742,20.1831707 2.75780742,20.3101707 2.70680742,20.5491707 C2.65180742,20.7801707 2.58780742,21.1521707 2.51180742,21.6211707 C2.37880742,22.5471707 2.25780742,23.8901707 2.38380742,25.4881707 C2.50280742,27.0821707 2.87180742,28.9341707 3.63880742,30.7771707 C4.01380742,31.7071707 4.52580742,32.5901707 4.91180742,33.5091707 C5.29580742,34.4231707 5.53980742,35.4211707 5.46480742,36.4111707 C5.39680742,37.3891707 4.96480742,38.3611707 4.22280742,38.9781707 C3.49280742,39.6011707 2.42580742,39.7741707 1.57880742,39.4251707 C0.718807418,39.0801707 0.211807418,38.1651707 0.256807418,37.3171707 C0.298807418,36.4631707 0.862807418,35.7171707 1.54880742,35.4141707 C1.89180742,35.2601707 2.26480742,35.2091707 2.59680742,35.3031707 C2.91980742,35.3941707 3.19180742,35.6151707 3.36080742,35.8691707 C3.72580742,36.3871707 3.63580742,37.0171707 3.36580742,37.3721707 C3.10480742,37.7441707 2.75780742,37.9051707 2.52780742,37.9651707 C2.28980742,38.0221707 2.15780742,38.0071707 2.15780742,38.0071707 C2.15780742,38.0071707 2.28880742,38.0261707 2.52980742,37.9761707 C2.76480742,37.9221707 3.11980742,37.7711707 3.40080742,37.3971707 C3.68980742,37.0431707 3.80880742,36.3791707 3.43780742,35.8191707 C3.26380742,35.5431707 2.98980742,35.2981707 2.62680742,35.1841707 C2.27280742,35.0721707 1.85880742,35.1151707 1.48680742,35.2701707 C0.738807418,35.5761707 0.103807418,36.3541707 0.0248074177,37.3031707 C-0.0591925823,38.2351707 0.484807418,39.2931707 1.45280742,39.7161707 C2.40480742,40.1431707 3.61980742,39.9801707 4.47780742,39.2951707 C5.34180742,38.6161707 5.85280742,37.5461707 5.96280742,36.4571707 C6.07880742,35.3621707 5.84080742,34.2711707 5.46280742,33.2891707 C5.08180742,32.3041707 4.60280742,31.4201707 4.27480742,30.5251707 C3.59180742,28.7351707 3.29380742,26.9551707 3.22580742,25.4351707 C3.15180742,23.9111707 3.30580742,22.6441707 3.45580742,21.7731707 C3.53980742,21.3451707 3.60580742,21.0121707 3.67080742,20.7701707 C3.72880742,20.5331707 3.75980742,20.4061707 3.75980742,20.4061707 C3.82580742,20.1381707 3.66180742,19.8671707 3.39380742,19.8021707 C3.12480742,19.7361707 2.85380742,19.9001707 2.78880742,20.1681707 L2.78480742,20.1831707" id="Fill-355"></path>
                        <path d="M0.204807418,27.1781707 C0.496807418,26.6231707 1.60580742,26.1491707 1.60580742,26.1491707 C-0.646192582,28.2041707 0.128807418,30.6611707 0.128807418,30.6611707 C0.0388074177,29.5751707 1.15680742,28.8881707 1.15680742,28.8881707 C0.389807418,29.6461707 0.671807418,30.6161707 1.00680742,31.5151707 C1.18980742,32.0061707 0.971807418,32.5931707 0.736807418,33.0311707 C1.68280742,32.7461707 2.68780742,31.7531707 2.37680742,28.7131707 C1.82180742,23.2781707 2.90280742,20.5221707 2.90280742,20.5221707 L4.17180742,17.0701707 C3.05280742,18.0531707 1.96280742,22.0381707 1.44780742,23.9681707 C0.961807418,25.7911707 0.204807418,27.1781707 0.204807418,27.1781707" id="Fill-356"></path>
                        <polygon id="Fill-357" points="4.86880742 89.2731707 5.86880742 89.2731707 5.86880742 52.9211707 4.86880742 52.9211707"></polygon>
                        <path d="M21.5838074,18.5021707 L21.6798074,18.5781707 C21.7168074,18.6101707 21.9128074,18.7521707 22.0668074,18.8191707 C22.4048074,18.9881707 22.9098074,19.1091707 23.4828074,19.0841707 C24.0578074,19.0611707 24.6978074,18.9161707 25.3268074,18.5791707 C25.6028074,18.4281707 25.9158074,18.2211707 26.1828074,18.0291707 C26.4588074,17.8321707 26.7278074,17.6301707 27.0038074,17.4531707 C27.5478074,17.0961707 28.1628074,16.8461707 28.7688074,16.7801707 C29.3738074,16.7121707 29.9558074,16.8401707 30.4038074,17.0521707 C30.8558074,17.2661707 31.1748074,17.5531707 31.3728074,17.7711707 C31.5728074,17.9901707 31.6628074,18.1361707 31.6628074,18.1361707 C31.6628074,18.1361707 31.5868074,17.9831707 31.4068074,17.7431707 C31.2278074,17.5041707 30.9308074,17.1801707 30.4788074,16.9111707 C30.0298074,16.6441707 29.4228074,16.4451707 28.7488074,16.4571707 C28.0778074,16.4651707 27.3748074,16.6781707 26.7468074,17.0071707 C26.4328074,17.1691707 26.1378074,17.3501707 25.8518074,17.5151707 C25.5558074,17.6861707 25.3038074,17.8221707 25.0058074,17.9511707 C24.4868074,18.1751707 23.9258074,18.2541707 23.4828074,18.2291707 C23.0338074,18.2101707 22.6988074,18.0851707 22.5148074,17.9701707 C22.4058074,17.9011707 22.4088074,17.9041707 22.3278074,17.8301707 L22.2388074,17.7461707 C22.0378074,17.5561707 21.7218074,17.5651707 21.5318074,17.7661707 C21.3418074,17.9671707 21.3498074,18.2831707 21.5508074,18.4731707 L21.5838074,18.5021707" id="Fill-358"></path>
                        <path d="M19.8098074,18.6761707 C19.8098074,18.6761707 27.3518074,17.3491707 27.2328074,11.7331707 C27.2328074,11.7331707 27.0378074,9.36817074 28.9908074,9.00317074 C28.6158074,9.34717074 28.5098074,9.84817074 28.5868074,10.3521707 C28.6378074,10.6871707 28.7968074,11.0001707 28.8408074,11.3361707 C28.8968074,11.7701707 28.7458074,12.2251707 28.4408074,12.5391707 C28.2938074,12.6911707 28.1188074,12.8771707 27.9198074,12.9491707 C28.6258074,12.8561707 29.2408074,12.3631707 29.4728074,11.6911707 C29.3478074,12.0521707 29.3538074,12.4541707 29.2088074,12.8221707 C29.0518074,13.2191707 28.8318074,13.5911707 28.5588074,13.9191707 C28.0978074,14.4711707 27.3738074,14.8701707 26.6988074,15.1111707 C27.2578074,15.1351707 27.8708074,15.0391707 28.2868074,14.6651707 C28.2868074,14.6651707 25.5228074,18.3581707 19.8098074,18.6761707" id="Fill-359"></path>
                        <path d="M21.1868074,13.4181707 L21.1888074,13.4711707 C21.1898074,13.6391707 21.1348074,13.8021707 21.0548074,13.9251707 C20.9338074,14.1101707 20.7788074,14.2191707 20.6308074,14.2981707 C20.4818074,14.3761707 20.3328074,14.4241707 20.1908074,14.4551707 C19.9528074,14.5051707 19.7008074,14.5371707 19.4428074,14.5371707 C19.0548074,14.5371707 18.6458074,14.4641707 18.2698074,14.2521707 C17.3588074,13.7471707 16.9478074,12.8401707 16.9578074,11.9781707 C16.9638074,10.9801707 17.4298074,9.99617074 18.1788074,9.34517074 C19.1608074,8.49717074 20.2008074,8.10217074 21.1828074,8.10417074 C22.4318074,8.10317074 23.5348074,8.73517074 24.3008074,9.67517074 C25.0708074,10.6171707 25.5308074,11.8771707 25.5318074,13.2181707 C25.5318074,13.6711707 25.4788074,14.1331707 25.3658074,14.5941707 C24.7908074,16.9601707 22.8138074,18.7901707 20.3268074,18.9241707 C20.1898074,18.9311707 20.0528074,18.9351707 19.9168074,18.9351707 C17.7048074,18.9331707 15.4908074,17.9961707 14.0528074,16.2821707 C12.9188074,14.9281707 12.4168074,13.2541707 12.4178074,11.5811707 C12.4218074,8.90717074 13.6748074,6.20317074 15.7588074,4.57217074 C17.4598074,3.24317074 19.2998074,2.72417074 21.1238074,2.72717074 C23.7448074,2.73117074 26.3368074,3.75717074 28.7348074,4.86017074 C33.2628074,6.94917074 37.6408074,9.36317074 42.4108074,10.5211707 C43.5848074,10.8061707 44.7778074,11.0091707 45.9468074,11.0091707 C46.3978074,11.0091707 46.8448074,10.9791707 47.2878074,10.9121707 C48.8708074,10.6751707 50.4038074,9.91117074 51.2948074,8.66617074 C51.9228074,7.79917074 52.4298074,6.64017074 52.4248074,5.61417074 C52.4238074,5.09517074 52.3058074,4.61417074 52.0258074,4.17417074 C51.5178074,3.35817074 50.3998074,2.79817074 49.3648074,2.80517074 C49.0748074,2.80517074 48.7938074,2.84717074 48.5348074,2.93117074 C47.7918074,3.17017074 47.3568074,3.86717074 47.3578074,4.51817074 C47.3698074,5.05017074 47.6058074,5.52117074 48.2838074,5.80917074 C48.4608074,5.88217074 48.6668074,5.92317074 48.8608074,5.92217074 C49.1898074,5.92117074 49.4508074,5.81217074 49.5928074,5.62817074 C49.7638074,5.41117074 50.0778074,5.37317074 50.2948074,5.54417074 C50.5118074,5.71517074 50.5498074,6.02917074 50.3788074,6.24617074 C49.9898074,6.73717074 49.4028074,6.92417074 48.8608074,6.92217074 C48.5318074,6.92217074 48.2058074,6.85717074 47.9058074,6.73517074 C46.8728074,6.32517074 46.3458074,5.40517074 46.3578074,4.51817074 C46.3588074,3.44217074 47.0508074,2.36717074 48.2238074,1.98117074 C48.5938074,1.86017074 48.9798074,1.80517074 49.3648074,1.80517074 C50.7308074,1.81217074 52.1208074,2.47817074 52.8698074,3.63717074 C53.2638074,4.25417074 53.4258074,4.94117074 53.4248074,5.61417074 C53.4198074,6.95517074 52.8178074,8.25617074 52.1068074,9.25017074 C51.0058074,10.7751707 49.2258074,11.6301707 47.4358074,11.9011707 C46.9398074,11.9761707 46.4418074,12.0091707 45.9468074,12.0091707 C44.6618074,12.0091707 43.3928074,11.7881707 42.1748074,11.4921707 C37.2318074,10.2891707 32.8008074,7.83317074 28.3158074,5.76817074 C25.9568074,4.67717074 23.4768074,3.72417074 21.1238074,3.72717074 C19.4828074,3.73017074 17.9038074,4.17217074 16.3738074,5.36117074 C14.5588074,6.76917074 13.4128074,9.22117074 13.4178074,11.5811707 C13.4188074,13.0591707 13.8558074,14.4881707 14.8198074,15.6411707 C16.0388074,17.1021707 17.9858074,17.9371707 19.9168074,17.9351707 C20.0358074,17.9351707 20.1548074,17.9321707 20.2738074,17.9261707 C22.2818074,17.8201707 23.9088074,16.3361707 24.3948074,14.3571707 C24.4878074,13.9751707 24.5318074,13.5931707 24.5318074,13.2181707 C24.5328074,12.1081707 24.1438074,11.0601707 23.5268074,10.3081707 C22.9078074,9.55417074 22.0858074,9.10417074 21.1828074,9.10417074 C20.4698074,9.10517074 19.6738074,9.38017074 18.8308074,10.1031707 C18.3108074,10.5431707 17.9518074,11.3081707 17.9578074,11.9781707 C17.9678074,12.5641707 18.1788074,13.0441707 18.7608074,13.3811707 C18.9478074,13.4871707 19.1798074,13.5371707 19.4428074,13.5371707 C19.6158074,13.5371707 19.8008074,13.5151707 19.9838074,13.4761707 L20.2018074,13.3911707 L20.2178074,13.3791707 L20.2718074,13.4331707 L20.2038074,13.4011707 L20.2178074,13.3791707 L20.2718074,13.4331707 L20.2038074,13.4011707 L20.3518074,13.4711707 L20.1888074,13.4711707 L20.2038074,13.4011707 L20.3518074,13.4711707 L20.1888074,13.4711707 L20.3358074,13.4711707 L20.1888074,13.4801707 L20.1888074,13.4711707 L20.3358074,13.4711707 L20.1888074,13.4801707 C20.1718074,13.2041707 20.3808074,12.9671707 20.6568074,12.9501707 C20.9328074,12.9331707 21.1698074,13.1421707 21.1868074,13.4181707" id="Fill-360"></path>
                        <path d="M48.8888074,5.88817074 C49.0288074,6.31517074 49.4878074,6.54717074 49.9138074,6.40817074 C50.3408074,6.26817074 50.5738074,5.80917074 50.4338074,5.38317074 C50.2948074,4.95617074 49.8348074,4.72317074 49.4088074,4.86317074 C48.9818074,5.00217074 48.7498074,5.46217074 48.8888074,5.88817074" id="Fill-361"></path>
                        <path d="M19.4858074,13.6791707 C19.6248074,14.1051707 20.0838074,14.3381707 20.5108074,14.1981707 C20.9368074,14.0591707 21.1698074,13.6001707 21.0298074,13.1731707 C20.8908074,12.7471707 20.4318074,12.5141707 20.0048074,12.6531707 C19.5788074,12.7931707 19.3458074,13.2521707 19.4858074,13.6791707" id="Fill-362"></path>
                        <path d="M20.4068074,3.76017074 C20.4068074,3.76017074 20.5328074,3.72817074 20.7708074,3.67017074 C21.0128074,3.60617074 21.3458074,3.53917074 21.7738074,3.45617074 C22.6438074,3.30517074 23.9108074,3.15117074 25.4348074,3.22617074 C26.9558074,3.29417074 28.7358074,3.59217074 30.5258074,4.27417074 C31.4208074,4.60217074 32.3048074,5.08217074 33.2898074,5.46217074 C34.2708074,5.84017074 35.3618074,6.07917074 36.4568074,5.96317074 C37.5458074,5.85217074 38.6168074,5.34217074 39.2948074,4.47717074 C39.9808074,3.61917074 40.1438074,2.40517074 39.7158074,1.45217074 C39.2928074,0.484170737 38.2348074,-0.0588292627 37.3028074,0.0251707373 C36.3538074,0.103170737 35.5768074,0.739170737 35.2708074,1.48717074 C35.1158074,1.85817074 35.0728074,2.27317074 35.1838074,2.62717074 C35.2988074,2.98917074 35.5428074,3.26417074 35.8188074,3.43817074 C36.3788074,3.80917074 37.0428074,3.68917074 37.3978074,3.40117074 C37.7718074,3.12017074 37.9218074,2.76417074 37.9758074,2.53017074 C38.0268074,2.28917074 38.0068074,2.15717074 38.0068074,2.15717074 C38.0068074,2.15717074 38.0228074,2.29017074 37.9648074,2.52717074 C37.9048074,2.75817074 37.7448074,3.10417074 37.3728074,3.36617074 C37.0178074,3.63517074 36.3878074,3.72617074 35.8698074,3.36117074 C35.6148074,3.19217074 35.3938074,2.91917074 35.3028074,2.59717074 C35.2088074,2.26517074 35.2598074,1.89117074 35.4138074,1.54917074 C35.7168074,0.862170737 36.4628074,0.299170737 37.3178074,0.256170737 C38.1658074,0.212170737 39.0808074,0.718170737 39.4258074,1.57817074 C39.7748074,2.42617074 39.6008074,3.49217074 38.9778074,4.22217074 C38.3608074,4.96417074 37.3888074,5.39717074 36.4108074,5.46517074 C35.4218074,5.54017074 34.4228074,5.29517074 33.5098074,4.91117074 C32.5908074,4.52617074 31.7078074,4.01317074 30.7778074,3.63917074 C28.9338074,2.87217074 27.0818074,2.50317074 25.4878074,2.38317074 C23.8898074,2.25717074 22.5478074,2.37917074 21.6208074,2.51117074 C21.1518074,2.58717074 20.7808074,2.65217074 20.5488074,2.70717074 C20.3108074,2.75817074 20.1828074,2.78517074 20.1828074,2.78517074 C19.9128074,2.84317074 19.7408074,3.10817074 19.7988074,3.37817074 C19.8568074,3.64817074 20.1218074,3.82117074 20.3918074,3.76317074 L20.4068074,3.76017074" id="Fill-363"></path>
                        <path d="M27.1788074,0.204170737 C26.6238074,0.496170737 26.1488074,1.60517074 26.1488074,1.60517074 C28.2038074,-0.646829263 30.6618074,0.129170737 30.6618074,0.129170737 C29.5758074,0.0391707373 28.8878074,1.15617074 28.8878074,1.15617074 C29.6458074,0.389170737 30.6168074,0.672170737 31.5158074,1.00717074 C32.0068074,1.19017074 32.5938074,0.972170737 33.0308074,0.736170737 C32.7458074,1.68217074 31.7538074,2.68817074 28.7128074,2.37717074 C23.2778074,1.82117074 20.5218074,2.90317074 20.5218074,2.90317074 L17.0698074,4.17117074 C18.0528074,3.05217074 22.0378074,1.96317074 23.9688074,1.44817074 C25.7918074,0.961170737 27.1788074,0.204170737 27.1788074,0.204170737" id="Fill-364"></path>
                        <polygon id="Fill-365" points="52.9218074 5.86917074 88.9218074 5.86917074 88.9218074 4.86917074 52.9218074 4.86917074"></polygon>
                    </g>
                    <g id="2" transform="translate(291.500000, 52.000000) scale(-1, 1) translate(-291.500000, -52.000000) translate(247.000000, 7.000000)" fill="#FFCFCF">
                        <path d="M5.95980742,6.07117074 L6.43280742,5.90817074 C7.25880742,8.29617074 8.18280742,9.60617074 8.97580742,10.3071707 C9.77080742,11.0061707 10.4288074,11.1241707 10.8488074,11.1281707 C11.0798074,11.1281707 11.2378074,11.0871707 11.2898074,11.0711707 L11.4368074,11.5491707 L10.9588074,11.4021707 C10.9748074,11.3501707 11.0158074,11.1911707 11.0158074,10.9601707 C11.0128074,10.5401707 10.8938074,9.88217074 10.1948074,9.08717074 C9.49480742,8.29417074 8.18480742,7.37017074 5.79680742,6.54417074 L5.95980742,6.07117074 L6.43280742,5.90817074 L5.95980742,6.07117074 L6.12380742,5.59917074 C8.61880742,6.46417074 10.0878074,7.45817074 10.9438074,8.42417074 C11.8018074,9.38817074 12.0198074,10.3281707 12.0158074,10.9601707 C12.0158074,11.3091707 11.9548074,11.5651707 11.9148074,11.6951707 L11.8368074,11.9491707 L11.5838074,12.0261707 C11.4528074,12.0671707 11.1978074,12.1271707 10.8488074,12.1281707 C10.2168074,12.1311707 9.27680742,11.9131707 8.31280742,11.0551707 C7.34680742,10.1991707 6.35180742,8.73117074 5.48780742,6.23517074 L5.15080742,5.26217074 L6.12380742,5.59917074 L5.95980742,6.07117074" id="Fill-349"></path>
                        <path d="M17.7468074,22.2391707 L17.8308074,22.3281707 C17.9038074,22.4091707 17.9008074,22.4051707 17.9708074,22.5151707 C18.0858074,22.6981707 18.2098074,23.0331707 18.2298074,23.4831707 C18.2538074,23.9261707 18.1758074,24.4861707 17.9508074,25.0061707 C17.8218074,25.3041707 17.6858074,25.5561707 17.5148074,25.8511707 C17.3508074,26.1381707 17.1688074,26.4321707 17.0078074,26.7471707 C16.6778074,27.3741707 16.4658074,28.0771707 16.4568074,28.7481707 C16.4448074,29.4221707 16.6448074,30.0301707 16.9108074,30.4791707 C17.1798074,30.9311707 17.5038074,31.2281707 17.7438074,31.4061707 C17.9838074,31.5871707 18.1368074,31.6631707 18.1368074,31.6631707 C18.1368074,31.6631707 17.9908074,31.5721707 17.7718074,31.3721707 C17.5528074,31.1751707 17.2658074,30.8551707 17.0518074,30.4041707 C16.8398074,29.9551707 16.7118074,29.3731707 16.7808074,28.7691707 C16.8458074,28.1621707 17.0968074,27.5481707 17.4538074,27.0031707 C17.6298074,26.7271707 17.8318074,26.4591707 18.0288074,26.1821707 C18.2218074,25.9151707 18.4278074,25.6021707 18.5788074,25.3271707 C18.9168074,24.6981707 19.0608074,24.0571707 19.0838074,23.4831707 C19.1098074,22.9091707 18.9888074,22.4041707 18.8188074,22.0661707 C18.7518074,21.9121707 18.6108074,21.7161707 18.5778074,21.6791707 L18.5018074,21.5841707 C18.3308074,21.3671707 18.0158074,21.3311707 17.7988074,21.5031707 C17.5828074,21.6741707 17.5468074,21.9891707 17.7178074,22.2061707 L17.7468074,22.2391707" id="Fill-350"></path>
                        <path d="M18.6758074,19.8091707 C18.6758074,19.8091707 17.3488074,27.3511707 11.7338074,27.2331707 C11.7338074,27.2331707 9.36780742,27.0381707 9.00380742,28.9911707 C9.34780742,28.6161707 9.84880742,28.5101707 10.3518074,28.5861707 C10.6878074,28.6371707 10.9998074,28.7971707 11.3368074,28.8401707 C11.7698074,28.8961707 12.2258074,28.7451707 12.5398074,28.4411707 C12.6908074,28.2941707 12.8768074,28.1191707 12.9488074,27.9201707 C12.8568074,28.6251707 12.3638074,29.2411707 11.6908074,29.4721707 C12.0518074,29.3481707 12.4538074,29.3531707 12.8218074,29.2081707 C13.2188074,29.0521707 13.5908074,28.8311707 13.9188074,28.5581707 C14.4708074,28.0981707 14.8698074,27.3731707 15.1118074,26.6991707 C15.1358074,27.2581707 15.0388074,27.8711707 14.6648074,28.2871707 C14.6648074,28.2871707 18.3588074,25.5231707 18.6758074,19.8091707" id="Fill-351"></path>
                        <path d="M13.4798074,20.1881707 L13.4708074,20.3311707 L13.4708074,20.1881707 L13.4798074,20.1881707 L13.4708074,20.3311707 L13.4708074,20.1881707 L13.4708074,20.3431707 L13.3878074,20.2111707 L13.4708074,20.1881707 L13.4708074,20.3431707 L13.3878074,20.2111707 L13.4208074,20.2641707 L13.3788074,20.2171707 L13.3878074,20.2111707 L13.4208074,20.2641707 L13.3788074,20.2171707 L13.4228074,20.1471707 L13.4768074,19.9831707 C13.5148074,19.8011707 13.5378074,19.6161707 13.5378074,19.4421707 C13.5378074,19.1791707 13.4868074,18.9471707 13.3818074,18.7611707 C13.0448074,18.1791707 12.5638074,17.9671707 11.9778074,17.9581707 C11.3088074,17.9521707 10.5438074,18.3101707 10.1028074,18.8301707 C9.38080742,19.6741707 9.10480742,20.4701707 9.10380742,21.1821707 C9.10380742,22.0861707 9.55480742,22.9071707 10.3088074,23.5271707 C11.0608074,24.1441707 12.1088074,24.5321707 13.2188074,24.5311707 C13.5938074,24.5311707 13.9758074,24.4871707 14.3568074,24.3941707 C16.3358074,23.9091707 17.8198074,22.2811707 17.9258074,20.2731707 C17.9318074,20.1541707 17.9348074,20.0351707 17.9348074,19.9161707 C17.9368074,17.9851707 17.1018074,16.0381707 15.6408074,14.8191707 C14.4878074,13.8551707 13.0588074,13.4181707 11.5818074,13.4171707 C9.22080742,13.4131707 6.76880742,14.5591707 5.36180742,16.3741707 C4.17280742,17.9041707 3.73080742,19.4821707 3.72780742,21.1231707 C3.72380742,23.4761707 4.67780742,25.9561707 5.76780742,28.3161707 C7.83280742,32.8011707 10.2888074,37.2321707 11.4928074,42.1741707 C11.7888074,43.3931707 12.0088074,44.6621707 12.0088074,45.9461707 C12.0088074,46.4421707 11.9758074,46.9391707 11.9018074,47.4361707 C11.6308074,49.2261707 10.7748074,51.0051707 9.25080742,52.1061707 C8.25580742,52.8181707 6.95480742,53.4191707 5.61380742,53.4241707 C4.94080742,53.4251707 4.25380742,53.2631707 3.63680742,52.8691707 C2.47780742,52.1211707 1.81180742,50.7301707 1.80480742,49.3651707 C1.80480742,48.9791707 1.86080742,48.5931707 1.98080742,48.2241707 C2.36780742,47.0501707 3.44180742,46.3591707 4.51780742,46.3581707 C5.40580742,46.3461707 6.32480742,46.8721707 6.73480742,47.9061707 C6.85680742,48.2061707 6.92180742,48.5311707 6.92280742,48.8611707 C6.92380742,49.4031707 6.73680742,49.9901707 6.24680742,50.3791707 C6.02980742,50.5491707 5.71480742,50.5121707 5.54380742,50.2951707 C5.37380742,50.0781707 5.41080742,49.7641707 5.62780742,49.5931707 C5.81280742,49.4501707 5.92180742,49.1901707 5.92280742,48.8611707 C5.92280742,48.6671707 5.88180742,48.4611707 5.80880742,48.2831707 C5.52080742,47.6051707 5.05080742,47.3701707 4.51780742,47.3581707 C3.86680742,47.3561707 3.16980742,47.7921707 2.93180742,48.5341707 C2.84680742,48.7931707 2.80480742,49.0751707 2.80480742,49.3651707 C2.79880742,50.3991707 3.35780742,51.5171707 4.17380742,52.0261707 C4.61380742,52.3051707 5.09580742,52.4241707 5.61380742,52.4241707 C6.64080742,52.4301707 7.79880742,51.9231707 8.66680742,51.2951707 C9.91180742,50.4041707 10.6758074,48.8711707 10.9128074,47.2871707 C10.9798074,46.8451707 11.0098074,46.3971707 11.0098074,45.9461707 C11.0098074,44.7771707 10.8068074,43.5841707 10.5208074,42.4101707 C9.36380742,37.6401707 6.94980742,33.2631707 4.85980742,28.7341707 C3.75680742,26.3361707 2.73080742,23.7451707 2.72780742,21.1231707 C2.72480742,19.2991707 3.24280742,17.4601707 4.57280742,15.7591707 C6.20380742,13.6741707 8.90680742,12.4221707 11.5818074,12.4171707 C13.2538074,12.4161707 14.9278074,12.9181707 16.2828074,14.0521707 C17.9968074,15.4901707 18.9338074,17.7041707 18.9348074,19.9161707 C18.9348074,20.0531707 18.9318074,20.1901707 18.9248074,20.3261707 C18.7908074,22.8131707 16.9598074,24.7911707 14.5938074,25.3661707 C14.1338074,25.4781707 13.6708074,25.5311707 13.2188074,25.5311707 C11.8768074,25.5301707 10.6178074,25.0701707 9.67580742,24.3011707 C8.73480742,23.5341707 8.10380742,22.4321707 8.10380742,21.1821707 C8.10280742,20.2011707 8.49780742,19.1611707 9.34480742,18.1781707 C9.99580742,17.4291707 10.9798074,16.9631707 11.9778074,16.9581707 C12.8408074,16.9471707 13.7468074,17.3581707 14.2518074,18.2691707 C14.4638074,18.6451707 14.5378074,19.0551707 14.5378074,19.4421707 C14.5378074,19.7011707 14.5048074,19.9521707 14.4548074,20.1911707 C14.4128074,20.3801707 14.3448074,20.5821707 14.2078074,20.7791707 C14.1388074,20.8771707 14.0488074,20.9751707 13.9248074,21.0541707 C13.8028074,21.1341707 13.6398074,21.1891707 13.4708074,21.1881707 L13.4188074,21.1871707 C13.1428074,21.1691707 12.9328074,20.9321707 12.9498074,20.6571707 C12.9668074,20.3811707 13.2038074,20.1711707 13.4798074,20.1881707" id="Fill-352"></path>
                        <path d="M5.88880742,48.8891707 C6.31480742,49.0281707 6.54780742,49.4871707 6.40780742,49.9141707 C6.26880742,50.3401707 5.80980742,50.5731707 5.38280742,50.4341707 C4.95680742,50.2941707 4.72380742,49.8351707 4.86280742,49.4081707 C5.00280742,48.9821707 5.46180742,48.7491707 5.88880742,48.8891707" id="Fill-353"></path>
                        <path d="M13.6788074,19.4851707 C14.1058074,19.6251707 14.3378074,20.0841707 14.1988074,20.5101707 C14.0588074,20.9371707 13.5998074,21.1701707 13.1738074,21.0301707 C12.7468074,20.8901707 12.5138074,20.4311707 12.6538074,20.0051707 C12.7928074,19.5781707 13.2518074,19.3461707 13.6788074,19.4851707" id="Fill-354"></path>
                        <path d="M2.78480742,20.1831707 C2.78480742,20.1831707 2.75780742,20.3101707 2.70680742,20.5491707 C2.65180742,20.7801707 2.58780742,21.1521707 2.51180742,21.6211707 C2.37880742,22.5471707 2.25780742,23.8901707 2.38380742,25.4881707 C2.50280742,27.0821707 2.87180742,28.9341707 3.63880742,30.7771707 C4.01380742,31.7071707 4.52580742,32.5901707 4.91180742,33.5091707 C5.29580742,34.4231707 5.53980742,35.4211707 5.46480742,36.4111707 C5.39680742,37.3891707 4.96480742,38.3611707 4.22280742,38.9781707 C3.49280742,39.6011707 2.42580742,39.7741707 1.57880742,39.4251707 C0.718807418,39.0801707 0.211807418,38.1651707 0.256807418,37.3171707 C0.298807418,36.4631707 0.862807418,35.7171707 1.54880742,35.4141707 C1.89180742,35.2601707 2.26480742,35.2091707 2.59680742,35.3031707 C2.91980742,35.3941707 3.19180742,35.6151707 3.36080742,35.8691707 C3.72580742,36.3871707 3.63580742,37.0171707 3.36580742,37.3721707 C3.10480742,37.7441707 2.75780742,37.9051707 2.52780742,37.9651707 C2.28980742,38.0221707 2.15780742,38.0071707 2.15780742,38.0071707 C2.15780742,38.0071707 2.28880742,38.0261707 2.52980742,37.9761707 C2.76480742,37.9221707 3.11980742,37.7711707 3.40080742,37.3971707 C3.68980742,37.0431707 3.80880742,36.3791707 3.43780742,35.8191707 C3.26380742,35.5431707 2.98980742,35.2981707 2.62680742,35.1841707 C2.27280742,35.0721707 1.85880742,35.1151707 1.48680742,35.2701707 C0.738807418,35.5761707 0.103807418,36.3541707 0.0248074177,37.3031707 C-0.0591925823,38.2351707 0.484807418,39.2931707 1.45280742,39.7161707 C2.40480742,40.1431707 3.61980742,39.9801707 4.47780742,39.2951707 C5.34180742,38.6161707 5.85280742,37.5461707 5.96280742,36.4571707 C6.07880742,35.3621707 5.84080742,34.2711707 5.46280742,33.2891707 C5.08180742,32.3041707 4.60280742,31.4201707 4.27480742,30.5251707 C3.59180742,28.7351707 3.29380742,26.9551707 3.22580742,25.4351707 C3.15180742,23.9111707 3.30580742,22.6441707 3.45580742,21.7731707 C3.53980742,21.3451707 3.60580742,21.0121707 3.67080742,20.7701707 C3.72880742,20.5331707 3.75980742,20.4061707 3.75980742,20.4061707 C3.82580742,20.1381707 3.66180742,19.8671707 3.39380742,19.8021707 C3.12480742,19.7361707 2.85380742,19.9001707 2.78880742,20.1681707 L2.78480742,20.1831707" id="Fill-355"></path>
                        <path d="M0.204807418,27.1781707 C0.496807418,26.6231707 1.60580742,26.1491707 1.60580742,26.1491707 C-0.646192582,28.2041707 0.128807418,30.6611707 0.128807418,30.6611707 C0.0388074177,29.5751707 1.15680742,28.8881707 1.15680742,28.8881707 C0.389807418,29.6461707 0.671807418,30.6161707 1.00680742,31.5151707 C1.18980742,32.0061707 0.971807418,32.5931707 0.736807418,33.0311707 C1.68280742,32.7461707 2.68780742,31.7531707 2.37680742,28.7131707 C1.82180742,23.2781707 2.90280742,20.5221707 2.90280742,20.5221707 L4.17180742,17.0701707 C3.05280742,18.0531707 1.96280742,22.0381707 1.44780742,23.9681707 C0.961807418,25.7911707 0.204807418,27.1781707 0.204807418,27.1781707" id="Fill-356"></path>
                        <polygon id="Fill-357" points="4.86880742 89.2731707 5.86880742 89.2731707 5.86880742 52.9211707 4.86880742 52.9211707"></polygon>
                        <path d="M21.5838074,18.5021707 L21.6798074,18.5781707 C21.7168074,18.6101707 21.9128074,18.7521707 22.0668074,18.8191707 C22.4048074,18.9881707 22.9098074,19.1091707 23.4828074,19.0841707 C24.0578074,19.0611707 24.6978074,18.9161707 25.3268074,18.5791707 C25.6028074,18.4281707 25.9158074,18.2211707 26.1828074,18.0291707 C26.4588074,17.8321707 26.7278074,17.6301707 27.0038074,17.4531707 C27.5478074,17.0961707 28.1628074,16.8461707 28.7688074,16.7801707 C29.3738074,16.7121707 29.9558074,16.8401707 30.4038074,17.0521707 C30.8558074,17.2661707 31.1748074,17.5531707 31.3728074,17.7711707 C31.5728074,17.9901707 31.6628074,18.1361707 31.6628074,18.1361707 C31.6628074,18.1361707 31.5868074,17.9831707 31.4068074,17.7431707 C31.2278074,17.5041707 30.9308074,17.1801707 30.4788074,16.9111707 C30.0298074,16.6441707 29.4228074,16.4451707 28.7488074,16.4571707 C28.0778074,16.4651707 27.3748074,16.6781707 26.7468074,17.0071707 C26.4328074,17.1691707 26.1378074,17.3501707 25.8518074,17.5151707 C25.5558074,17.6861707 25.3038074,17.8221707 25.0058074,17.9511707 C24.4868074,18.1751707 23.9258074,18.2541707 23.4828074,18.2291707 C23.0338074,18.2101707 22.6988074,18.0851707 22.5148074,17.9701707 C22.4058074,17.9011707 22.4088074,17.9041707 22.3278074,17.8301707 L22.2388074,17.7461707 C22.0378074,17.5561707 21.7218074,17.5651707 21.5318074,17.7661707 C21.3418074,17.9671707 21.3498074,18.2831707 21.5508074,18.4731707 L21.5838074,18.5021707" id="Fill-358"></path>
                        <path d="M19.8098074,18.6761707 C19.8098074,18.6761707 27.3518074,17.3491707 27.2328074,11.7331707 C27.2328074,11.7331707 27.0378074,9.36817074 28.9908074,9.00317074 C28.6158074,9.34717074 28.5098074,9.84817074 28.5868074,10.3521707 C28.6378074,10.6871707 28.7968074,11.0001707 28.8408074,11.3361707 C28.8968074,11.7701707 28.7458074,12.2251707 28.4408074,12.5391707 C28.2938074,12.6911707 28.1188074,12.8771707 27.9198074,12.9491707 C28.6258074,12.8561707 29.2408074,12.3631707 29.4728074,11.6911707 C29.3478074,12.0521707 29.3538074,12.4541707 29.2088074,12.8221707 C29.0518074,13.2191707 28.8318074,13.5911707 28.5588074,13.9191707 C28.0978074,14.4711707 27.3738074,14.8701707 26.6988074,15.1111707 C27.2578074,15.1351707 27.8708074,15.0391707 28.2868074,14.6651707 C28.2868074,14.6651707 25.5228074,18.3581707 19.8098074,18.6761707" id="Fill-359"></path>
                        <path d="M21.1868074,13.4181707 L21.1888074,13.4711707 C21.1898074,13.6391707 21.1348074,13.8021707 21.0548074,13.9251707 C20.9338074,14.1101707 20.7788074,14.2191707 20.6308074,14.2981707 C20.4818074,14.3761707 20.3328074,14.4241707 20.1908074,14.4551707 C19.9528074,14.5051707 19.7008074,14.5371707 19.4428074,14.5371707 C19.0548074,14.5371707 18.6458074,14.4641707 18.2698074,14.2521707 C17.3588074,13.7471707 16.9478074,12.8401707 16.9578074,11.9781707 C16.9638074,10.9801707 17.4298074,9.99617074 18.1788074,9.34517074 C19.1608074,8.49717074 20.2008074,8.10217074 21.1828074,8.10417074 C22.4318074,8.10317074 23.5348074,8.73517074 24.3008074,9.67517074 C25.0708074,10.6171707 25.5308074,11.8771707 25.5318074,13.2181707 C25.5318074,13.6711707 25.4788074,14.1331707 25.3658074,14.5941707 C24.7908074,16.9601707 22.8138074,18.7901707 20.3268074,18.9241707 C20.1898074,18.9311707 20.0528074,18.9351707 19.9168074,18.9351707 C17.7048074,18.9331707 15.4908074,17.9961707 14.0528074,16.2821707 C12.9188074,14.9281707 12.4168074,13.2541707 12.4178074,11.5811707 C12.4218074,8.90717074 13.6748074,6.20317074 15.7588074,4.57217074 C17.4598074,3.24317074 19.2998074,2.72417074 21.1238074,2.72717074 C23.7448074,2.73117074 26.3368074,3.75717074 28.7348074,4.86017074 C33.2628074,6.94917074 37.6408074,9.36317074 42.4108074,10.5211707 C43.5848074,10.8061707 44.7778074,11.0091707 45.9468074,11.0091707 C46.3978074,11.0091707 46.8448074,10.9791707 47.2878074,10.9121707 C48.8708074,10.6751707 50.4038074,9.91117074 51.2948074,8.66617074 C51.9228074,7.79917074 52.4298074,6.64017074 52.4248074,5.61417074 C52.4238074,5.09517074 52.3058074,4.61417074 52.0258074,4.17417074 C51.5178074,3.35817074 50.3998074,2.79817074 49.3648074,2.80517074 C49.0748074,2.80517074 48.7938074,2.84717074 48.5348074,2.93117074 C47.7918074,3.17017074 47.3568074,3.86717074 47.3578074,4.51817074 C47.3698074,5.05017074 47.6058074,5.52117074 48.2838074,5.80917074 C48.4608074,5.88217074 48.6668074,5.92317074 48.8608074,5.92217074 C49.1898074,5.92117074 49.4508074,5.81217074 49.5928074,5.62817074 C49.7638074,5.41117074 50.0778074,5.37317074 50.2948074,5.54417074 C50.5118074,5.71517074 50.5498074,6.02917074 50.3788074,6.24617074 C49.9898074,6.73717074 49.4028074,6.92417074 48.8608074,6.92217074 C48.5318074,6.92217074 48.2058074,6.85717074 47.9058074,6.73517074 C46.8728074,6.32517074 46.3458074,5.40517074 46.3578074,4.51817074 C46.3588074,3.44217074 47.0508074,2.36717074 48.2238074,1.98117074 C48.5938074,1.86017074 48.9798074,1.80517074 49.3648074,1.80517074 C50.7308074,1.81217074 52.1208074,2.47817074 52.8698074,3.63717074 C53.2638074,4.25417074 53.4258074,4.94117074 53.4248074,5.61417074 C53.4198074,6.95517074 52.8178074,8.25617074 52.1068074,9.25017074 C51.0058074,10.7751707 49.2258074,11.6301707 47.4358074,11.9011707 C46.9398074,11.9761707 46.4418074,12.0091707 45.9468074,12.0091707 C44.6618074,12.0091707 43.3928074,11.7881707 42.1748074,11.4921707 C37.2318074,10.2891707 32.8008074,7.83317074 28.3158074,5.76817074 C25.9568074,4.67717074 23.4768074,3.72417074 21.1238074,3.72717074 C19.4828074,3.73017074 17.9038074,4.17217074 16.3738074,5.36117074 C14.5588074,6.76917074 13.4128074,9.22117074 13.4178074,11.5811707 C13.4188074,13.0591707 13.8558074,14.4881707 14.8198074,15.6411707 C16.0388074,17.1021707 17.9858074,17.9371707 19.9168074,17.9351707 C20.0358074,17.9351707 20.1548074,17.9321707 20.2738074,17.9261707 C22.2818074,17.8201707 23.9088074,16.3361707 24.3948074,14.3571707 C24.4878074,13.9751707 24.5318074,13.5931707 24.5318074,13.2181707 C24.5328074,12.1081707 24.1438074,11.0601707 23.5268074,10.3081707 C22.9078074,9.55417074 22.0858074,9.10417074 21.1828074,9.10417074 C20.4698074,9.10517074 19.6738074,9.38017074 18.8308074,10.1031707 C18.3108074,10.5431707 17.9518074,11.3081707 17.9578074,11.9781707 C17.9678074,12.5641707 18.1788074,13.0441707 18.7608074,13.3811707 C18.9478074,13.4871707 19.1798074,13.5371707 19.4428074,13.5371707 C19.6158074,13.5371707 19.8008074,13.5151707 19.9838074,13.4761707 L20.2018074,13.3911707 L20.2178074,13.3791707 L20.2718074,13.4331707 L20.2038074,13.4011707 L20.2178074,13.3791707 L20.2718074,13.4331707 L20.2038074,13.4011707 L20.3518074,13.4711707 L20.1888074,13.4711707 L20.2038074,13.4011707 L20.3518074,13.4711707 L20.1888074,13.4711707 L20.3358074,13.4711707 L20.1888074,13.4801707 L20.1888074,13.4711707 L20.3358074,13.4711707 L20.1888074,13.4801707 C20.1718074,13.2041707 20.3808074,12.9671707 20.6568074,12.9501707 C20.9328074,12.9331707 21.1698074,13.1421707 21.1868074,13.4181707" id="Fill-360"></path>
                        <path d="M48.8888074,5.88817074 C49.0288074,6.31517074 49.4878074,6.54717074 49.9138074,6.40817074 C50.3408074,6.26817074 50.5738074,5.80917074 50.4338074,5.38317074 C50.2948074,4.95617074 49.8348074,4.72317074 49.4088074,4.86317074 C48.9818074,5.00217074 48.7498074,5.46217074 48.8888074,5.88817074" id="Fill-361"></path>
                        <path d="M19.4858074,13.6791707 C19.6248074,14.1051707 20.0838074,14.3381707 20.5108074,14.1981707 C20.9368074,14.0591707 21.1698074,13.6001707 21.0298074,13.1731707 C20.8908074,12.7471707 20.4318074,12.5141707 20.0048074,12.6531707 C19.5788074,12.7931707 19.3458074,13.2521707 19.4858074,13.6791707" id="Fill-362"></path>
                        <path d="M20.4068074,3.76017074 C20.4068074,3.76017074 20.5328074,3.72817074 20.7708074,3.67017074 C21.0128074,3.60617074 21.3458074,3.53917074 21.7738074,3.45617074 C22.6438074,3.30517074 23.9108074,3.15117074 25.4348074,3.22617074 C26.9558074,3.29417074 28.7358074,3.59217074 30.5258074,4.27417074 C31.4208074,4.60217074 32.3048074,5.08217074 33.2898074,5.46217074 C34.2708074,5.84017074 35.3618074,6.07917074 36.4568074,5.96317074 C37.5458074,5.85217074 38.6168074,5.34217074 39.2948074,4.47717074 C39.9808074,3.61917074 40.1438074,2.40517074 39.7158074,1.45217074 C39.2928074,0.484170737 38.2348074,-0.0588292627 37.3028074,0.0251707373 C36.3538074,0.103170737 35.5768074,0.739170737 35.2708074,1.48717074 C35.1158074,1.85817074 35.0728074,2.27317074 35.1838074,2.62717074 C35.2988074,2.98917074 35.5428074,3.26417074 35.8188074,3.43817074 C36.3788074,3.80917074 37.0428074,3.68917074 37.3978074,3.40117074 C37.7718074,3.12017074 37.9218074,2.76417074 37.9758074,2.53017074 C38.0268074,2.28917074 38.0068074,2.15717074 38.0068074,2.15717074 C38.0068074,2.15717074 38.0228074,2.29017074 37.9648074,2.52717074 C37.9048074,2.75817074 37.7448074,3.10417074 37.3728074,3.36617074 C37.0178074,3.63517074 36.3878074,3.72617074 35.8698074,3.36117074 C35.6148074,3.19217074 35.3938074,2.91917074 35.3028074,2.59717074 C35.2088074,2.26517074 35.2598074,1.89117074 35.4138074,1.54917074 C35.7168074,0.862170737 36.4628074,0.299170737 37.3178074,0.256170737 C38.1658074,0.212170737 39.0808074,0.718170737 39.4258074,1.57817074 C39.7748074,2.42617074 39.6008074,3.49217074 38.9778074,4.22217074 C38.3608074,4.96417074 37.3888074,5.39717074 36.4108074,5.46517074 C35.4218074,5.54017074 34.4228074,5.29517074 33.5098074,4.91117074 C32.5908074,4.52617074 31.7078074,4.01317074 30.7778074,3.63917074 C28.9338074,2.87217074 27.0818074,2.50317074 25.4878074,2.38317074 C23.8898074,2.25717074 22.5478074,2.37917074 21.6208074,2.51117074 C21.1518074,2.58717074 20.7808074,2.65217074 20.5488074,2.70717074 C20.3108074,2.75817074 20.1828074,2.78517074 20.1828074,2.78517074 C19.9128074,2.84317074 19.7408074,3.10817074 19.7988074,3.37817074 C19.8568074,3.64817074 20.1218074,3.82117074 20.3918074,3.76317074 L20.4068074,3.76017074" id="Fill-363"></path>
                        <path d="M27.1788074,0.204170737 C26.6238074,0.496170737 26.1488074,1.60517074 26.1488074,1.60517074 C28.2038074,-0.646829263 30.6618074,0.129170737 30.6618074,0.129170737 C29.5758074,0.0391707373 28.8878074,1.15617074 28.8878074,1.15617074 C29.6458074,0.389170737 30.6168074,0.672170737 31.5158074,1.00717074 C32.0068074,1.19017074 32.5938074,0.972170737 33.0308074,0.736170737 C32.7458074,1.68217074 31.7538074,2.68817074 28.7128074,2.37717074 C23.2778074,1.82117074 20.5218074,2.90317074 20.5218074,2.90317074 L17.0698074,4.17117074 C18.0528074,3.05217074 22.0378074,1.96317074 23.9688074,1.44817074 C25.7918074,0.961170737 27.1788074,0.204170737 27.1788074,0.204170737" id="Fill-364"></path>
                        <polygon id="Fill-365" points="52.9218074 5.86917074 88.9218074 5.86917074 88.9218074 4.86917074 52.9218074 4.86917074"></polygon>
                    </g>
                    <g id="3" transform="translate(51.500000, 452.500000) scale(1, -1) translate(-51.500000, -452.500000) translate(7.000000, 408.000000)" fill="#FFCFCF">
                        <path d="M5.95980742,6.07117074 L6.43280742,5.90817074 C7.25880742,8.29617074 8.18280742,9.60617074 8.97580742,10.3071707 C9.77080742,11.0061707 10.4288074,11.1241707 10.8488074,11.1281707 C11.0798074,11.1281707 11.2378074,11.0871707 11.2898074,11.0711707 L11.4368074,11.5491707 L10.9588074,11.4021707 C10.9748074,11.3501707 11.0158074,11.1911707 11.0158074,10.9601707 C11.0128074,10.5401707 10.8938074,9.88217074 10.1948074,9.08717074 C9.49480742,8.29417074 8.18480742,7.37017074 5.79680742,6.54417074 L5.95980742,6.07117074 L6.43280742,5.90817074 L5.95980742,6.07117074 L6.12380742,5.59917074 C8.61880742,6.46417074 10.0878074,7.45817074 10.9438074,8.42417074 C11.8018074,9.38817074 12.0198074,10.3281707 12.0158074,10.9601707 C12.0158074,11.3091707 11.9548074,11.5651707 11.9148074,11.6951707 L11.8368074,11.9491707 L11.5838074,12.0261707 C11.4528074,12.0671707 11.1978074,12.1271707 10.8488074,12.1281707 C10.2168074,12.1311707 9.27680742,11.9131707 8.31280742,11.0551707 C7.34680742,10.1991707 6.35180742,8.73117074 5.48780742,6.23517074 L5.15080742,5.26217074 L6.12380742,5.59917074 L5.95980742,6.07117074" id="Fill-349"></path>
                        <path d="M17.7468074,22.2391707 L17.8308074,22.3281707 C17.9038074,22.4091707 17.9008074,22.4051707 17.9708074,22.5151707 C18.0858074,22.6981707 18.2098074,23.0331707 18.2298074,23.4831707 C18.2538074,23.9261707 18.1758074,24.4861707 17.9508074,25.0061707 C17.8218074,25.3041707 17.6858074,25.5561707 17.5148074,25.8511707 C17.3508074,26.1381707 17.1688074,26.4321707 17.0078074,26.7471707 C16.6778074,27.3741707 16.4658074,28.0771707 16.4568074,28.7481707 C16.4448074,29.4221707 16.6448074,30.0301707 16.9108074,30.4791707 C17.1798074,30.9311707 17.5038074,31.2281707 17.7438074,31.4061707 C17.9838074,31.5871707 18.1368074,31.6631707 18.1368074,31.6631707 C18.1368074,31.6631707 17.9908074,31.5721707 17.7718074,31.3721707 C17.5528074,31.1751707 17.2658074,30.8551707 17.0518074,30.4041707 C16.8398074,29.9551707 16.7118074,29.3731707 16.7808074,28.7691707 C16.8458074,28.1621707 17.0968074,27.5481707 17.4538074,27.0031707 C17.6298074,26.7271707 17.8318074,26.4591707 18.0288074,26.1821707 C18.2218074,25.9151707 18.4278074,25.6021707 18.5788074,25.3271707 C18.9168074,24.6981707 19.0608074,24.0571707 19.0838074,23.4831707 C19.1098074,22.9091707 18.9888074,22.4041707 18.8188074,22.0661707 C18.7518074,21.9121707 18.6108074,21.7161707 18.5778074,21.6791707 L18.5018074,21.5841707 C18.3308074,21.3671707 18.0158074,21.3311707 17.7988074,21.5031707 C17.5828074,21.6741707 17.5468074,21.9891707 17.7178074,22.2061707 L17.7468074,22.2391707" id="Fill-350"></path>
                        <path d="M18.6758074,19.8091707 C18.6758074,19.8091707 17.3488074,27.3511707 11.7338074,27.2331707 C11.7338074,27.2331707 9.36780742,27.0381707 9.00380742,28.9911707 C9.34780742,28.6161707 9.84880742,28.5101707 10.3518074,28.5861707 C10.6878074,28.6371707 10.9998074,28.7971707 11.3368074,28.8401707 C11.7698074,28.8961707 12.2258074,28.7451707 12.5398074,28.4411707 C12.6908074,28.2941707 12.8768074,28.1191707 12.9488074,27.9201707 C12.8568074,28.6251707 12.3638074,29.2411707 11.6908074,29.4721707 C12.0518074,29.3481707 12.4538074,29.3531707 12.8218074,29.2081707 C13.2188074,29.0521707 13.5908074,28.8311707 13.9188074,28.5581707 C14.4708074,28.0981707 14.8698074,27.3731707 15.1118074,26.6991707 C15.1358074,27.2581707 15.0388074,27.8711707 14.6648074,28.2871707 C14.6648074,28.2871707 18.3588074,25.5231707 18.6758074,19.8091707" id="Fill-351"></path>
                        <path d="M13.4798074,20.1881707 L13.4708074,20.3311707 L13.4708074,20.1881707 L13.4798074,20.1881707 L13.4708074,20.3311707 L13.4708074,20.1881707 L13.4708074,20.3431707 L13.3878074,20.2111707 L13.4708074,20.1881707 L13.4708074,20.3431707 L13.3878074,20.2111707 L13.4208074,20.2641707 L13.3788074,20.2171707 L13.3878074,20.2111707 L13.4208074,20.2641707 L13.3788074,20.2171707 L13.4228074,20.1471707 L13.4768074,19.9831707 C13.5148074,19.8011707 13.5378074,19.6161707 13.5378074,19.4421707 C13.5378074,19.1791707 13.4868074,18.9471707 13.3818074,18.7611707 C13.0448074,18.1791707 12.5638074,17.9671707 11.9778074,17.9581707 C11.3088074,17.9521707 10.5438074,18.3101707 10.1028074,18.8301707 C9.38080742,19.6741707 9.10480742,20.4701707 9.10380742,21.1821707 C9.10380742,22.0861707 9.55480742,22.9071707 10.3088074,23.5271707 C11.0608074,24.1441707 12.1088074,24.5321707 13.2188074,24.5311707 C13.5938074,24.5311707 13.9758074,24.4871707 14.3568074,24.3941707 C16.3358074,23.9091707 17.8198074,22.2811707 17.9258074,20.2731707 C17.9318074,20.1541707 17.9348074,20.0351707 17.9348074,19.9161707 C17.9368074,17.9851707 17.1018074,16.0381707 15.6408074,14.8191707 C14.4878074,13.8551707 13.0588074,13.4181707 11.5818074,13.4171707 C9.22080742,13.4131707 6.76880742,14.5591707 5.36180742,16.3741707 C4.17280742,17.9041707 3.73080742,19.4821707 3.72780742,21.1231707 C3.72380742,23.4761707 4.67780742,25.9561707 5.76780742,28.3161707 C7.83280742,32.8011707 10.2888074,37.2321707 11.4928074,42.1741707 C11.7888074,43.3931707 12.0088074,44.6621707 12.0088074,45.9461707 C12.0088074,46.4421707 11.9758074,46.9391707 11.9018074,47.4361707 C11.6308074,49.2261707 10.7748074,51.0051707 9.25080742,52.1061707 C8.25580742,52.8181707 6.95480742,53.4191707 5.61380742,53.4241707 C4.94080742,53.4251707 4.25380742,53.2631707 3.63680742,52.8691707 C2.47780742,52.1211707 1.81180742,50.7301707 1.80480742,49.3651707 C1.80480742,48.9791707 1.86080742,48.5931707 1.98080742,48.2241707 C2.36780742,47.0501707 3.44180742,46.3591707 4.51780742,46.3581707 C5.40580742,46.3461707 6.32480742,46.8721707 6.73480742,47.9061707 C6.85680742,48.2061707 6.92180742,48.5311707 6.92280742,48.8611707 C6.92380742,49.4031707 6.73680742,49.9901707 6.24680742,50.3791707 C6.02980742,50.5491707 5.71480742,50.5121707 5.54380742,50.2951707 C5.37380742,50.0781707 5.41080742,49.7641707 5.62780742,49.5931707 C5.81280742,49.4501707 5.92180742,49.1901707 5.92280742,48.8611707 C5.92280742,48.6671707 5.88180742,48.4611707 5.80880742,48.2831707 C5.52080742,47.6051707 5.05080742,47.3701707 4.51780742,47.3581707 C3.86680742,47.3561707 3.16980742,47.7921707 2.93180742,48.5341707 C2.84680742,48.7931707 2.80480742,49.0751707 2.80480742,49.3651707 C2.79880742,50.3991707 3.35780742,51.5171707 4.17380742,52.0261707 C4.61380742,52.3051707 5.09580742,52.4241707 5.61380742,52.4241707 C6.64080742,52.4301707 7.79880742,51.9231707 8.66680742,51.2951707 C9.91180742,50.4041707 10.6758074,48.8711707 10.9128074,47.2871707 C10.9798074,46.8451707 11.0098074,46.3971707 11.0098074,45.9461707 C11.0098074,44.7771707 10.8068074,43.5841707 10.5208074,42.4101707 C9.36380742,37.6401707 6.94980742,33.2631707 4.85980742,28.7341707 C3.75680742,26.3361707 2.73080742,23.7451707 2.72780742,21.1231707 C2.72480742,19.2991707 3.24280742,17.4601707 4.57280742,15.7591707 C6.20380742,13.6741707 8.90680742,12.4221707 11.5818074,12.4171707 C13.2538074,12.4161707 14.9278074,12.9181707 16.2828074,14.0521707 C17.9968074,15.4901707 18.9338074,17.7041707 18.9348074,19.9161707 C18.9348074,20.0531707 18.9318074,20.1901707 18.9248074,20.3261707 C18.7908074,22.8131707 16.9598074,24.7911707 14.5938074,25.3661707 C14.1338074,25.4781707 13.6708074,25.5311707 13.2188074,25.5311707 C11.8768074,25.5301707 10.6178074,25.0701707 9.67580742,24.3011707 C8.73480742,23.5341707 8.10380742,22.4321707 8.10380742,21.1821707 C8.10280742,20.2011707 8.49780742,19.1611707 9.34480742,18.1781707 C9.99580742,17.4291707 10.9798074,16.9631707 11.9778074,16.9581707 C12.8408074,16.9471707 13.7468074,17.3581707 14.2518074,18.2691707 C14.4638074,18.6451707 14.5378074,19.0551707 14.5378074,19.4421707 C14.5378074,19.7011707 14.5048074,19.9521707 14.4548074,20.1911707 C14.4128074,20.3801707 14.3448074,20.5821707 14.2078074,20.7791707 C14.1388074,20.8771707 14.0488074,20.9751707 13.9248074,21.0541707 C13.8028074,21.1341707 13.6398074,21.1891707 13.4708074,21.1881707 L13.4188074,21.1871707 C13.1428074,21.1691707 12.9328074,20.9321707 12.9498074,20.6571707 C12.9668074,20.3811707 13.2038074,20.1711707 13.4798074,20.1881707" id="Fill-352"></path>
                        <path d="M5.88880742,48.8891707 C6.31480742,49.0281707 6.54780742,49.4871707 6.40780742,49.9141707 C6.26880742,50.3401707 5.80980742,50.5731707 5.38280742,50.4341707 C4.95680742,50.2941707 4.72380742,49.8351707 4.86280742,49.4081707 C5.00280742,48.9821707 5.46180742,48.7491707 5.88880742,48.8891707" id="Fill-353"></path>
                        <path d="M13.6788074,19.4851707 C14.1058074,19.6251707 14.3378074,20.0841707 14.1988074,20.5101707 C14.0588074,20.9371707 13.5998074,21.1701707 13.1738074,21.0301707 C12.7468074,20.8901707 12.5138074,20.4311707 12.6538074,20.0051707 C12.7928074,19.5781707 13.2518074,19.3461707 13.6788074,19.4851707" id="Fill-354"></path>
                        <path d="M2.78480742,20.1831707 C2.78480742,20.1831707 2.75780742,20.3101707 2.70680742,20.5491707 C2.65180742,20.7801707 2.58780742,21.1521707 2.51180742,21.6211707 C2.37880742,22.5471707 2.25780742,23.8901707 2.38380742,25.4881707 C2.50280742,27.0821707 2.87180742,28.9341707 3.63880742,30.7771707 C4.01380742,31.7071707 4.52580742,32.5901707 4.91180742,33.5091707 C5.29580742,34.4231707 5.53980742,35.4211707 5.46480742,36.4111707 C5.39680742,37.3891707 4.96480742,38.3611707 4.22280742,38.9781707 C3.49280742,39.6011707 2.42580742,39.7741707 1.57880742,39.4251707 C0.718807418,39.0801707 0.211807418,38.1651707 0.256807418,37.3171707 C0.298807418,36.4631707 0.862807418,35.7171707 1.54880742,35.4141707 C1.89180742,35.2601707 2.26480742,35.2091707 2.59680742,35.3031707 C2.91980742,35.3941707 3.19180742,35.6151707 3.36080742,35.8691707 C3.72580742,36.3871707 3.63580742,37.0171707 3.36580742,37.3721707 C3.10480742,37.7441707 2.75780742,37.9051707 2.52780742,37.9651707 C2.28980742,38.0221707 2.15780742,38.0071707 2.15780742,38.0071707 C2.15780742,38.0071707 2.28880742,38.0261707 2.52980742,37.9761707 C2.76480742,37.9221707 3.11980742,37.7711707 3.40080742,37.3971707 C3.68980742,37.0431707 3.80880742,36.3791707 3.43780742,35.8191707 C3.26380742,35.5431707 2.98980742,35.2981707 2.62680742,35.1841707 C2.27280742,35.0721707 1.85880742,35.1151707 1.48680742,35.2701707 C0.738807418,35.5761707 0.103807418,36.3541707 0.0248074177,37.3031707 C-0.0591925823,38.2351707 0.484807418,39.2931707 1.45280742,39.7161707 C2.40480742,40.1431707 3.61980742,39.9801707 4.47780742,39.2951707 C5.34180742,38.6161707 5.85280742,37.5461707 5.96280742,36.4571707 C6.07880742,35.3621707 5.84080742,34.2711707 5.46280742,33.2891707 C5.08180742,32.3041707 4.60280742,31.4201707 4.27480742,30.5251707 C3.59180742,28.7351707 3.29380742,26.9551707 3.22580742,25.4351707 C3.15180742,23.9111707 3.30580742,22.6441707 3.45580742,21.7731707 C3.53980742,21.3451707 3.60580742,21.0121707 3.67080742,20.7701707 C3.72880742,20.5331707 3.75980742,20.4061707 3.75980742,20.4061707 C3.82580742,20.1381707 3.66180742,19.8671707 3.39380742,19.8021707 C3.12480742,19.7361707 2.85380742,19.9001707 2.78880742,20.1681707 L2.78480742,20.1831707" id="Fill-355"></path>
                        <path d="M0.204807418,27.1781707 C0.496807418,26.6231707 1.60580742,26.1491707 1.60580742,26.1491707 C-0.646192582,28.2041707 0.128807418,30.6611707 0.128807418,30.6611707 C0.0388074177,29.5751707 1.15680742,28.8881707 1.15680742,28.8881707 C0.389807418,29.6461707 0.671807418,30.6161707 1.00680742,31.5151707 C1.18980742,32.0061707 0.971807418,32.5931707 0.736807418,33.0311707 C1.68280742,32.7461707 2.68780742,31.7531707 2.37680742,28.7131707 C1.82180742,23.2781707 2.90280742,20.5221707 2.90280742,20.5221707 L4.17180742,17.0701707 C3.05280742,18.0531707 1.96280742,22.0381707 1.44780742,23.9681707 C0.961807418,25.7911707 0.204807418,27.1781707 0.204807418,27.1781707" id="Fill-356"></path>
                        <polygon id="Fill-357" points="4.86880742 88.2711692 5.86880742 88.2711692 5.86880742 52.9211707 4.86880742 52.9211707"></polygon>
                        <path d="M21.5838074,18.5021707 L21.6798074,18.5781707 C21.7168074,18.6101707 21.9128074,18.7521707 22.0668074,18.8191707 C22.4048074,18.9881707 22.9098074,19.1091707 23.4828074,19.0841707 C24.0578074,19.0611707 24.6978074,18.9161707 25.3268074,18.5791707 C25.6028074,18.4281707 25.9158074,18.2211707 26.1828074,18.0291707 C26.4588074,17.8321707 26.7278074,17.6301707 27.0038074,17.4531707 C27.5478074,17.0961707 28.1628074,16.8461707 28.7688074,16.7801707 C29.3738074,16.7121707 29.9558074,16.8401707 30.4038074,17.0521707 C30.8558074,17.2661707 31.1748074,17.5531707 31.3728074,17.7711707 C31.5728074,17.9901707 31.6628074,18.1361707 31.6628074,18.1361707 C31.6628074,18.1361707 31.5868074,17.9831707 31.4068074,17.7431707 C31.2278074,17.5041707 30.9308074,17.1801707 30.4788074,16.9111707 C30.0298074,16.6441707 29.4228074,16.4451707 28.7488074,16.4571707 C28.0778074,16.4651707 27.3748074,16.6781707 26.7468074,17.0071707 C26.4328074,17.1691707 26.1378074,17.3501707 25.8518074,17.5151707 C25.5558074,17.6861707 25.3038074,17.8221707 25.0058074,17.9511707 C24.4868074,18.1751707 23.9258074,18.2541707 23.4828074,18.2291707 C23.0338074,18.2101707 22.6988074,18.0851707 22.5148074,17.9701707 C22.4058074,17.9011707 22.4088074,17.9041707 22.3278074,17.8301707 L22.2388074,17.7461707 C22.0378074,17.5561707 21.7218074,17.5651707 21.5318074,17.7661707 C21.3418074,17.9671707 21.3498074,18.2831707 21.5508074,18.4731707 L21.5838074,18.5021707" id="Fill-358"></path>
                        <path d="M19.8098074,18.6761707 C19.8098074,18.6761707 27.3518074,17.3491707 27.2328074,11.7331707 C27.2328074,11.7331707 27.0378074,9.36817074 28.9908074,9.00317074 C28.6158074,9.34717074 28.5098074,9.84817074 28.5868074,10.3521707 C28.6378074,10.6871707 28.7968074,11.0001707 28.8408074,11.3361707 C28.8968074,11.7701707 28.7458074,12.2251707 28.4408074,12.5391707 C28.2938074,12.6911707 28.1188074,12.8771707 27.9198074,12.9491707 C28.6258074,12.8561707 29.2408074,12.3631707 29.4728074,11.6911707 C29.3478074,12.0521707 29.3538074,12.4541707 29.2088074,12.8221707 C29.0518074,13.2191707 28.8318074,13.5911707 28.5588074,13.9191707 C28.0978074,14.4711707 27.3738074,14.8701707 26.6988074,15.1111707 C27.2578074,15.1351707 27.8708074,15.0391707 28.2868074,14.6651707 C28.2868074,14.6651707 25.5228074,18.3581707 19.8098074,18.6761707" id="Fill-359"></path>
                        <path d="M21.1868074,13.4181707 L21.1888074,13.4711707 C21.1898074,13.6391707 21.1348074,13.8021707 21.0548074,13.9251707 C20.9338074,14.1101707 20.7788074,14.2191707 20.6308074,14.2981707 C20.4818074,14.3761707 20.3328074,14.4241707 20.1908074,14.4551707 C19.9528074,14.5051707 19.7008074,14.5371707 19.4428074,14.5371707 C19.0548074,14.5371707 18.6458074,14.4641707 18.2698074,14.2521707 C17.3588074,13.7471707 16.9478074,12.8401707 16.9578074,11.9781707 C16.9638074,10.9801707 17.4298074,9.99617074 18.1788074,9.34517074 C19.1608074,8.49717074 20.2008074,8.10217074 21.1828074,8.10417074 C22.4318074,8.10317074 23.5348074,8.73517074 24.3008074,9.67517074 C25.0708074,10.6171707 25.5308074,11.8771707 25.5318074,13.2181707 C25.5318074,13.6711707 25.4788074,14.1331707 25.3658074,14.5941707 C24.7908074,16.9601707 22.8138074,18.7901707 20.3268074,18.9241707 C20.1898074,18.9311707 20.0528074,18.9351707 19.9168074,18.9351707 C17.7048074,18.9331707 15.4908074,17.9961707 14.0528074,16.2821707 C12.9188074,14.9281707 12.4168074,13.2541707 12.4178074,11.5811707 C12.4218074,8.90717074 13.6748074,6.20317074 15.7588074,4.57217074 C17.4598074,3.24317074 19.2998074,2.72417074 21.1238074,2.72717074 C23.7448074,2.73117074 26.3368074,3.75717074 28.7348074,4.86017074 C33.2628074,6.94917074 37.6408074,9.36317074 42.4108074,10.5211707 C43.5848074,10.8061707 44.7778074,11.0091707 45.9468074,11.0091707 C46.3978074,11.0091707 46.8448074,10.9791707 47.2878074,10.9121707 C48.8708074,10.6751707 50.4038074,9.91117074 51.2948074,8.66617074 C51.9228074,7.79917074 52.4298074,6.64017074 52.4248074,5.61417074 C52.4238074,5.09517074 52.3058074,4.61417074 52.0258074,4.17417074 C51.5178074,3.35817074 50.3998074,2.79817074 49.3648074,2.80517074 C49.0748074,2.80517074 48.7938074,2.84717074 48.5348074,2.93117074 C47.7918074,3.17017074 47.3568074,3.86717074 47.3578074,4.51817074 C47.3698074,5.05017074 47.6058074,5.52117074 48.2838074,5.80917074 C48.4608074,5.88217074 48.6668074,5.92317074 48.8608074,5.92217074 C49.1898074,5.92117074 49.4508074,5.81217074 49.5928074,5.62817074 C49.7638074,5.41117074 50.0778074,5.37317074 50.2948074,5.54417074 C50.5118074,5.71517074 50.5498074,6.02917074 50.3788074,6.24617074 C49.9898074,6.73717074 49.4028074,6.92417074 48.8608074,6.92217074 C48.5318074,6.92217074 48.2058074,6.85717074 47.9058074,6.73517074 C46.8728074,6.32517074 46.3458074,5.40517074 46.3578074,4.51817074 C46.3588074,3.44217074 47.0508074,2.36717074 48.2238074,1.98117074 C48.5938074,1.86017074 48.9798074,1.80517074 49.3648074,1.80517074 C50.7308074,1.81217074 52.1208074,2.47817074 52.8698074,3.63717074 C53.2638074,4.25417074 53.4258074,4.94117074 53.4248074,5.61417074 C53.4198074,6.95517074 52.8178074,8.25617074 52.1068074,9.25017074 C51.0058074,10.7751707 49.2258074,11.6301707 47.4358074,11.9011707 C46.9398074,11.9761707 46.4418074,12.0091707 45.9468074,12.0091707 C44.6618074,12.0091707 43.3928074,11.7881707 42.1748074,11.4921707 C37.2318074,10.2891707 32.8008074,7.83317074 28.3158074,5.76817074 C25.9568074,4.67717074 23.4768074,3.72417074 21.1238074,3.72717074 C19.4828074,3.73017074 17.9038074,4.17217074 16.3738074,5.36117074 C14.5588074,6.76917074 13.4128074,9.22117074 13.4178074,11.5811707 C13.4188074,13.0591707 13.8558074,14.4881707 14.8198074,15.6411707 C16.0388074,17.1021707 17.9858074,17.9371707 19.9168074,17.9351707 C20.0358074,17.9351707 20.1548074,17.9321707 20.2738074,17.9261707 C22.2818074,17.8201707 23.9088074,16.3361707 24.3948074,14.3571707 C24.4878074,13.9751707 24.5318074,13.5931707 24.5318074,13.2181707 C24.5328074,12.1081707 24.1438074,11.0601707 23.5268074,10.3081707 C22.9078074,9.55417074 22.0858074,9.10417074 21.1828074,9.10417074 C20.4698074,9.10517074 19.6738074,9.38017074 18.8308074,10.1031707 C18.3108074,10.5431707 17.9518074,11.3081707 17.9578074,11.9781707 C17.9678074,12.5641707 18.1788074,13.0441707 18.7608074,13.3811707 C18.9478074,13.4871707 19.1798074,13.5371707 19.4428074,13.5371707 C19.6158074,13.5371707 19.8008074,13.5151707 19.9838074,13.4761707 L20.2018074,13.3911707 L20.2178074,13.3791707 L20.2718074,13.4331707 L20.2038074,13.4011707 L20.2178074,13.3791707 L20.2718074,13.4331707 L20.2038074,13.4011707 L20.3518074,13.4711707 L20.1888074,13.4711707 L20.2038074,13.4011707 L20.3518074,13.4711707 L20.1888074,13.4711707 L20.3358074,13.4711707 L20.1888074,13.4801707 L20.1888074,13.4711707 L20.3358074,13.4711707 L20.1888074,13.4801707 C20.1718074,13.2041707 20.3808074,12.9671707 20.6568074,12.9501707 C20.9328074,12.9331707 21.1698074,13.1421707 21.1868074,13.4181707" id="Fill-360"></path>
                        <path d="M48.8888074,5.88817074 C49.0288074,6.31517074 49.4878074,6.54717074 49.9138074,6.40817074 C50.3408074,6.26817074 50.5738074,5.80917074 50.4338074,5.38317074 C50.2948074,4.95617074 49.8348074,4.72317074 49.4088074,4.86317074 C48.9818074,5.00217074 48.7498074,5.46217074 48.8888074,5.88817074" id="Fill-361"></path>
                        <path d="M19.4858074,13.6791707 C19.6248074,14.1051707 20.0838074,14.3381707 20.5108074,14.1981707 C20.9368074,14.0591707 21.1698074,13.6001707 21.0298074,13.1731707 C20.8908074,12.7471707 20.4318074,12.5141707 20.0048074,12.6531707 C19.5788074,12.7931707 19.3458074,13.2521707 19.4858074,13.6791707" id="Fill-362"></path>
                        <path d="M20.4068074,3.76017074 C20.4068074,3.76017074 20.5328074,3.72817074 20.7708074,3.67017074 C21.0128074,3.60617074 21.3458074,3.53917074 21.7738074,3.45617074 C22.6438074,3.30517074 23.9108074,3.15117074 25.4348074,3.22617074 C26.9558074,3.29417074 28.7358074,3.59217074 30.5258074,4.27417074 C31.4208074,4.60217074 32.3048074,5.08217074 33.2898074,5.46217074 C34.2708074,5.84017074 35.3618074,6.07917074 36.4568074,5.96317074 C37.5458074,5.85217074 38.6168074,5.34217074 39.2948074,4.47717074 C39.9808074,3.61917074 40.1438074,2.40517074 39.7158074,1.45217074 C39.2928074,0.484170737 38.2348074,-0.0588292627 37.3028074,0.0251707373 C36.3538074,0.103170737 35.5768074,0.739170737 35.2708074,1.48717074 C35.1158074,1.85817074 35.0728074,2.27317074 35.1838074,2.62717074 C35.2988074,2.98917074 35.5428074,3.26417074 35.8188074,3.43817074 C36.3788074,3.80917074 37.0428074,3.68917074 37.3978074,3.40117074 C37.7718074,3.12017074 37.9218074,2.76417074 37.9758074,2.53017074 C38.0268074,2.28917074 38.0068074,2.15717074 38.0068074,2.15717074 C38.0068074,2.15717074 38.0228074,2.29017074 37.9648074,2.52717074 C37.9048074,2.75817074 37.7448074,3.10417074 37.3728074,3.36617074 C37.0178074,3.63517074 36.3878074,3.72617074 35.8698074,3.36117074 C35.6148074,3.19217074 35.3938074,2.91917074 35.3028074,2.59717074 C35.2088074,2.26517074 35.2598074,1.89117074 35.4138074,1.54917074 C35.7168074,0.862170737 36.4628074,0.299170737 37.3178074,0.256170737 C38.1658074,0.212170737 39.0808074,0.718170737 39.4258074,1.57817074 C39.7748074,2.42617074 39.6008074,3.49217074 38.9778074,4.22217074 C38.3608074,4.96417074 37.3888074,5.39717074 36.4108074,5.46517074 C35.4218074,5.54017074 34.4228074,5.29517074 33.5098074,4.91117074 C32.5908074,4.52617074 31.7078074,4.01317074 30.7778074,3.63917074 C28.9338074,2.87217074 27.0818074,2.50317074 25.4878074,2.38317074 C23.8898074,2.25717074 22.5478074,2.37917074 21.6208074,2.51117074 C21.1518074,2.58717074 20.7808074,2.65217074 20.5488074,2.70717074 C20.3108074,2.75817074 20.1828074,2.78517074 20.1828074,2.78517074 C19.9128074,2.84317074 19.7408074,3.10817074 19.7988074,3.37817074 C19.8568074,3.64817074 20.1218074,3.82117074 20.3918074,3.76317074 L20.4068074,3.76017074" id="Fill-363"></path>
                        <path d="M27.1788074,0.204170737 C26.6238074,0.496170737 26.1488074,1.60517074 26.1488074,1.60517074 C28.2038074,-0.646829263 30.6618074,0.129170737 30.6618074,0.129170737 C29.5758074,0.0391707373 28.8878074,1.15617074 28.8878074,1.15617074 C29.6458074,0.389170737 30.6168074,0.672170737 31.5158074,1.00717074 C32.0068074,1.19017074 32.5938074,0.972170737 33.0308074,0.736170737 C32.7458074,1.68217074 31.7538074,2.68817074 28.7128074,2.37717074 C23.2778074,1.82117074 20.5218074,2.90317074 20.5218074,2.90317074 L17.0698074,4.17117074 C18.0528074,3.05217074 22.0378074,1.96317074 23.9688074,1.44817074 C25.7918074,0.961170737 27.1788074,0.204170737 27.1788074,0.204170737" id="Fill-364"></path>
                        <polygon id="Fill-365" points="52.9218074 5.86917074 88.9218074 5.86917074 88.9218074 4.86917074 52.9218074 4.86917074"></polygon>
                    </g>
                    <g id="4" transform="translate(291.500000, 452.500000) scale(-1, -1) translate(-291.500000, -452.500000) translate(247.000000, 408.000000)" fill="#FFCFCF">
                        <path d="M5.95980742,6.07117074 L6.43280742,5.90817074 C7.25880742,8.29617074 8.18280742,9.60617074 8.97580742,10.3071707 C9.77080742,11.0061707 10.4288074,11.1241707 10.8488074,11.1281707 C11.0798074,11.1281707 11.2378074,11.0871707 11.2898074,11.0711707 L11.4368074,11.5491707 L10.9588074,11.4021707 C10.9748074,11.3501707 11.0158074,11.1911707 11.0158074,10.9601707 C11.0128074,10.5401707 10.8938074,9.88217074 10.1948074,9.08717074 C9.49480742,8.29417074 8.18480742,7.37017074 5.79680742,6.54417074 L5.95980742,6.07117074 L6.43280742,5.90817074 L5.95980742,6.07117074 L6.12380742,5.59917074 C8.61880742,6.46417074 10.0878074,7.45817074 10.9438074,8.42417074 C11.8018074,9.38817074 12.0198074,10.3281707 12.0158074,10.9601707 C12.0158074,11.3091707 11.9548074,11.5651707 11.9148074,11.6951707 L11.8368074,11.9491707 L11.5838074,12.0261707 C11.4528074,12.0671707 11.1978074,12.1271707 10.8488074,12.1281707 C10.2168074,12.1311707 9.27680742,11.9131707 8.31280742,11.0551707 C7.34680742,10.1991707 6.35180742,8.73117074 5.48780742,6.23517074 L5.15080742,5.26217074 L6.12380742,5.59917074 L5.95980742,6.07117074" id="Fill-349"></path>
                        <path d="M17.7468074,22.2391707 L17.8308074,22.3281707 C17.9038074,22.4091707 17.9008074,22.4051707 17.9708074,22.5151707 C18.0858074,22.6981707 18.2098074,23.0331707 18.2298074,23.4831707 C18.2538074,23.9261707 18.1758074,24.4861707 17.9508074,25.0061707 C17.8218074,25.3041707 17.6858074,25.5561707 17.5148074,25.8511707 C17.3508074,26.1381707 17.1688074,26.4321707 17.0078074,26.7471707 C16.6778074,27.3741707 16.4658074,28.0771707 16.4568074,28.7481707 C16.4448074,29.4221707 16.6448074,30.0301707 16.9108074,30.4791707 C17.1798074,30.9311707 17.5038074,31.2281707 17.7438074,31.4061707 C17.9838074,31.5871707 18.1368074,31.6631707 18.1368074,31.6631707 C18.1368074,31.6631707 17.9908074,31.5721707 17.7718074,31.3721707 C17.5528074,31.1751707 17.2658074,30.8551707 17.0518074,30.4041707 C16.8398074,29.9551707 16.7118074,29.3731707 16.7808074,28.7691707 C16.8458074,28.1621707 17.0968074,27.5481707 17.4538074,27.0031707 C17.6298074,26.7271707 17.8318074,26.4591707 18.0288074,26.1821707 C18.2218074,25.9151707 18.4278074,25.6021707 18.5788074,25.3271707 C18.9168074,24.6981707 19.0608074,24.0571707 19.0838074,23.4831707 C19.1098074,22.9091707 18.9888074,22.4041707 18.8188074,22.0661707 C18.7518074,21.9121707 18.6108074,21.7161707 18.5778074,21.6791707 L18.5018074,21.5841707 C18.3308074,21.3671707 18.0158074,21.3311707 17.7988074,21.5031707 C17.5828074,21.6741707 17.5468074,21.9891707 17.7178074,22.2061707 L17.7468074,22.2391707" id="Fill-350"></path>
                        <path d="M18.6758074,19.8091707 C18.6758074,19.8091707 17.3488074,27.3511707 11.7338074,27.2331707 C11.7338074,27.2331707 9.36780742,27.0381707 9.00380742,28.9911707 C9.34780742,28.6161707 9.84880742,28.5101707 10.3518074,28.5861707 C10.6878074,28.6371707 10.9998074,28.7971707 11.3368074,28.8401707 C11.7698074,28.8961707 12.2258074,28.7451707 12.5398074,28.4411707 C12.6908074,28.2941707 12.8768074,28.1191707 12.9488074,27.9201707 C12.8568074,28.6251707 12.3638074,29.2411707 11.6908074,29.4721707 C12.0518074,29.3481707 12.4538074,29.3531707 12.8218074,29.2081707 C13.2188074,29.0521707 13.5908074,28.8311707 13.9188074,28.5581707 C14.4708074,28.0981707 14.8698074,27.3731707 15.1118074,26.6991707 C15.1358074,27.2581707 15.0388074,27.8711707 14.6648074,28.2871707 C14.6648074,28.2871707 18.3588074,25.5231707 18.6758074,19.8091707" id="Fill-351"></path>
                        <path d="M13.4798074,20.1881707 L13.4708074,20.3311707 L13.4708074,20.1881707 L13.4798074,20.1881707 L13.4708074,20.3311707 L13.4708074,20.1881707 L13.4708074,20.3431707 L13.3878074,20.2111707 L13.4708074,20.1881707 L13.4708074,20.3431707 L13.3878074,20.2111707 L13.4208074,20.2641707 L13.3788074,20.2171707 L13.3878074,20.2111707 L13.4208074,20.2641707 L13.3788074,20.2171707 L13.4228074,20.1471707 L13.4768074,19.9831707 C13.5148074,19.8011707 13.5378074,19.6161707 13.5378074,19.4421707 C13.5378074,19.1791707 13.4868074,18.9471707 13.3818074,18.7611707 C13.0448074,18.1791707 12.5638074,17.9671707 11.9778074,17.9581707 C11.3088074,17.9521707 10.5438074,18.3101707 10.1028074,18.8301707 C9.38080742,19.6741707 9.10480742,20.4701707 9.10380742,21.1821707 C9.10380742,22.0861707 9.55480742,22.9071707 10.3088074,23.5271707 C11.0608074,24.1441707 12.1088074,24.5321707 13.2188074,24.5311707 C13.5938074,24.5311707 13.9758074,24.4871707 14.3568074,24.3941707 C16.3358074,23.9091707 17.8198074,22.2811707 17.9258074,20.2731707 C17.9318074,20.1541707 17.9348074,20.0351707 17.9348074,19.9161707 C17.9368074,17.9851707 17.1018074,16.0381707 15.6408074,14.8191707 C14.4878074,13.8551707 13.0588074,13.4181707 11.5818074,13.4171707 C9.22080742,13.4131707 6.76880742,14.5591707 5.36180742,16.3741707 C4.17280742,17.9041707 3.73080742,19.4821707 3.72780742,21.1231707 C3.72380742,23.4761707 4.67780742,25.9561707 5.76780742,28.3161707 C7.83280742,32.8011707 10.2888074,37.2321707 11.4928074,42.1741707 C11.7888074,43.3931707 12.0088074,44.6621707 12.0088074,45.9461707 C12.0088074,46.4421707 11.9758074,46.9391707 11.9018074,47.4361707 C11.6308074,49.2261707 10.7748074,51.0051707 9.25080742,52.1061707 C8.25580742,52.8181707 6.95480742,53.4191707 5.61380742,53.4241707 C4.94080742,53.4251707 4.25380742,53.2631707 3.63680742,52.8691707 C2.47780742,52.1211707 1.81180742,50.7301707 1.80480742,49.3651707 C1.80480742,48.9791707 1.86080742,48.5931707 1.98080742,48.2241707 C2.36780742,47.0501707 3.44180742,46.3591707 4.51780742,46.3581707 C5.40580742,46.3461707 6.32480742,46.8721707 6.73480742,47.9061707 C6.85680742,48.2061707 6.92180742,48.5311707 6.92280742,48.8611707 C6.92380742,49.4031707 6.73680742,49.9901707 6.24680742,50.3791707 C6.02980742,50.5491707 5.71480742,50.5121707 5.54380742,50.2951707 C5.37380742,50.0781707 5.41080742,49.7641707 5.62780742,49.5931707 C5.81280742,49.4501707 5.92180742,49.1901707 5.92280742,48.8611707 C5.92280742,48.6671707 5.88180742,48.4611707 5.80880742,48.2831707 C5.52080742,47.6051707 5.05080742,47.3701707 4.51780742,47.3581707 C3.86680742,47.3561707 3.16980742,47.7921707 2.93180742,48.5341707 C2.84680742,48.7931707 2.80480742,49.0751707 2.80480742,49.3651707 C2.79880742,50.3991707 3.35780742,51.5171707 4.17380742,52.0261707 C4.61380742,52.3051707 5.09580742,52.4241707 5.61380742,52.4241707 C6.64080742,52.4301707 7.79880742,51.9231707 8.66680742,51.2951707 C9.91180742,50.4041707 10.6758074,48.8711707 10.9128074,47.2871707 C10.9798074,46.8451707 11.0098074,46.3971707 11.0098074,45.9461707 C11.0098074,44.7771707 10.8068074,43.5841707 10.5208074,42.4101707 C9.36380742,37.6401707 6.94980742,33.2631707 4.85980742,28.7341707 C3.75680742,26.3361707 2.73080742,23.7451707 2.72780742,21.1231707 C2.72480742,19.2991707 3.24280742,17.4601707 4.57280742,15.7591707 C6.20380742,13.6741707 8.90680742,12.4221707 11.5818074,12.4171707 C13.2538074,12.4161707 14.9278074,12.9181707 16.2828074,14.0521707 C17.9968074,15.4901707 18.9338074,17.7041707 18.9348074,19.9161707 C18.9348074,20.0531707 18.9318074,20.1901707 18.9248074,20.3261707 C18.7908074,22.8131707 16.9598074,24.7911707 14.5938074,25.3661707 C14.1338074,25.4781707 13.6708074,25.5311707 13.2188074,25.5311707 C11.8768074,25.5301707 10.6178074,25.0701707 9.67580742,24.3011707 C8.73480742,23.5341707 8.10380742,22.4321707 8.10380742,21.1821707 C8.10280742,20.2011707 8.49780742,19.1611707 9.34480742,18.1781707 C9.99580742,17.4291707 10.9798074,16.9631707 11.9778074,16.9581707 C12.8408074,16.9471707 13.7468074,17.3581707 14.2518074,18.2691707 C14.4638074,18.6451707 14.5378074,19.0551707 14.5378074,19.4421707 C14.5378074,19.7011707 14.5048074,19.9521707 14.4548074,20.1911707 C14.4128074,20.3801707 14.3448074,20.5821707 14.2078074,20.7791707 C14.1388074,20.8771707 14.0488074,20.9751707 13.9248074,21.0541707 C13.8028074,21.1341707 13.6398074,21.1891707 13.4708074,21.1881707 L13.4188074,21.1871707 C13.1428074,21.1691707 12.9328074,20.9321707 12.9498074,20.6571707 C12.9668074,20.3811707 13.2038074,20.1711707 13.4798074,20.1881707" id="Fill-352"></path>
                        <path d="M5.88880742,48.8891707 C6.31480742,49.0281707 6.54780742,49.4871707 6.40780742,49.9141707 C6.26880742,50.3401707 5.80980742,50.5731707 5.38280742,50.4341707 C4.95680742,50.2941707 4.72380742,49.8351707 4.86280742,49.4081707 C5.00280742,48.9821707 5.46180742,48.7491707 5.88880742,48.8891707" id="Fill-353"></path>
                        <path d="M13.6788074,19.4851707 C14.1058074,19.6251707 14.3378074,20.0841707 14.1988074,20.5101707 C14.0588074,20.9371707 13.5998074,21.1701707 13.1738074,21.0301707 C12.7468074,20.8901707 12.5138074,20.4311707 12.6538074,20.0051707 C12.7928074,19.5781707 13.2518074,19.3461707 13.6788074,19.4851707" id="Fill-354"></path>
                        <path d="M2.78480742,20.1831707 C2.78480742,20.1831707 2.75780742,20.3101707 2.70680742,20.5491707 C2.65180742,20.7801707 2.58780742,21.1521707 2.51180742,21.6211707 C2.37880742,22.5471707 2.25780742,23.8901707 2.38380742,25.4881707 C2.50280742,27.0821707 2.87180742,28.9341707 3.63880742,30.7771707 C4.01380742,31.7071707 4.52580742,32.5901707 4.91180742,33.5091707 C5.29580742,34.4231707 5.53980742,35.4211707 5.46480742,36.4111707 C5.39680742,37.3891707 4.96480742,38.3611707 4.22280742,38.9781707 C3.49280742,39.6011707 2.42580742,39.7741707 1.57880742,39.4251707 C0.718807418,39.0801707 0.211807418,38.1651707 0.256807418,37.3171707 C0.298807418,36.4631707 0.862807418,35.7171707 1.54880742,35.4141707 C1.89180742,35.2601707 2.26480742,35.2091707 2.59680742,35.3031707 C2.91980742,35.3941707 3.19180742,35.6151707 3.36080742,35.8691707 C3.72580742,36.3871707 3.63580742,37.0171707 3.36580742,37.3721707 C3.10480742,37.7441707 2.75780742,37.9051707 2.52780742,37.9651707 C2.28980742,38.0221707 2.15780742,38.0071707 2.15780742,38.0071707 C2.15780742,38.0071707 2.28880742,38.0261707 2.52980742,37.9761707 C2.76480742,37.9221707 3.11980742,37.7711707 3.40080742,37.3971707 C3.68980742,37.0431707 3.80880742,36.3791707 3.43780742,35.8191707 C3.26380742,35.5431707 2.98980742,35.2981707 2.62680742,35.1841707 C2.27280742,35.0721707 1.85880742,35.1151707 1.48680742,35.2701707 C0.738807418,35.5761707 0.103807418,36.3541707 0.0248074177,37.3031707 C-0.0591925823,38.2351707 0.484807418,39.2931707 1.45280742,39.7161707 C2.40480742,40.1431707 3.61980742,39.9801707 4.47780742,39.2951707 C5.34180742,38.6161707 5.85280742,37.5461707 5.96280742,36.4571707 C6.07880742,35.3621707 5.84080742,34.2711707 5.46280742,33.2891707 C5.08180742,32.3041707 4.60280742,31.4201707 4.27480742,30.5251707 C3.59180742,28.7351707 3.29380742,26.9551707 3.22580742,25.4351707 C3.15180742,23.9111707 3.30580742,22.6441707 3.45580742,21.7731707 C3.53980742,21.3451707 3.60580742,21.0121707 3.67080742,20.7701707 C3.72880742,20.5331707 3.75980742,20.4061707 3.75980742,20.4061707 C3.82580742,20.1381707 3.66180742,19.8671707 3.39380742,19.8021707 C3.12480742,19.7361707 2.85380742,19.9001707 2.78880742,20.1681707 L2.78480742,20.1831707" id="Fill-355"></path>
                        <path d="M0.204807418,27.1781707 C0.496807418,26.6231707 1.60580742,26.1491707 1.60580742,26.1491707 C-0.646192582,28.2041707 0.128807418,30.6611707 0.128807418,30.6611707 C0.0388074177,29.5751707 1.15680742,28.8881707 1.15680742,28.8881707 C0.389807418,29.6461707 0.671807418,30.6161707 1.00680742,31.5151707 C1.18980742,32.0061707 0.971807418,32.5931707 0.736807418,33.0311707 C1.68280742,32.7461707 2.68780742,31.7531707 2.37680742,28.7131707 C1.82180742,23.2781707 2.90280742,20.5221707 2.90280742,20.5221707 L4.17180742,17.0701707 C3.05280742,18.0531707 1.96280742,22.0381707 1.44780742,23.9681707 C0.961807418,25.7911707 0.204807418,27.1781707 0.204807418,27.1781707" id="Fill-356"></path>
                        <polygon id="Fill-357" points="4.86880742 88.2711692 5.86880742 88.2711692 5.86880742 52.9211707 4.86880742 52.9211707"></polygon>
                        <path d="M21.5838074,18.5021707 L21.6798074,18.5781707 C21.7168074,18.6101707 21.9128074,18.7521707 22.0668074,18.8191707 C22.4048074,18.9881707 22.9098074,19.1091707 23.4828074,19.0841707 C24.0578074,19.0611707 24.6978074,18.9161707 25.3268074,18.5791707 C25.6028074,18.4281707 25.9158074,18.2211707 26.1828074,18.0291707 C26.4588074,17.8321707 26.7278074,17.6301707 27.0038074,17.4531707 C27.5478074,17.0961707 28.1628074,16.8461707 28.7688074,16.7801707 C29.3738074,16.7121707 29.9558074,16.8401707 30.4038074,17.0521707 C30.8558074,17.2661707 31.1748074,17.5531707 31.3728074,17.7711707 C31.5728074,17.9901707 31.6628074,18.1361707 31.6628074,18.1361707 C31.6628074,18.1361707 31.5868074,17.9831707 31.4068074,17.7431707 C31.2278074,17.5041707 30.9308074,17.1801707 30.4788074,16.9111707 C30.0298074,16.6441707 29.4228074,16.4451707 28.7488074,16.4571707 C28.0778074,16.4651707 27.3748074,16.6781707 26.7468074,17.0071707 C26.4328074,17.1691707 26.1378074,17.3501707 25.8518074,17.5151707 C25.5558074,17.6861707 25.3038074,17.8221707 25.0058074,17.9511707 C24.4868074,18.1751707 23.9258074,18.2541707 23.4828074,18.2291707 C23.0338074,18.2101707 22.6988074,18.0851707 22.5148074,17.9701707 C22.4058074,17.9011707 22.4088074,17.9041707 22.3278074,17.8301707 L22.2388074,17.7461707 C22.0378074,17.5561707 21.7218074,17.5651707 21.5318074,17.7661707 C21.3418074,17.9671707 21.3498074,18.2831707 21.5508074,18.4731707 L21.5838074,18.5021707" id="Fill-358"></path>
                        <path d="M19.8098074,18.6761707 C19.8098074,18.6761707 27.3518074,17.3491707 27.2328074,11.7331707 C27.2328074,11.7331707 27.0378074,9.36817074 28.9908074,9.00317074 C28.6158074,9.34717074 28.5098074,9.84817074 28.5868074,10.3521707 C28.6378074,10.6871707 28.7968074,11.0001707 28.8408074,11.3361707 C28.8968074,11.7701707 28.7458074,12.2251707 28.4408074,12.5391707 C28.2938074,12.6911707 28.1188074,12.8771707 27.9198074,12.9491707 C28.6258074,12.8561707 29.2408074,12.3631707 29.4728074,11.6911707 C29.3478074,12.0521707 29.3538074,12.4541707 29.2088074,12.8221707 C29.0518074,13.2191707 28.8318074,13.5911707 28.5588074,13.9191707 C28.0978074,14.4711707 27.3738074,14.8701707 26.6988074,15.1111707 C27.2578074,15.1351707 27.8708074,15.0391707 28.2868074,14.6651707 C28.2868074,14.6651707 25.5228074,18.3581707 19.8098074,18.6761707" id="Fill-359"></path>
                        <path d="M21.1868074,13.4181707 L21.1888074,13.4711707 C21.1898074,13.6391707 21.1348074,13.8021707 21.0548074,13.9251707 C20.9338074,14.1101707 20.7788074,14.2191707 20.6308074,14.2981707 C20.4818074,14.3761707 20.3328074,14.4241707 20.1908074,14.4551707 C19.9528074,14.5051707 19.7008074,14.5371707 19.4428074,14.5371707 C19.0548074,14.5371707 18.6458074,14.4641707 18.2698074,14.2521707 C17.3588074,13.7471707 16.9478074,12.8401707 16.9578074,11.9781707 C16.9638074,10.9801707 17.4298074,9.99617074 18.1788074,9.34517074 C19.1608074,8.49717074 20.2008074,8.10217074 21.1828074,8.10417074 C22.4318074,8.10317074 23.5348074,8.73517074 24.3008074,9.67517074 C25.0708074,10.6171707 25.5308074,11.8771707 25.5318074,13.2181707 C25.5318074,13.6711707 25.4788074,14.1331707 25.3658074,14.5941707 C24.7908074,16.9601707 22.8138074,18.7901707 20.3268074,18.9241707 C20.1898074,18.9311707 20.0528074,18.9351707 19.9168074,18.9351707 C17.7048074,18.9331707 15.4908074,17.9961707 14.0528074,16.2821707 C12.9188074,14.9281707 12.4168074,13.2541707 12.4178074,11.5811707 C12.4218074,8.90717074 13.6748074,6.20317074 15.7588074,4.57217074 C17.4598074,3.24317074 19.2998074,2.72417074 21.1238074,2.72717074 C23.7448074,2.73117074 26.3368074,3.75717074 28.7348074,4.86017074 C33.2628074,6.94917074 37.6408074,9.36317074 42.4108074,10.5211707 C43.5848074,10.8061707 44.7778074,11.0091707 45.9468074,11.0091707 C46.3978074,11.0091707 46.8448074,10.9791707 47.2878074,10.9121707 C48.8708074,10.6751707 50.4038074,9.91117074 51.2948074,8.66617074 C51.9228074,7.79917074 52.4298074,6.64017074 52.4248074,5.61417074 C52.4238074,5.09517074 52.3058074,4.61417074 52.0258074,4.17417074 C51.5178074,3.35817074 50.3998074,2.79817074 49.3648074,2.80517074 C49.0748074,2.80517074 48.7938074,2.84717074 48.5348074,2.93117074 C47.7918074,3.17017074 47.3568074,3.86717074 47.3578074,4.51817074 C47.3698074,5.05017074 47.6058074,5.52117074 48.2838074,5.80917074 C48.4608074,5.88217074 48.6668074,5.92317074 48.8608074,5.92217074 C49.1898074,5.92117074 49.4508074,5.81217074 49.5928074,5.62817074 C49.7638074,5.41117074 50.0778074,5.37317074 50.2948074,5.54417074 C50.5118074,5.71517074 50.5498074,6.02917074 50.3788074,6.24617074 C49.9898074,6.73717074 49.4028074,6.92417074 48.8608074,6.92217074 C48.5318074,6.92217074 48.2058074,6.85717074 47.9058074,6.73517074 C46.8728074,6.32517074 46.3458074,5.40517074 46.3578074,4.51817074 C46.3588074,3.44217074 47.0508074,2.36717074 48.2238074,1.98117074 C48.5938074,1.86017074 48.9798074,1.80517074 49.3648074,1.80517074 C50.7308074,1.81217074 52.1208074,2.47817074 52.8698074,3.63717074 C53.2638074,4.25417074 53.4258074,4.94117074 53.4248074,5.61417074 C53.4198074,6.95517074 52.8178074,8.25617074 52.1068074,9.25017074 C51.0058074,10.7751707 49.2258074,11.6301707 47.4358074,11.9011707 C46.9398074,11.9761707 46.4418074,12.0091707 45.9468074,12.0091707 C44.6618074,12.0091707 43.3928074,11.7881707 42.1748074,11.4921707 C37.2318074,10.2891707 32.8008074,7.83317074 28.3158074,5.76817074 C25.9568074,4.67717074 23.4768074,3.72417074 21.1238074,3.72717074 C19.4828074,3.73017074 17.9038074,4.17217074 16.3738074,5.36117074 C14.5588074,6.76917074 13.4128074,9.22117074 13.4178074,11.5811707 C13.4188074,13.0591707 13.8558074,14.4881707 14.8198074,15.6411707 C16.0388074,17.1021707 17.9858074,17.9371707 19.9168074,17.9351707 C20.0358074,17.9351707 20.1548074,17.9321707 20.2738074,17.9261707 C22.2818074,17.8201707 23.9088074,16.3361707 24.3948074,14.3571707 C24.4878074,13.9751707 24.5318074,13.5931707 24.5318074,13.2181707 C24.5328074,12.1081707 24.1438074,11.0601707 23.5268074,10.3081707 C22.9078074,9.55417074 22.0858074,9.10417074 21.1828074,9.10417074 C20.4698074,9.10517074 19.6738074,9.38017074 18.8308074,10.1031707 C18.3108074,10.5431707 17.9518074,11.3081707 17.9578074,11.9781707 C17.9678074,12.5641707 18.1788074,13.0441707 18.7608074,13.3811707 C18.9478074,13.4871707 19.1798074,13.5371707 19.4428074,13.5371707 C19.6158074,13.5371707 19.8008074,13.5151707 19.9838074,13.4761707 L20.2018074,13.3911707 L20.2178074,13.3791707 L20.2718074,13.4331707 L20.2038074,13.4011707 L20.2178074,13.3791707 L20.2718074,13.4331707 L20.2038074,13.4011707 L20.3518074,13.4711707 L20.1888074,13.4711707 L20.2038074,13.4011707 L20.3518074,13.4711707 L20.1888074,13.4711707 L20.3358074,13.4711707 L20.1888074,13.4801707 L20.1888074,13.4711707 L20.3358074,13.4711707 L20.1888074,13.4801707 C20.1718074,13.2041707 20.3808074,12.9671707 20.6568074,12.9501707 C20.9328074,12.9331707 21.1698074,13.1421707 21.1868074,13.4181707" id="Fill-360"></path>
                        <path d="M48.8888074,5.88817074 C49.0288074,6.31517074 49.4878074,6.54717074 49.9138074,6.40817074 C50.3408074,6.26817074 50.5738074,5.80917074 50.4338074,5.38317074 C50.2948074,4.95617074 49.8348074,4.72317074 49.4088074,4.86317074 C48.9818074,5.00217074 48.7498074,5.46217074 48.8888074,5.88817074" id="Fill-361"></path>
                        <path d="M19.4858074,13.6791707 C19.6248074,14.1051707 20.0838074,14.3381707 20.5108074,14.1981707 C20.9368074,14.0591707 21.1698074,13.6001707 21.0298074,13.1731707 C20.8908074,12.7471707 20.4318074,12.5141707 20.0048074,12.6531707 C19.5788074,12.7931707 19.3458074,13.2521707 19.4858074,13.6791707" id="Fill-362"></path>
                        <path d="M20.4068074,3.76017074 C20.4068074,3.76017074 20.5328074,3.72817074 20.7708074,3.67017074 C21.0128074,3.60617074 21.3458074,3.53917074 21.7738074,3.45617074 C22.6438074,3.30517074 23.9108074,3.15117074 25.4348074,3.22617074 C26.9558074,3.29417074 28.7358074,3.59217074 30.5258074,4.27417074 C31.4208074,4.60217074 32.3048074,5.08217074 33.2898074,5.46217074 C34.2708074,5.84017074 35.3618074,6.07917074 36.4568074,5.96317074 C37.5458074,5.85217074 38.6168074,5.34217074 39.2948074,4.47717074 C39.9808074,3.61917074 40.1438074,2.40517074 39.7158074,1.45217074 C39.2928074,0.484170737 38.2348074,-0.0588292627 37.3028074,0.0251707373 C36.3538074,0.103170737 35.5768074,0.739170737 35.2708074,1.48717074 C35.1158074,1.85817074 35.0728074,2.27317074 35.1838074,2.62717074 C35.2988074,2.98917074 35.5428074,3.26417074 35.8188074,3.43817074 C36.3788074,3.80917074 37.0428074,3.68917074 37.3978074,3.40117074 C37.7718074,3.12017074 37.9218074,2.76417074 37.9758074,2.53017074 C38.0268074,2.28917074 38.0068074,2.15717074 38.0068074,2.15717074 C38.0068074,2.15717074 38.0228074,2.29017074 37.9648074,2.52717074 C37.9048074,2.75817074 37.7448074,3.10417074 37.3728074,3.36617074 C37.0178074,3.63517074 36.3878074,3.72617074 35.8698074,3.36117074 C35.6148074,3.19217074 35.3938074,2.91917074 35.3028074,2.59717074 C35.2088074,2.26517074 35.2598074,1.89117074 35.4138074,1.54917074 C35.7168074,0.862170737 36.4628074,0.299170737 37.3178074,0.256170737 C38.1658074,0.212170737 39.0808074,0.718170737 39.4258074,1.57817074 C39.7748074,2.42617074 39.6008074,3.49217074 38.9778074,4.22217074 C38.3608074,4.96417074 37.3888074,5.39717074 36.4108074,5.46517074 C35.4218074,5.54017074 34.4228074,5.29517074 33.5098074,4.91117074 C32.5908074,4.52617074 31.7078074,4.01317074 30.7778074,3.63917074 C28.9338074,2.87217074 27.0818074,2.50317074 25.4878074,2.38317074 C23.8898074,2.25717074 22.5478074,2.37917074 21.6208074,2.51117074 C21.1518074,2.58717074 20.7808074,2.65217074 20.5488074,2.70717074 C20.3108074,2.75817074 20.1828074,2.78517074 20.1828074,2.78517074 C19.9128074,2.84317074 19.7408074,3.10817074 19.7988074,3.37817074 C19.8568074,3.64817074 20.1218074,3.82117074 20.3918074,3.76317074 L20.4068074,3.76017074" id="Fill-363"></path>
                        <path d="M27.1788074,0.204170737 C26.6238074,0.496170737 26.1488074,1.60517074 26.1488074,1.60517074 C28.2038074,-0.646829263 30.6618074,0.129170737 30.6618074,0.129170737 C29.5758074,0.0391707373 28.8878074,1.15617074 28.8878074,1.15617074 C29.6458074,0.389170737 30.6168074,0.672170737 31.5158074,1.00717074 C32.0068074,1.19017074 32.5938074,0.972170737 33.0308074,0.736170737 C32.7458074,1.68217074 31.7538074,2.68817074 28.7128074,2.37717074 C23.2778074,1.82117074 20.5218074,2.90317074 20.5218074,2.90317074 L17.0698074,4.17117074 C18.0528074,3.05217074 22.0378074,1.96317074 23.9688074,1.44817074 C25.7918074,0.961170737 27.1788074,0.204170737 27.1788074,0.204170737" id="Fill-364"></path>
                        <polygon id="Fill-365" points="52.9218074 5.86917074 88.9218074 5.86917074 88.9218074 4.86917074 52.9218074 4.86917074"></polygon>
                    </g>
                    <g id="edit" transform="translate(123.000000, 104.000000)" fill="#554040">
                        <g id="Group-6">
                            <text id="Sherry-Lim" font-family=".AppleSystemUIFont" font-size="16" font-weight="normal">
                                <tspan x="0" y="15">Sherry Lim</tspan>
                            </text>
                            <path d="M93.450937,7 L96,9.54863672 L89.5476177,16 L87,13.4513633 L93.450937,7 Z M97.7491329,6.47829683 L96.6332146,5.33219623 C96.2019507,4.88926792 95.5016673,4.88926792 95.0689381,5.33219623 L94,6.430046 L96.5022749,9 L97.7491329,7.71941812 C98.0836224,7.37585786 98.0836224,6.8218332 97.7491329,6.47829683 Z M86.0066532,16.673314 C85.9631426,16.8662591 86.1399407,17.0391477 86.3357831,16.9922252 L89,16.3557385 L86.6104914,14 L86.0066532,16.673314 Z" id="Shape" fill-rule="nonzero" opacity="0.400000006"></path>
                        </g>
                    </g>
                    <rect id="Rectangle-9" fill="#FFCFCF" x="30" y="139" width="134" height="35"></rect>
                    <rect id="Rectangle-9-Copy-2" stroke="#554040" opacity="0.200000003" x="30.5" y="189.5" width="282" height="34"></rect>
                    <rect id="Rectangle-9-Copy-3" stroke="#554040" opacity="0.200000003" x="30.5" y="283.5" width="282" height="34"></rect>
                    <polygon id="arrow" fill="#BBB3B3" fill-rule="nonzero" points="282.41 203 287 207.58 291.59 203 293 204.41 287 210.41 281 204.41"></polygon>
                    <rect id="Rectangle-9-Copy-4" stroke="#554040" opacity="0.200000003" x="30.5" y="409.5" width="282" height="34"></rect>
                    <rect id="Rectangle-9-Copy" stroke="#FFCFCF" stroke-width="2" x="180" y="140" width="132" height="33"></rect>
                    <text id="Will-Not-Attend" font-family=".AppleSystemUIFont" font-size="14" font-weight="normal" fill="#EFB0B0">
                        <tspan x="198" y="162">Will Not Attend</tspan>
                    </text>
                    <text id="Will-Attend" font-family=".AppleSystemUIFont" font-size="14" font-weight="normal" fill="#9B5959">
                        <tspan x="56" y="162">Will Attend</tspan>
                    </text>
                    <text id="Food-preference" font-family=".AppleSystemUIFont" font-size="14" font-weight="normal" fill="#554040">
                        <tspan x="50" y="211">Food preference</tspan>
                    </text>
                    <text id="Song-requests?" font-family=".AppleSystemUIFont" font-size="16" font-weight="normal" fill="#554040">
                        <tspan x="119" y="262">Song requests?</tspan>
                    </text>
                    <text id="Perfect---Ed-Sheeran" font-family=".AppleSystemUIFont" font-size="14" font-weight="normal" fill="#554040">
                        <tspan x="50" y="305">Perfect - Ed Sheeran</tspan>
                    </text>
                    <text id="Jalan-Pondok-Pinang," font-family=".AppleSystemUIFont" font-size="14" font-weight="normal" fill="#554040">
                        <tspan x="50" y="432">Jalan Pondok Pinang, Jakarta 12345</tspan>
                    </text>
                    <text id="I-would-like-to-reci" font-family=".AppleSystemUIFont" font-size="14" font-weight="normal" line-spacing="18" fill="#554040">
                        <tspan x="76.0805664" y="372">I would like to recieve a paper </tspan>
                        <tspan x="140.170898" y="390">invitation, </tspan>
                        <tspan x="116.422852" y="408">please send it to.</tspan>
                    </text>
                    <text font-family=".SFNSDisplay, .SF NS Display" font-size="28" font-weight="normal" letter-spacing="3.61290312" fill="#554040">
                        <tspan x="124" y="77">RSVP</tspan>
                    </text>
                </g>
            </g>
        </g>
    </g>
</svg>