<?xml version="1.0" encoding="UTF-8"?>
<svg width="62px" height="72px" viewBox="0 0 62 72" version="1.1" xmlns="http://www.w3.org/2000/svg" xmlns:xlink="http://www.w3.org/1999/xlink">
    <!-- Generator: Sketch 51.2 (57519) - http://www.bohemiancoding.com/sketch -->
    <title>Ic Step 2</title>
    <desc>Created with Sketch.</desc>
    <defs></defs>
    <g id="Page-1" stroke="none" stroke-width="1" fill="none" fill-rule="evenodd">
        <g id="UI-kit" transform="translate(-4214.000000, -286.000000)" fill-rule="nonzero">
            <g id="Ic-Step-2" transform="translate(4214.000000, 287.000000)">
                <polygon id="Shape" fill="#FFFFFF" points="8.75 4.32352941 19.7647059 2.47058824 31.2941176 1.02941176 46.7352941 2.47058824 50.75 4.63235294 51.9852941 9.98529412 52.6029412 14.3088235 52.6029412 25.6323529 51.2647059 36.5441176 50.1323529 48.1764706 47.8676471 60.5294118 45.0882353 65.1617647 42.7205882 68.7647059 36.6470588 70 26.7647059 69.4852941 19.1470588 68.1470588 11.3235294 65.8823529 2.98529412 62.7941176 1.02941176 62.2794118 2.57352941 59.3970588 4.22058824 48.4852941 4.73529412 36.75 4.42647059 26.5588235 4.63235294 17.2941176 2.98529412 12.1470588 1.85294118 10.1911765 1.75 8.13235294 3.80882353 5.35294118"></polygon>
                <path d="M24.0882353,15.9558824 C24.0882353,15.9558824 26.1470588,12.4558824 28.5147059,12.3529412 C30.8823529,12.1470588 31.6029412,13.2794118 31.8088235,14.2058824 C32.0147059,15.1323529 31.5,17.9117647 30.0588235,19.1470588 C28.6176471,20.3823529 26.3529412,22.2352941 25.3235294,22.4411765 C24.2941176,22.5441176 21.6176471,20.1764706 20.7941176,19.4558824 C19.9705882,18.7352941 18.8382353,17.3970588 18.5294118,16.4705882 C18.2205882,15.5441176 18.9411765,13.7941176 19.9705882,13.5882353 C20.8970588,13.4852941 22.3382353,13.5882353 23.0588235,14.5147059 C23.6764706,15.2352941 24.0882353,15.9558824 24.0882353,15.9558824 Z" id="Shape" fill="#F3817A"></path>
                <path d="M30.1617647,17.5 C29.3382353,18.7352941 28.2058824,19.9705882 27.0735294,20.7941176 C26.3529412,21.3088235 25.3235294,21.5147059 24.6029412,21.9264706 L24.5,21.8235294 C22.75,20.3823529 20.0735294,18.9411765 19.0441176,16.8823529 C18.0147059,14.8235294 19.7647059,13.7941176 21.5147059,14.5147059 C22.4411765,14.9264706 23.0588235,15.75 23.6764706,16.4705882 C23.5735294,16.6764706 23.7794118,16.8823529 24.0882353,16.8823529 L24.1911765,16.9852941 C24.7058824,17.5 25.4264706,16.8823529 25.1176471,16.2647059 L24.9117647,15.9558824 C25.6323529,14.8235294 26.4558824,13.7941176 27.5882353,13.2794118 C28.8235294,12.7647059 30.3676471,12.8676471 30.8823529,14.4117647 C31.2941176,15.4411765 30.6764706,16.6764706 30.1617647,17.5 M31.9117647,13.1764706 C30.9852941,11.6323529 29.0294118,11.3235294 27.3823529,11.9411765 C25.8382353,12.4558824 24.9117647,13.7941176 24.1911765,15.1323529 C22.5441176,13.2794118 19.5588235,11.6323529 17.8088235,14.2058824 C15.6470588,17.6029412 21.7205882,21.2058824 23.9852941,22.3382353 C23.7794118,22.6470588 23.8823529,22.9558824 24.0882353,23.1617647 L24.2941176,23.3676471 C24.6029412,23.6764706 25.0147059,23.5735294 25.2205882,23.3676471 L25.4264706,23.1617647 C25.5294118,23.0588235 25.5294118,22.9558824 25.6323529,22.8529412 C25.9411765,22.75 26.3529412,22.6470588 26.6617647,22.5441176 C27.1764706,22.2352941 27.6911765,21.9264706 28.1029412,21.5147059 C29.1323529,20.6911765 30.0588235,19.6617647 30.8823529,18.6323529 C32.2205882,17.2941176 33.1470588,15.0294118 31.9117647,13.1764706" id="Fill-62_1_" fill="#2E333E"></path>
                <path d="M35,12.7647059 C34.6911765,12.0441176 33.9705882,11.4264706 33.1470588,11.2205882 C32.6323529,11.1176471 32.4264706,11.8382353 32.9411765,11.9411765 C33.4558824,12.0441176 33.8676471,12.5588235 34.0735294,13.0735294 C34.2794118,13.6911765 34.0735294,14 33.9705882,14.6176471 C33.8676471,15.0294118 34.3823529,15.4411765 34.7941176,15.1323529 C35.4117647,14.5147059 35.3088235,13.4852941 35,12.7647059" id="Fill-63_1_" fill="#2E333E"></path>
                <path d="M36.3382353,11.3235294 C36.0294118,11.0147059 35.4117647,11.4264706 35.7205882,11.8382353 C36.4411765,12.8676471 36.6470588,13.8970588 36.3382353,15.1323529 C36.2352941,15.9558824 37.3676471,16.2647059 37.5735294,15.4411765 C37.9852941,14.1029412 37.4705882,12.3529412 36.3382353,11.3235294" id="Fill-64_1_" fill="#2E333E"></path>
                <path d="M41.6911765,27.5882353 C31.3970588,27.0735294 21.1029412,27.0735294 10.8088235,28 C10.3970588,28 10.3970588,28.7205882 10.8088235,28.7205882 C21.1029412,28.7205882 31.3970588,28.6176471 41.6911765,29.1323529 C42.6176471,29.1323529 42.6176471,27.6911765 41.6911765,27.5882353" id="Fill-65_1_" fill="#2E333E"></path>
                <path d="M39.7352941,36.6470588 L39.6323529,36.4411765 C39.4264706,36.1323529 39.0147059,36.0294118 38.7058824,36.2352941 L38.6029412,36.3382353 C38.5,36.1323529 38.5,36.0294118 38.3970588,36.0294118 C38.0882353,35.8235294 36.6470588,35.9264706 36.2352941,35.9264706 C33.3529412,35.8235294 30.3676471,35.7205882 27.4852941,35.7205882 C21.9264706,35.6176471 16.3676471,35.4117647 10.8088235,36.0294118 C10.5,36.0294118 10.3970588,36.5441176 10.8088235,36.5441176 C16.2647059,37.0588235 21.9264706,36.8529412 27.4852941,37.0588235 C31.2941176,37.1617647 35.5147059,37.9852941 39.2205882,37.6764706 C39.6323529,37.6764706 40.0441176,37.0588235 39.7352941,36.6470588" id="Fill-66_1_" fill="#2E333E"></path>
                <path d="M37.9852941,43.6470588 C29.1323529,43.3382353 20.2794118,42.8235294 11.4264706,43.0294118 C10.9117647,43.0294118 10.9117647,43.8529412 11.4264706,43.8529412 C20.1764706,44.6764706 29.1323529,44.7794118 37.9852941,45.1911765 C39.0147059,45.1911765 39.0147059,43.6470588 37.9852941,43.6470588" id="Fill-67_1_" fill="#2E333E"></path>
                <path d="M37.0588235,50.75 C28.4117647,50.2352941 19.5588235,49.6176471 10.9117647,49.7205882 C10.5,49.7205882 10.5,50.3382353 10.9117647,50.4411765 C19.5588235,51.4705882 28.4117647,51.8823529 37.0588235,52.1911765 C37.9852941,52.2941176 37.8823529,50.8529412 37.0588235,50.75" id="Fill-68_1_" fill="#2E333E"></path>
                <path d="M14.9264706,57.75 C13.8970588,57.6470588 12.8676471,57.75 11.8382353,57.75 C10.7058824,57.6470588 9.57352941,57.4411765 8.44117647,57.3382353 C8.23529412,57.3382353 8.13235294,57.75 8.33823529,57.8529412 C10.0882353,58.6764706 13.0735294,59.1911765 14.9264706,58.5735294 C15.2352941,58.3676471 15.3382353,57.75 14.9264706,57.75" id="Fill-69_1_" fill="#2E333E"></path>
                <path d="M16.1617647,56 C14.3088235,56.1029412 12.3529412,56.1029412 10.5,56.2058824 C10.1911765,56.2058824 10.1911765,56.7205882 10.5,56.7205882 C12.3529412,56.8235294 14.3088235,56.9264706 16.1617647,56.9264706 C16.7794118,57.0294118 16.7794118,55.8970588 16.1617647,56" id="Fill-70_1_" fill="#2E333E"></path>
                <path d="M46.9411765,31.6029412 C46.8382353,31.6029412 46.8382353,31.6029412 46.9411765,31.6029412 C46.6323529,31.3970588 47.0441176,31.2941176 47.25,31.2941176 C47.25,31.2941176 47.3529412,31.2941176 47.3529412,31.2941176 C47.4558824,31.3970588 47.1470588,31.6029412 46.9411765,31.6029412" id="Fill-1067_1_" fill="#4A4D4C"></path>
                <path d="M8.54411765,31.2941176 C8.54411765,31.2941176 8.54411765,31.2941176 8.54411765,31.2941176 C8.23529412,31.1911765 8.64705882,30.9852941 8.85294118,30.9852941 C8.85294118,30.9852941 8.95588235,30.9852941 8.95588235,30.9852941 C9.16176471,31.0882353 8.75,31.2941176 8.54411765,31.2941176" id="Fill-1068_1_" fill="#F1F0EC"></path>
                <path d="M15.3382353,27.6911765 C15.2352941,27.5882353 15.2352941,27.4852941 15.3382353,27.1764706 C16.5735294,26.9705882 17.7058824,26.6617647 19.0441176,26.5588235 C19.3529412,27.2794118 19.0441176,27.3823529 18.4264706,27.4852941 C17.3970588,27.4852941 16.3676471,27.5882353 15.3382353,27.6911765" id="Fill-1083_1_" fill="#F1F0EC"></path>
                <path d="M16.6764706,28.1029412 C16.3676471,27.8970588 15.5441176,27.8970588 15.3382353,27.5882353 C16.3676471,27.4852941 17.3970588,27.4852941 18.4264706,27.3823529 C17.7058824,27.5882353 16.6764706,27.4852941 16.6764706,28.1029412" id="Fill-1084_1_" fill="#4A4D4C"></path>
                <path d="M32.7352941,25.6323529 C31.9117647,25.5294118 31.7058824,25.1176471 31.8088235,24.3970588 C31.9117647,24.3970588 32.0147059,24.3970588 32.1176471,24.3970588 C33.25,24.2941176 33.3529412,25.1176471 32.7352941,25.6323529" id="Fill-1096_1_" fill="#F1F0EC"></path>
                <path d="M28.9264706,23.3676471 C28.6176471,23.3676471 28.4117647,23.0588235 28.5147059,22.8529412 C28.5147059,22.5441176 28.7205882,22.3382353 29.1323529,22.3382353 C29.2352941,22.3382353 29.3382353,22.3382353 29.5441176,22.4411765 C29.5441176,22.6470588 29.5441176,22.8529412 29.5441176,23.0588235 C29.5441176,23.0588235 29.4411765,23.0588235 29.4411765,23.0588235 C29.1323529,23.0588235 29.0294118,23.1617647 28.9264706,23.3676471 C29.0294118,23.3676471 28.9264706,23.3676471 28.9264706,23.3676471" id="Fill-1104_1_" fill="#F1F0EC"></path>
                <path d="M47.1470588,21.8235294 C46.4264706,21.8235294 46.5294118,21.2058824 45.9117647,21.1029412 C46.0147059,20.8970588 46.3235294,20.7941176 46.6323529,20.7941176 C46.8382353,20.7941176 47.0441176,20.7941176 47.25,20.8970588 C47.25,21.2058824 47.25,21.5147059 47.1470588,21.8235294 C47.1470588,21.8235294 47.1470588,21.8235294 47.1470588,21.8235294" id="Fill-1117_1_" fill="#F1F0EC"></path>
                <path d="M47.1470588,21.8235294 C47.1470588,21.5147059 47.1470588,21.2058824 47.25,20.8970588 C47.6617647,21.1029412 47.9705882,21.4117647 47.7647059,21.7205882 C47.5588235,21.8235294 47.3529412,21.8235294 47.1470588,21.8235294" id="Fill-1118_1_" fill="#4A4D4C"></path>
                <path d="M33.3529412,17.2941176 C32.9411765,17.2941176 32.5294118,16.9852941 32.6323529,16.4705882 C32.9411765,16.6764706 33.3529412,16.7794118 33.9705882,16.7794118 C33.9705882,16.7794118 33.9705882,16.7794118 34.0735294,16.7794118 C33.9705882,17.0882353 33.6617647,17.2941176 33.3529412,17.2941176" id="Fill-1145_1_" fill="#F1F0EC"></path>
                <path d="M38.8088235,16.6764706 C38.2941176,16.6764706 37.8823529,16.5735294 37.1617647,16.4705882 C37.1617647,16.2647059 37.1617647,16.1617647 37.1617647,15.9558824 C37.3676471,15.8529412 37.4705882,15.75 37.5735294,15.5441176 C37.6764706,15.3382353 37.6764706,15.1323529 37.6764706,14.8235294 C37.6764706,14.8235294 37.6764706,14.8235294 37.6764706,14.8235294 C37.8823529,14.8235294 38.0882353,14.8235294 38.2941176,14.8235294 C39.8382353,14.8235294 40.1470588,15.6470588 40.4558824,16.4705882 C39.8382353,16.5735294 39.3235294,16.6764706 38.8088235,16.6764706" id="Fill-1149_1_" fill="#F1F0EC"></path>
                <path d="M37.1617647,15.9558824 C37.1617647,15.4411765 37.3676471,15.1323529 37.6764706,14.8235294 C37.6764706,15.0294118 37.5735294,15.2352941 37.5735294,15.5441176 C37.4705882,15.75 37.3676471,15.8529412 37.1617647,15.9558824" id="Fill-1150_1_" fill="#4A4D4C"></path>
                <path d="M35.7205882,13.6911765 C35.6176471,13.6911765 35.5147059,13.5882353 35.5147059,13.4852941 C35.5147059,13.3823529 35.6176471,13.2794118 35.7205882,13.2794118 C35.8235294,13.2794118 35.9264706,13.3823529 35.9264706,13.4852941 C35.8235294,13.6911765 35.7205882,13.6911765 35.7205882,13.6911765" id="Fill-1167_1_" fill="#F1F0EC"></path>
                <path d="M31.3970588,12.25 C31.2941176,12.25 31.0882353,12.25 30.9852941,12.1470588 C30.8823529,12.1470588 30.8823529,12.0441176 30.7794118,12.0441176 C30.5735294,11.8382353 30.4705882,11.5294118 29.9558824,11.5294118 C30.0588235,11.2205882 30.4705882,11.2205882 30.9852941,11.2205882 C31.0882353,11.2205882 31.0882353,11.2205882 31.1911765,11.2205882 C31.2941176,11.2205882 31.2941176,11.2205882 31.3970588,11.2205882 C31.5,11.2205882 31.7058824,11.2205882 31.8088235,11.2205882 C31.8088235,11.5294118 31.8088235,11.8382353 31.8088235,12.1470588 C31.6029412,12.25 31.5,12.25 31.3970588,12.25" id="Fill-1180_1_" fill="#F1F0EC"></path>
                <path d="M30.9852941,12.25 C30.8823529,12.25 30.8823529,12.1470588 30.7794118,12.1470588 C30.8823529,12.1470588 30.9852941,12.1470588 30.9852941,12.25" id="Fill-1181_1_" fill="#4A4D4C"></path>
                <path d="M42.4117647,7.51470588 C42.3088235,7.51470588 42.3088235,7.51470588 42.4117647,7.51470588 C42.4117647,7.20588235 42.9264706,7.30882353 43.2352941,7.20588235 C43.1323529,7.51470588 42.7205882,7.41176471 42.4117647,7.51470588" id="Fill-1208_1_" fill="#F1F0EC"></path>
                <path d="M26.3529412,4.63235294 C25.6323529,4.63235294 26.0441176,4.01470588 25.8382353,3.60294118 C25.5294118,3.29411765 24.8088235,3.29411765 24.9117647,2.67647059 C25.2205882,2.47058824 25.4264706,2.36764706 25.7352941,2.36764706 C26.8676471,2.36764706 27.8970588,3.91176471 26.7647059,4.52941176 C26.6617647,4.63235294 26.4558824,4.63235294 26.3529412,4.63235294" id="Fill-1221_1_" fill="#F1F0EC"></path>
                <path d="M43.2352941,4.32352941 C43.2352941,4.32352941 43.2352941,4.32352941 43.2352941,4.32352941 C42.9264706,4.11764706 43.3382353,4.01470588 43.5441176,4.01470588 C43.5441176,4.01470588 43.6470588,4.01470588 43.6470588,4.01470588 C43.8529412,4.11764706 43.4411765,4.32352941 43.2352941,4.32352941" id="Fill-1224_1_" fill="#F1F0EC"></path>
                <path d="M3.08823529,4.01470588 C3.08823529,4.01470588 3.08823529,4.01470588 3.08823529,4.01470588 C2.77941176,3.80882353 3.19117647,3.70588235 3.39705882,3.70588235 C3.39705882,3.70588235 3.5,3.70588235 3.5,3.70588235 C3.70588235,3.80882353 3.29411765,4.01470588 3.08823529,4.01470588" id="Fill-1226_1_" fill="#F1F0EC"></path>
                <path d="M34.5882353,65.8823529 C34.2794118,65.8823529 33.9705882,65.8823529 33.6617647,65.8823529 C33.6617647,65.6764706 33.6617647,65.4705882 33.6617647,65.2647059 C33.9705882,65.2647059 34.2794118,65.2647059 34.5882353,65.2647059 C34.5882353,65.4705882 34.5882353,65.6764706 34.5882353,65.8823529" id="Fill-1937_1_" fill="#F1F0EC"></path>
                <path d="M11.0147059,64.8529412 C10.9117647,64.8529412 10.8088235,64.75 10.8088235,64.6470588 C10.8088235,64.5441176 10.9117647,64.4411765 11.0147059,64.4411765 C11.1176471,64.4411765 11.2205882,64.5441176 11.2205882,64.6470588 C11.2205882,64.8529412 11.1176471,64.8529412 11.0147059,64.8529412" id="Fill-1944_1_" fill="#F1F0EC"></path>
                <path d="M24.6029412,61.8676471 C24.6029412,61.8676471 24.5,61.7647059 24.6029412,61.8676471 C24.2941176,61.6617647 24.7058824,61.5588235 24.9117647,61.5588235 C24.9117647,61.5588235 25.0147059,61.5588235 25.0147059,61.5588235 C25.1176471,61.6617647 24.8088235,61.8676471 24.6029412,61.8676471" id="Fill-1974_1_" fill="#4A4D4C"></path>
                <path d="M25.0147059,60.9411765 C24.9117647,60.9411765 24.8088235,60.9411765 24.7058824,60.9411765 C24.8088235,60.9411765 24.8088235,60.9411765 24.9117647,60.9411765 C24.9117647,60.8382353 24.9117647,60.8382353 25.0147059,60.9411765 C25.0147059,60.8382353 25.0147059,60.8382353 25.0147059,60.9411765" id="Fill-1985_1_" fill="#F1F0EC"></path>
                <path d="M24.6029412,61.1470588 C24.6029412,61.1470588 24.5,61.1470588 24.6029412,61.1470588 C24.3970588,61.0441176 24.5,60.9411765 24.7058824,60.8382353 C24.8088235,60.8382353 24.9117647,60.8382353 25.0147059,60.8382353 C25.1176471,61.0441176 24.8088235,61.1470588 24.6029412,61.1470588" id="Fill-1986_1_" fill="#4A4D4C"></path>
                <path d="M23.5735294,60.8382353 C23.2647059,60.8382353 22.9558824,60.8382353 22.6470588,60.7352941 C22.8529412,60.6323529 23.1617647,60.5294118 23.5735294,60.5294118 C23.5735294,60.5294118 23.5735294,60.5294118 23.6764706,60.5294118 C23.5735294,60.6323529 23.6764706,60.7352941 23.5735294,60.8382353" id="Fill-1987_1_" fill="#F1F0EC"></path>
                <path d="M22.2352941,61.1470588 C22.3382353,60.9411765 22.4411765,60.8382353 22.6470588,60.7352941 C22.9558824,60.7352941 23.2647059,60.7352941 23.5735294,60.8382353 C23.5735294,61.1470588 22.8529412,61.1470588 22.2352941,61.1470588" id="Fill-1988_1_" fill="#4A4D4C"></path>
                <path d="M22.4411765,59.8088235 C22.3382353,59.8088235 22.2352941,59.7058824 22.2352941,59.6029412 C22.2352941,59.5 22.3382353,59.3970588 22.4411765,59.3970588 C22.5441176,59.3970588 22.6470588,59.5 22.6470588,59.6029412 C22.6470588,59.7058824 22.5441176,59.8088235 22.4411765,59.8088235" id="Fill-2006_1_" fill="#F1F0EC"></path>
                <path d="M6.69117647,59.1911765 C6.58823529,59.1911765 6.38235294,59.1911765 6.27941176,59.1911765 C6.38235294,58.9852941 6.89705882,59.0882353 7.20588235,58.9852941 C7.10294118,59.0882353 7,59.1911765 6.69117647,59.1911765" id="Fill-2012_1_" fill="#F1F0EC"></path>
                <path d="M6.27941176,59.2941176 C6.27941176,59.2941176 6.27941176,59.1911765 6.27941176,59.1911765 C6.38235294,59.1911765 6.58823529,59.1911765 6.69117647,59.1911765 C6.58823529,59.1911765 6.38235294,59.1911765 6.27941176,59.2941176" id="Fill-2013_1_" fill="#4A4D4C"></path>
                <path d="M27.2794118,57.3382353 C25.9411765,57.2352941 26.5588235,56.5147059 27.0735294,56.5147059 C27.1764706,56.5147059 27.3823529,56.7205882 27.2794118,57.3382353" id="Fill-2024_1_" fill="#F1F0EC"></path>
                <path d="M14,51.0588235 C14,50.9558824 14.1029412,50.8529412 14.2058824,50.8529412 C14.4117647,50.8529412 14.6176471,50.8529412 14.8235294,50.9558824 C14.6176471,50.9558824 14.3088235,50.9558824 14,51.0588235" id="Fill-2063_1_" fill="#F1F0EC"></path>
                <path d="M14.8235294,50.8529412 C14.6176471,50.8529412 14.4117647,50.8529412 14.2058824,50.75 C14.4117647,50.6470588 14.7205882,50.6470588 14.9264706,50.6470588 C14.9264706,50.75 14.8235294,50.8529412 14.8235294,50.8529412" id="Fill-2064_1_" fill="#4A4D4C"></path>
                <path d="M9.67647059,50.2352941 C9.57352941,50.2352941 9.47058824,50.1323529 9.47058824,50.0294118 C9.47058824,49.9264706 9.57352941,49.8235294 9.67647059,49.8235294 C9.77941176,49.8235294 9.88235294,49.9264706 9.88235294,50.0294118 C9.88235294,50.2352941 9.77941176,50.2352941 9.67647059,50.2352941" id="Fill-2070_1_" fill="#F1F0EC"></path>
                <path d="M46.5294118,48.4852941 C46.4264706,48.4852941 46.4264706,48.4852941 46.5294118,48.4852941 C46.2205882,48.2794118 46.6323529,48.1764706 46.8382353,48.1764706 C46.8382353,48.1764706 46.9411765,48.1764706 46.9411765,48.1764706 C47.0441176,48.2794118 46.7352941,48.4852941 46.5294118,48.4852941" id="Fill-2080_1_" fill="#F1F0EC"></path>
                <path d="M45.9117647,48.1764706 C45.9117647,48.1764706 45.9117647,48.1764706 45.9117647,48.1764706 C45.9117647,47.8676471 45.9117647,47.6617647 45.9117647,47.3529412 C46.0147059,47.5588235 46.0147059,47.8676471 45.9117647,48.1764706" id="Fill-2081_1_" fill="#F1F0EC"></path>
                <path d="M45.9117647,48.1764706 C45.5,48.1764706 45.0882353,48.1764706 44.6764706,48.1764706 C44.6764706,47.7647059 44.6764706,47.3529412 44.6764706,46.9411765 C44.8823529,46.9411765 45.0882353,46.8382353 45.2941176,46.8382353 C45.8088235,46.8382353 46.0147059,47.0441176 46.1176471,47.3529412 C45.9117647,47.6617647 45.9117647,47.8676471 45.9117647,48.1764706" id="Fill-2082_1_" fill="#4A4D4C"></path>
                <path d="M31.3970588,47.8676471 C31.3970588,47.8676471 31.3970588,47.8676471 31.3970588,47.8676471 C31.0882353,47.6617647 31.5,47.5588235 31.7058824,47.5588235 C31.7058824,47.5588235 31.8088235,47.5588235 31.8088235,47.5588235 C32.0147059,47.6617647 31.6029412,47.8676471 31.3970588,47.8676471" id="Fill-2085_1_" fill="#F1F0EC"></path>
                <path d="M0.514705882,63.3088235 C1.41599086,61.25 1.81656196,58.9852941 2.11699029,56.8235294 C2.51756139,54.6617647 2.71784694,52.3970588 2.9181325,50.1323529 C3.3187036,45.7058824 3.51898915,41.1764706 3.61913192,36.75 C3.7192747,32.3235294 3.7192747,27.7941176 3.51898915,23.3676471 C3.41884637,21.1029412 3.21856082,18.9411765 3.01827527,16.6764706 C2.71784694,14.5147059 2.51756139,12.25 1.81656196,10.1911765 C1.61627641,9.67647059 1.51613364,8.75 1.71641919,8.13235294 C1.91670474,7.41176471 2.31727584,6.79411765 2.71784694,6.27941176 C3.61913192,5.35294118 4.62055968,4.73529412 5.62198744,4.22058824 C7.72498572,3.19117647 9.82798401,2.67647059 12.0311251,2.16176471 C16.3372644,1.13235294 20.7435465,0.617647059 25.1498287,0.411764706 C29.5561108,0.102941176 33.9623929,0.102941176 38.368675,0.411764706 C40.5718161,0.617647059 42.7749572,0.823529412 44.9780982,1.33823529 C46.0796688,1.54411765 47.1812393,1.95588235 48.2828098,2.47058824 C48.8836665,2.77941176 49.3843804,3.08823529 49.8850942,3.60294118 C50.4859509,4.11764706 50.7863792,4.83823529 50.9866648,5.45588235 C51.3872359,6.69117647 51.5875214,7.82352941 51.6876642,8.95588235 C51.787807,10.0882353 51.8879497,11.2205882 51.9880925,12.3529412 C52.0882353,14.6176471 52.0882353,16.8823529 52.0882353,19.1470588 C51.9880925,23.6764706 51.6876642,28.2058824 51.2870931,32.6323529 C50.886522,37.1617647 50.3858081,41.5882353 49.7849515,46.0147059 C49.1840948,50.4411765 48.3829526,54.8676471 47.2813821,59.2941176 C46.6805254,61.4558824 46.1798115,63.7205882 45.078241,65.7794118 C44.4773844,66.9117647 43.4759566,67.7352941 42.4745288,68.3529412 C41.4731011,68.9705882 40.3715306,69.2794118 39.26996,69.4852941 C37.066819,70 34.8636779,70 32.6605368,70 C30.4573958,69.8970588 28.2542547,69.7941176 26.0511136,69.4852941 C21.7449743,68.8676471 17.438835,67.9411765 13.1326956,66.9117647 C8.92669903,65.8823529 4.62055968,64.6470588 0.514705882,63.3088235 Z M0.514705882,63.3088235 C0.915276985,63.4117647 0.514705882,63.3088235 0.714991433,62.8970588 C0.815134209,62.5882353 1.01541976,62.2794118 1.01541976,62.2794118 C8.72641348,64.3382353 18.3401199,67.7352941 26.1512564,68.5588235 C28.3543975,68.7647059 30.4573958,68.9705882 32.6605368,68.9705882 C34.7635351,68.9705882 36.9666762,68.8676471 39.0696745,68.3529412 C41.07253,67.8382353 43.1755283,66.9117647 43.9766705,65.2647059 C44.8779555,63.4117647 45.3786693,61.1470588 45.8793832,58.9852941 C47.7820959,50.3382353 48.7835237,41.3823529 49.5846659,32.5294118 C49.985237,28.1029412 50.1855226,23.5735294 50.2856653,19.1470588 C50.2856653,16.8823529 50.2856653,14.7205882 50.1855226,12.4558824 C50.0853798,10.2941176 49.8850942,8.02941176 49.2842376,6.07352941 C49.083952,5.55882353 48.9838093,5.25 48.6833809,5.04411765 C48.3829526,4.73529412 47.9823815,4.52941176 47.5818104,4.32352941 C46.6805254,3.91176471 45.6790977,3.60294118 44.6776699,3.39705882 C42.6748144,2.88235294 40.4716733,2.67647059 38.368675,2.47058824 C34.0625357,2.16176471 29.7563963,2.16176471 25.450257,2.36764706 C21.1441176,2.57352941 16.8379783,3.08823529 12.6319817,4.01470588 C10.5289834,4.52941176 8.42598515,5.04411765 6.52327242,5.97058824 C4.72070246,6.79411765 2.81798972,8.13235294 3.51898915,9.88235294 C4.1198458,12.1470588 4.42027413,14.4117647 4.62055968,16.6764706 C4.82084523,18.9411765 4.92098801,21.2058824 5.02113078,23.4705882 C5.12127356,28 5.12127356,32.5294118 4.92098801,36.9558824 C4.72070246,41.4852941 4.72070246,46.0147059 4.1198458,50.4411765 C3.81941748,52.7058824 3.41884637,56 3.01827527,58.1617647 C2.61770417,59.8088235 2.71784694,61.0441176 2.11699029,62.5882353 C1.71641919,63 0.815134209,63.4117647 0.514705882,63.3088235 Z" id="Shape" stroke="#2E333E" stroke-width="0.5" fill="#2E333E"></path>
                <path d="M27.3823529,48.7205882 L28.8235294,43.0588235 C28.9264706,42.75 29.0294118,42.4411765 29.2352941,42.2352941 L32.4264706,37.8088235 L35.8235294,33.2794118 L39.2205882,28.5441176 L42.8235294,23.7058824 C43.9558824,22.2647059 44.7794118,21.1323529 45.7058824,19.5882353 L49.6176471,14.1323529 L52.9117647,9.70588235 L56.2058824,5.17647059 C56.6176471,4.66176471 57.3382353,4.55882353 57.8529412,4.86764706 L58.1617647,4.97058824 C58.7794118,5.27941176 59.3970588,5.69117647 59.8088235,6.20588235 L60.0147059,6.41176471 C60.6323529,6.82352941 60.7352941,7.64705882 60.3235294,8.26470588 L57.1323529,12.6911765 L54.6617647,16.1911765 L50.3382353,22.1617647 L45.1911765,29.2647059 L41.1764706,34.7205882 L40.3529412,35.8529412 L36.75,40.6911765 L33.4558824,45.1176471 C33.25,45.4264706 32.9411765,45.6323529 32.6323529,45.8382353 L27.3823529,48.7205882 Z" id="Shape" fill="#FFFFFF"></path>
                <path d="M27.7941176,48.7205882 C27.6911765,48.8235294 27.4852941,48.6176471 27.4852941,48.5147059 L28.2058824,45.6323529 L28.6176471,43.9852941 C28.7205882,43.4705882 28.8235294,42.8529412 29.2352941,42.3382353 C30.5735294,40.4852941 31.8088235,38.6323529 33.1470588,36.7794118 C35.8235294,33.1764706 38.3970588,29.3676471 41.0735294,25.7647059 L49,14.6470588 L53.0147059,9.08823529 L54.9705882,6.30882353 C55.2794118,5.79411765 55.5882353,5.38235294 56,4.86764706 C56.5147059,4.25 57.5441176,4.14705882 58.1617647,4.66176471 C58.7794118,4.93627451 59.2254902,5.17647059 59.5,5.38235294 C59.9117647,5.69117647 60.2205882,5.89705882 60.4264706,6.30882353 L60.5294118,6.51470588 C61.1470588,7.23529412 61.25,7.64705882 60.9411765,8.36764706 C60.7352941,8.77941176 60.5294118,8.98529412 60.4264706,9.19117647 L59.9117647,9.91176471 L57.9558824,12.6911765 L53.9411765,18.25 C51.2647059,21.9558824 48.5882353,25.6617647 45.9117647,29.2647059 L37.6764706,40.1764706 L33.5588235,45.6323529 C33.3529412,45.8382353 33.0441176,46.0441176 32.8382353,46.25 L32.0147059,46.6617647 L30.4705882,47.3823529 C29.5441176,47.8970588 28.7205882,48.3088235 27.7941176,48.7205882 Z M27.7941176,48.3088235 C27.7941176,48.5147059 27.6911765,48.6176471 27.8970588,48.5147059 C28.2058824,48.3088235 28.4117647,48.2058824 28.7205882,48 C29.2352941,47.6911765 29.9558824,47.2794118 30.4705882,46.9705882 L31.9117647,46.1470588 C32.4264706,45.8382353 32.9411765,45.6323529 33.1470588,45.2205882 L37.0588235,39.6617647 L44.9852941,28.4411765 C47.6617647,24.7352941 50.3382353,21.0294118 53.0147059,17.3235294 L57.0294118,11.8676471 L59.0882353,9.08823529 L59.6029412,8.36764706 C59.8088235,8.16176471 60.0147059,7.85294118 60.0147059,7.75 C60.1176471,7.44117647 60.0147059,7.02941176 59.8088235,6.82352941 L59.7058824,6.82352941 C59.3970588,6.41176471 59.1911765,6.20588235 58.8823529,6 C58.5735294,5.79411765 58.2647059,5.58823529 57.8529412,5.38235294 L57.75,5.27941176 L57.6470588,5.27941176 C57.3382353,5.07352941 56.9264706,5.17647059 56.7205882,5.48529412 C56.4117647,5.79411765 56.1029412,6.41176471 55.6911765,6.82352941 L53.6323529,9.60294118 L49.6176471,15.0588235 L41.5882353,26.0735294 C38.8088235,29.6764706 36.2352941,33.3823529 33.4558824,36.9852941 C32.1176471,38.7352941 30.7794118,40.6911765 29.4411765,42.4411765 C29.1323529,42.8529412 29.1323529,43.3676471 28.9264706,43.8823529 L28.5147059,45.6323529 L27.8970588,47.7941176 L27.7941176,48.3088235 Z" id="Shape" stroke="#2E333E" stroke-width="0.5" fill="#2E333E"></path>
                <path d="M52.6029412,10.3235294 C52.8088235,10.4264706 52.9117647,10.2205882 53.1176471,10.3235294 C53.2205882,10.4264706 53.4264706,10.7352941 53.6323529,11.0441176 C53.9411765,11.3529412 54.25,11.6617647 54.5588235,11.8676471 C54.8676471,12.0735294 55.2794118,12.2794118 55.4852941,12.4852941 C55.7941176,12.6911765 56.1029412,12.8970588 56.5147059,13.2058824 L56.5147059,13.3088235 C55.7941176,13.6176471 55.5882353,13.3088235 55.1764706,13.1029412 C54.7647059,12.8970588 54.3529412,12.6911765 54.1470588,12.2794118 C53.8382353,11.9705882 53.6323529,11.5588235 53.3235294,11.25 C53.0147059,10.9411765 52.9117647,10.6323529 52.6029412,10.3235294 Z" id="Shape" stroke="#2E333E" stroke-width="0.300000012" fill="#2E333E"></path>
                <path d="M29.0294118,42.8529412 L29.75,42.9558824 C30.1617647,43.0588235 30.8823529,43.4705882 31.3970588,43.6764706 C31.8088235,43.8823529 32.3235294,44.0882353 32.6323529,44.5 C32.9411765,44.9117647 33.25,45.3235294 33.25,45.9411765 L33.1470588,45.9411765 C32.6323529,45.6323529 32.7352941,45.2205882 32.3235294,45.0147059 C32.0147059,44.8088235 31.7058824,44.6029412 31.2941176,44.2941176 C30.8823529,44.0882353 30.2647059,43.5735294 29.8529412,43.3676471 L29.2352941,43.1617647 L28.9264706,42.9558824 C28.8235294,42.9558824 28.8235294,42.8529412 28.7205882,42.8529412 C28.7205882,42.8529412 28.7205882,42.75 28.7205882,42.75 L29.0294118,42.8529412 Z" id="Shape" stroke="#2E333E" stroke-width="0.200000018" fill="#2E333E"></path>
            </g>
        </g>
    </g>
</svg>