<?xml version="1.0" encoding="UTF-8"?>
<svg width="58px" height="71px" viewBox="0 0 58 71" version="1.1" xmlns="http://www.w3.org/2000/svg" xmlns:xlink="http://www.w3.org/1999/xlink">
    <!-- Generator: Sketch 51.2 (57519) - http://www.bohemiancoding.com/sketch -->
    <title>Ic Step 1</title>
    <desc>Created with Sketch.</desc>
    <defs></defs>
    <g id="Page-1" stroke="none" stroke-width="1" fill="none" fill-rule="evenodd">
        <g id="UI-kit" transform="translate(-4216.000000, -136.000000)">
            <g id="Ic-Step-1" transform="translate(4216.000000, 137.000000)">
                <g id="Group" transform="translate(23.099010, 10.396040)"></g>
                <g id="Group-17">
                    <g id="Group" transform="translate(0.000000, 8.316832)">
                        <path d="M1.10596166,55.7227723 C1.10596166,55.7227723 4.49757742,11.6435644 1.6220771,6.16831683 C-1.25342321,0.693069307 35.9806193,-0.623762376 38.8561197,3.88118812 C41.73162,8.38613861 34.7271961,43.7326733 36.423004,52.5346535 C38.8561197,64.8019802 2.58057721,60.7128713 1.10596166,55.7227723 Z" id="Shape"></path>
                        <path d="M1.10596166,55.7227723 C1.40088477,48.4455446 1.76953866,41.1683168 1.91700021,33.8910891 C2.13819254,26.6138614 2.2856541,19.3366337 1.84326943,12.0594059 C1.69580788,10.2574257 1.54834632,8.38613861 1.03223088,6.86138614 C1.03223088,6.79207921 0.958500105,6.65346535 0.958500105,6.58415842 L0.884769328,6.44554455 C0.884769328,6.37623762 0.811038551,6.30693069 0.811038551,6.23762376 C0.663576996,5.89108911 0.663576996,5.47524752 0.737307773,5.12871287 C0.958500105,4.36633663 1.47461555,3.95049505 1.91700021,3.6039604 C2.87550032,2.98019802 3.83400042,2.63366337 4.79250053,2.35643564 C8.62650095,1.24752475 12.5342321,0.831683168 16.4419633,0.554455446 C20.3496945,0.277227723 24.2574257,0.207920792 28.1651569,0.415841584 C30.1558879,0.554455446 32.0728881,0.693069307 34.0636191,1.03960396 C35.0221192,1.17821782 36.0543501,1.38613861 37.0128502,1.73267327 C37.5289657,1.87128713 38.0450811,2.07920792 38.4874658,2.35643564 C38.7086581,2.4950495 39.0035812,2.63366337 39.2247735,2.91089109 C39.4459659,3.11881188 39.740889,3.46534653 39.8146198,3.74257426 C40.3307352,4.85148515 40.3307352,5.75247525 40.404466,6.72277228 C40.4781968,7.69306931 40.4781968,8.59405941 40.4781968,9.4950495 C40.404466,11.3663366 40.3307352,13.1683168 40.1832736,14.970297 C39.8883505,18.6435644 39.4459659,22.2475248 39.077312,25.8514851 C38.2662734,33.1287129 37.3077733,40.3366337 36.9391194,47.5445545 C36.9391194,48.4455446 36.8653887,49.3465347 36.9391194,50.2475248 C36.9391194,50.6633663 37.0128502,51.1485149 37.0128502,51.5643564 C37.086581,51.980198 37.1603118,52.3960396 37.2340426,52.950495 C37.3077733,53.9207921 37.1603118,55.029703 36.7179271,55.9306931 C36.2755424,56.9009901 35.4645039,57.5940594 34.6534653,58.2178218 C32.9576575,59.3960396 31.0406573,59.950495 29.0499263,60.3663366 C27.1329261,60.7821782 25.1421951,60.9207921 23.2251949,60.990099 C19.3174637,61.0594059 15.4097325,60.7821782 11.575732,60.0891089 C9.65873183,59.7425743 7.74173162,59.3267327 5.89846219,58.7029703 C5.01369286,58.4257426 4.05519275,58.009901 3.2441542,57.5940594 C2.35938487,57.1782178 1.40088477,56.6237624 1.10596166,55.7227723 Z M1.10596166,55.7227723 C1.25342321,56.0693069 1.17969244,55.2376238 1.40088477,55.4455446 C1.84326943,55.8613861 2.94923109,56.6930693 3.46534653,56.970297 C4.35011586,57.3861386 5.16115441,57.8712871 6.04592374,58.1485149 C7.88919317,58.7029703 9.65873183,59.1188119 11.575732,59.3960396 C15.4097325,59.950495 19.2437329,60.3663366 23.0777333,60.1584158 C24.9947335,60.019802 26.9117337,59.8118812 28.7550032,59.3960396 C30.5982726,58.980198 32.3678112,58.3564356 33.8424268,57.3861386 C34.5797346,56.9009901 35.1695808,56.2772277 35.4645039,55.5148515 C35.8331578,54.8217822 35.9068886,53.990099 35.8331578,53.1584158 C35.759427,52.8118812 35.6856962,52.2574257 35.6119655,51.8415842 C35.5382347,51.3564356 35.5382347,50.8712871 35.4645039,50.4554455 C35.3907731,49.5544554 35.3907731,48.5841584 35.3907731,47.6831683 C35.4645039,44.009901 35.759427,40.3366337 36.1280809,36.7326733 L37.3077733,25.8514851 C37.6764272,22.2475248 38.1188119,18.5742574 38.3400042,14.970297 C38.4874658,13.1683168 38.5611965,11.3663366 38.6349273,9.56435644 C38.6349273,8.66336634 38.6349273,7.76237624 38.5611965,6.93069307 C38.4874658,6.0990099 38.413735,5.12871287 38.1188119,4.57425743 C37.9713503,4.22772277 37.1603118,3.81188119 36.3492732,3.53465347 C35.5382347,3.25742574 34.5797346,3.04950495 33.6949652,2.91089109 C31.8516958,2.56435644 29.9346956,2.42574257 28.0176954,2.28712871 C24.183695,2.07920792 20.3496945,2.07920792 16.5156941,2.35643564 C12.6816937,2.63366337 8.84769328,2.98019802 5.23488519,4.01980198 C4.35011586,4.2970297 3.46534653,4.64356436 2.87550032,5.05940594 C2.58057721,5.26732673 2.35938487,5.54455446 2.2856541,5.68316832 C2.2856541,5.75247525 2.2856541,5.82178218 2.2856541,5.89108911 L2.43311565,6.16831683 C2.50684643,6.30693069 2.58057721,6.44554455 2.58057721,6.51485149 C2.87550032,7.48514851 3.02296187,8.45544554 3.17042343,9.35643564 C3.2441542,10.2574257 3.31788498,11.2277228 3.39161576,12.1287129 C3.68653887,19.4752475 3.31788498,26.7524752 2.94923109,34.029703 C2.50684643,41.2376238 2.13819254,49.0693069 1.40088477,56.2772277 C1.32715399,56.2772277 1.10596166,55.6534653 1.10596166,55.7227723 Z" id="Shape" stroke="#2E333E" stroke-width="0.5" fill="#2E333E" fill-rule="nonzero"></path>
                    </g>
                    <g id="Group" transform="translate(4.423847, 0.000000)" fill-rule="nonzero">
                        <path d="M1.99073099,59.049505 C1.99073099,59.049505 3.46534653,46.0891089 3.9077312,32.7128713 C4.27638509,21.9009901 2.2856541,9.98019802 1.47461555,7.69306931 C-1.40088477,-0.485148515 38.7086581,-0.97029703 41.5841584,4.5049505 C43.9435433,8.94059406 42.5426585,28 42.5426585,41.7920792 C42.5426585,52.6732673 43.8698125,54.7524752 41.5841584,57.2475248 C34.8746577,64.5247525 5.89846219,64.5247525 1.99073099,59.049505 Z" id="Shape" fill="#FFFFFF"></path>
                        <path d="M1.99073099,59.049505 C2.58057721,51.3564356 3.09669265,43.5940594 3.31788498,35.9009901 C3.68653887,28.2079208 3.09669265,20.5148515 1.84326943,12.8910891 C1.69580788,11.9207921 1.47461555,11.019802 1.32715399,10.049505 C1.25342321,9.56435644 1.10596166,9.14851485 1.03223088,8.66336634 C0.958500105,8.45544554 0.884769328,8.24752475 0.811038551,8.03960396 C0.737307773,7.83168317 0.663576996,7.48514851 0.589846219,7.13861386 C0.516115441,6.51485149 0.663576996,5.82178218 1.03223088,5.26732673 C1.32715399,4.71287129 1.76953866,4.2970297 2.2856541,3.95049505 C3.17042343,3.25742574 4.20265431,2.84158416 5.23488519,2.42574257 C9.29007794,0.97029703 13.4190015,0.554455446 17.547925,0.207920792 C21.6768485,-0.0693069307 25.8795028,-0.0693069307 30.0084264,0.207920792 C32.0728881,0.346534653 34.1373499,0.623762376 36.2755424,1.03960396 C37.3077733,1.24752475 38.3400042,1.52475248 39.3722351,1.87128713 C40.404466,2.28712871 41.5104276,2.63366337 42.395197,3.74257426 C42.8375816,4.36633663 42.9113124,4.85148515 43.1325047,5.33663366 C43.2799663,5.82178218 43.3536971,6.37623762 43.5011586,6.86138614 C43.6486202,7.83168317 43.7960817,8.87128713 43.8698125,9.84158416 C44.0172741,11.7821782 44.0910048,13.7227723 44.0910048,15.7326733 C44.0910048,19.6138614 44.0172741,23.4950495 43.9435433,27.3762376 C43.7960817,35.1386139 43.2799663,42.8316832 43.7960817,50.5247525 C43.8698125,51.4950495 43.8698125,52.4653465 43.8698125,53.4356436 C43.8698125,54.4059406 43.722351,55.5148515 43.2062355,56.5544554 C42.6163893,57.5247525 41.8053507,58.2871287 40.9205814,58.8415842 C40.0358121,59.4653465 39.077312,59.950495 38.1188119,60.3663366 C34.2110807,61.960396 30.0821572,62.6534653 25.9532336,63.0693069 C21.8243101,63.4158416 17.6953866,63.4158416 13.566463,63 C11.5020013,62.7920792 9.4375395,62.4455446 7.44680851,61.960396 C6.48830841,61.6831683 5.45607752,61.3366337 4.57130819,60.9207921 C3.53907731,60.4356436 2.58057721,59.8811881 1.99073099,59.049505 Z M1.99073099,59.049505 C2.06446177,59.1188119 1.99073099,58.980198 1.99073099,59.049505 C2.06446177,59.049505 2.06446177,58.980198 1.99073099,59.049505 C1.99073099,58.980198 2.43311565,58.4950495 2.43311565,58.4950495 C3.09669265,59.3960396 3.76026964,59.8118812 4.57130819,60.1584158 C5.5298083,60.5742574 6.11965452,61.1287129 7.37307773,61.3366337 C9.36380872,61.8217822 11.4282705,62.3069307 13.4190015,62.4455446 C17.4741942,62.7227723 21.6031178,62.5841584 25.6583105,62.1683168 C29.7135033,61.6831683 33.768696,60.9207921 37.3815041,59.3267327 C39.1510428,58.4950495 40.9205814,57.4554455 41.8053507,55.9306931 C42.1740046,55.1683168 42.3214662,54.3366337 42.3214662,53.3663366 C42.3214662,52.4653465 42.2477354,51.4950495 42.1740046,50.5247525 C41.6578892,42.7623762 41.8053507,35 41.9528123,27.2376238 C42.0265431,23.3564356 42.1002739,19.4752475 42.0265431,15.6633663 C41.9528123,13.7227723 41.9528123,11.8514851 41.73162,9.91089109 C41.6578892,8.94059406 41.5104276,8.03960396 41.3629661,7.13861386 C41.2892353,6.65346535 41.1417738,6.23762376 41.068043,5.82178218 C40.9205814,5.40594059 40.7731199,4.92079208 40.6256583,4.78217822 C40.2570044,4.2970297 39.3722351,3.88118812 38.4874658,3.53465347 C37.6026964,3.18811881 36.6441963,2.98019802 35.6856962,2.77227723 C33.768696,2.35643564 31.7042343,2.14851485 29.7135033,1.94059406 C25.6583105,1.59405941 21.6031178,1.59405941 17.547925,1.87128713 C13.4927323,2.14851485 9.4375395,2.63366337 5.67726985,3.88118812 C4.79250053,4.22772277 3.9077312,4.64356436 3.17042343,5.12871287 C2.43311565,5.68316832 2.06446177,6.30693069 2.13819254,6.93069307 C2.13819254,7.13861386 2.21192332,7.20792079 2.2856541,7.48514851 C2.35938487,7.76237624 2.43311565,7.97029703 2.50684643,8.24752475 C2.65430798,8.73267327 2.72803876,9.21782178 2.80176954,9.7029703 C2.94923109,10.6732673 3.17042343,11.6435644 3.2441542,12.6138614 C4.35011586,20.3069307 4.71876975,28.1386139 4.20265431,35.9009901 C3.68653887,43.1089109 3.53907731,51.9108911 2.58057721,59.1188119 C2.50684643,59.4653465 2.13819254,58.4950495 2.06446177,58.7722772 C2.21192332,58.980198 2.06446177,58.9108911 1.99073099,59.049505 C2.06446177,59.049505 2.06446177,58.980198 1.99073099,59.049505 C2.06446177,59.049505 2.06446177,59.049505 1.99073099,59.049505 Z" id="Shape" stroke="#2E333E" stroke-width="0.5" fill="#2E333E"></path>
                    </g>
                    <g id="Group" transform="translate(10.796924, 4.851485)" fill-rule="nonzero">
                        <path d="M2.91700021,22.8019802 C2.91700021,22.8019802 3.87550032,9.14851485 1.95850011,4.64356436 C0.0414998947,0.0693069307 28.0591953,0.0693069307 31.0084264,2.84158416 C33.9576575,5.61386139 31.0084264,18.2970297 31.9669265,21 C32.9254266,23.7029703 17.4419633,28.2772277 2.91700021,22.8019802 Z" id="Shape" fill="#FFFFFF"></path>
                        <path d="M1.91700021,17.4846056 C1.99073099,14.4713325 2.06446177,11.4580593 1.76953866,8.44478617 C1.6220771,6.96458182 1.40088477,5.43151302 0.811038551,4.05703755 C0.737307773,3.89844423 0.663576996,3.73985091 0.589846219,3.4755287 C0.516115441,3.2112065 0.589846219,2.94688429 0.737307773,2.73542653 C1.10596166,2.312511 1.6220771,2.10105323 2.06446177,1.88959547 C3.09669265,1.51954438 4.12892353,1.30808662 5.16115441,1.14949329 C7.22561618,0.832306645 9.36380872,0.62084888 11.5020013,0.515119998 C13.6401938,0.409391116 15.7046556,0.356526675 17.8428481,0.409391116 C19.9810407,0.409391116 22.0455024,0.515119998 24.183695,0.673713322 C25.2159258,0.779442204 26.3218875,0.885171086 27.3541184,1.04376441 C27.8702338,1.14949329 28.3863493,1.20235773 28.9761955,1.36095106 C29.4923109,1.51954438 30.0821572,1.62527326 30.5982726,1.99532435 C31.4830419,2.73542653 31.6305035,3.52839314 31.777965,4.32135976 C31.9254266,5.11432638 31.9254266,5.85442855 31.9254266,6.64739517 C31.9254266,8.18046396 31.777965,9.71353276 31.5567727,11.1937371 C31.4093111,12.6739415 31.1881188,14.2070103 31.3355804,15.6343502 C31.3355804,15.740079 31.3355804,15.7929435 31.4093111,15.8986724 L31.4830419,16.0044013 C31.4830419,16.0572657 31.5567727,16.1629946 31.5567727,16.215859 C31.6305035,16.3744523 31.5567727,16.4801812 31.4830419,16.6387745 C31.4093111,16.7445034 31.3355804,16.9030968 31.2618496,16.9559612 C30.8931957,17.3260123 30.3770803,17.5903345 29.9346956,17.8017923 C28.9761955,18.2247078 27.9439646,18.48903 26.9117337,18.7004878 C18.5801559,20.3921499 9.65873183,19.8635055 1.91700021,17.4846056 Z M1.91700021,17.4846056 L1.99073099,17.1145545 C5.16115441,17.7489278 10.9858858,18.96481 14.23004,19.0705388 C18.3589636,19.1762677 22.6353486,19.0705388 26.5430798,18.1189789 C27.5015799,17.8546567 28.4600801,17.5903345 29.2711186,17.2202834 C29.7135033,17.0616901 30.0821572,16.7973679 30.3033495,16.5859101 C30.3770803,16.5330457 30.3770803,16.4801812 30.450811,16.4273168 C30.450811,16.3744523 30.5245418,16.3215879 30.450811,16.3215879 C30.450811,16.3215879 30.450811,16.2687235 30.450811,16.2687235 L30.3770803,16.1101301 C30.3033495,16.0044013 30.3033495,15.8986724 30.3033495,15.7929435 C30.1558879,14.9999769 30.2296187,14.2070103 30.2296187,13.4669081 C30.3033495,12.7268059 30.3770803,11.9338393 30.450811,11.1937371 C30.5982726,9.71353276 30.7457341,8.18046396 30.7457341,6.70025961 C30.7457341,5.96015744 30.6720034,5.22005526 30.5245418,4.47995308 C30.3770803,3.79271535 30.1558879,3.05261317 29.5660417,2.62969764 C29.3448494,2.41823988 28.9024647,2.312511 28.4600801,2.20678211 C28.0176954,2.10105323 27.5015799,1.99532435 26.9854645,1.94245991 C25.9532336,1.78386659 24.9947335,1.6781377 23.9625026,1.57240882 C21.8980409,1.4138155 19.8335791,1.30808662 17.6953866,1.30808662 C13.4927323,1.25522217 9.29007794,1.36095106 5.23488519,1.88959547 C4.20265431,2.04818879 3.2441542,2.20678211 2.35938487,2.52396876 C1.91700021,2.68256208 1.47461555,2.89401985 1.32715399,3.10547761 C1.10596166,3.31693538 1.25342321,3.52839314 1.47461555,3.95130867 C2.06446177,5.43151302 2.21192332,6.96458182 2.35938487,8.49765061 C2.43311565,10.9822793 2.35938487,14.3127391 2.35938487,16.7445034 C2.2856541,17.53747 1.99073099,16.9559612 1.91700021,17.4846056 Z" id="Shape" stroke="#2E333E" stroke-width="0.5" fill="#2E333E"></path>
                    </g>
                    <path d="M13.7139246,38.2055453 C13.4190015,37.0563002 13.1978091,35.8304388 13.1240784,34.6045773 C12.9766168,33.3787159 12.902886,32.1528544 13.1978091,30.9269929 C13.2715399,30.6205276 13.4190015,30.3140622 13.7876554,30.0075968 C14.0825785,29.7777478 14.5249631,29.7777478 14.893617,29.9309805 C15.4097325,30.0842132 15.9995787,30.2374459 16.5894249,30.3140622 C17.6953866,30.5439112 18.875079,30.6971439 20.0547714,30.9269929 C22.3404255,31.2334583 24.6998104,31.5399237 26.9854645,31.5399237 C28.1651569,31.5399237 29.2711186,31.5399237 30.450811,31.4633073 C31.0406573,31.386691 31.5567727,31.3100746 32.0728881,31.156842 C32.3678112,31.0802256 32.5890036,31.0036093 32.8101959,30.8503766 L32.9576575,30.7737603 L33.1788498,30.6205276 C33.3263114,30.5439112 33.5475037,30.4672949 33.8424268,30.4672949 C34.1373499,30.4672949 34.432273,30.6205276 34.5797346,30.8503766 C34.7271961,31.0802256 34.8009269,31.2334583 34.8746577,31.386691 C35.0221192,31.7697727 35.0221192,32.0762381 35.0221192,32.3827034 C35.09585,33.0722505 35.0221192,33.6851812 34.9483885,34.2981119 C34.8009269,35.5239734 34.5797346,36.7498349 34.2110807,37.9756963 C34.1373499,38.2821617 33.9898884,38.5886271 33.9161576,38.8950924 C33.8424268,39.0483251 33.768696,39.2015578 33.6949652,39.3547905 C33.6212345,39.4314068 33.5475037,39.5080231 33.4737729,39.5846395 C33.3263114,39.6612558 33.2525806,39.7378722 33.1788498,39.7378722 C32.5152728,39.9677212 31.9254266,40.0443375 31.3355804,40.1209539 C30.1558879,40.2741866 28.9761955,40.2741866 27.7965031,40.2741866 C22.9302718,40.1209539 18.211502,39.6612558 13.7139246,38.2055453 Z M13.7139246,38.2055453 C13.7139246,38.128929 13.6401938,37.9756963 13.7139246,37.9756963 C14.23004,37.9756963 13.6486824,37.7792745 14.2385286,37.8558908 C16.0080673,38.1623562 19.0962713,39.1249414 20.6446177,39.2015578 C22.9302718,39.4314068 25.2896566,39.5080231 27.6490415,39.4314068 C28.8287339,39.4314068 29.9346956,39.3547905 31.114388,39.2015578 C31.6305035,39.1249414 32.2940805,39.0483251 32.6627344,38.8950924 C32.8101959,38.8184761 32.7364651,38.8950924 32.8101959,38.7418597 C32.8839267,38.6652434 32.9576575,38.5120107 32.9576575,38.4353944 C33.0313882,38.2055453 33.1788498,37.89908 33.2525806,37.5926146 C33.5475037,36.4433695 33.768696,35.2941244 33.9161576,34.1448793 C33.9898884,33.5319485 33.9898884,32.9956341 33.9898884,32.3827034 C33.9898884,32.0762381 33.9161576,31.846389 33.8424268,31.61654 C33.768696,31.5399237 33.768696,31.386691 33.6949652,31.386691 C33.6949652,31.3100746 33.6949652,31.386691 33.6212345,31.386691 C33.5475037,31.3100746 32.7364651,31.9230054 32.1466189,31.9996217 C31.5567727,32.2294707 30.9669265,32.2294707 30.3033495,32.3060871 C29.123657,32.4593198 27.9439646,32.3827034 26.7642722,32.3827034 C24.4048873,32.2294707 22.0455024,31.9996217 19.7598483,31.61654 C18.5801559,31.386691 17.4741942,31.156842 16.2945018,30.9269929 C15.7046556,30.7737603 15.1148094,30.6205276 14.5986939,30.4672949 C14.3775016,30.3906785 14.1563092,30.3906785 14.0088477,30.4672949 C13.8613861,30.5439112 13.7139246,30.8503766 13.6401938,31.0802256 C13.2715399,32.1528544 13.508911,33.7091238 13.508911,34.9349853 C13.5826418,35.6245324 13.8257253,37.1663438 13.8994561,37.8558908 C13.8994561,38.3922052 13.6401938,37.7458473 13.7139246,38.2055453 Z" id="Shape" stroke="#2E333E" stroke-width="0.5" fill="#2E333E" fill-rule="nonzero"></path>
                    <path d="M12.7554245,53.8590107 C12.4605014,52.7097656 12.239309,51.4839041 12.1655783,50.2580427 C12.0181167,49.0321812 11.9443859,47.8063197 12.239309,46.5804583 C12.3130398,46.2739929 12.4605014,45.9675276 12.8291553,45.6610622 C13.1240784,45.4312132 13.566463,45.4312132 13.9351169,45.5844458 C14.4512324,45.7376785 15.0410786,45.8909112 15.6309248,45.9675276 C16.7368865,46.1973766 17.9165789,46.3506093 19.0962713,46.5804583 C21.3819254,46.8869236 23.7413103,47.193389 26.0269644,47.193389 C27.2066568,47.193389 28.3126185,47.193389 29.4923109,47.1167727 C30.0821572,47.0401563 30.5982726,46.96354 31.114388,46.8103073 C31.4093111,46.733691 31.6305035,46.6570746 31.8516958,46.5038419 L31.9991574,46.4272256 L32.2203497,46.2739929 C32.3678112,46.1973766 32.5890036,46.1207602 32.8839267,46.1207602 C33.1788498,46.1207602 33.4737729,46.2739929 33.6212345,46.5038419 C33.768696,46.733691 33.8424268,46.8869236 33.9161576,47.0401563 C34.0636191,47.423238 34.0636191,47.7297034 34.0636191,48.0361688 C34.1373499,48.7257158 34.0636191,49.3386466 33.9898884,49.9515773 C33.8424268,51.1774388 33.6212345,52.4033002 33.2525806,53.6291617 C33.1788498,53.935627 33.0313882,54.2420924 32.9576575,54.5485578 C32.8839267,54.7017904 32.8101959,54.8550231 32.7364651,55.0082558 C32.6627344,55.0848722 32.5890036,55.1614885 32.5152728,55.2381048 C32.3678112,55.3147212 32.2940805,55.3913375 32.2203497,55.3913375 C31.5567727,55.6211865 30.9669265,55.6978029 30.3770803,55.7744192 C29.1973878,55.9276519 28.0176954,55.9276519 26.8380029,55.9276519 C21.9717716,55.7744192 17.2530019,55.3147212 12.7554245,53.8590107 Z M12.7554245,53.8590107 C12.9766168,53.935627 12.7554245,53.7823944 12.7554245,53.705778 C12.7554245,53.6291617 13.0503476,53.5525453 13.0503476,53.5525453 C13.7139246,53.705778 14.3775016,54.0122434 15.2622709,54.1654761 C16.8106172,54.5485578 18.5064251,54.7784068 19.6861175,54.8550231 C21.9717716,55.0848722 24.3311565,55.1614885 26.6905414,55.0848722 C27.8702338,55.0848722 28.9761955,55.0082558 30.1558879,54.8550231 C30.6720034,54.7784068 31.3355804,54.7017904 31.7042343,54.5485578 C31.8516958,54.4719414 31.777965,54.5485578 31.8516958,54.3953251 C31.9254266,54.3187087 31.9991574,54.1654761 31.9991574,54.0888597 C32.0728881,53.8590107 32.2203497,53.5525453 32.2940805,53.24608 C32.5890036,52.0968348 32.8101959,50.9475897 32.9576575,49.7983446 C33.0313882,49.1854139 33.0313882,48.6490995 33.0313882,48.0361688 C33.0313882,47.7297034 32.9576575,47.4998544 32.8839267,47.2700054 C32.8101959,47.193389 32.8101959,47.1167727 32.7364651,47.0401563 C32.7364651,46.96354 32.7364651,47.0401563 32.6627344,47.0401563 C32.5890036,46.96354 31.777965,47.5764707 31.1881188,47.6530871 C30.5982726,47.8829361 30.0084264,47.8829361 29.3448494,47.9595524 C28.1651569,48.1127851 26.9854645,48.0361688 25.8057721,48.0361688 C23.4463872,47.8829361 21.0870023,47.6530871 18.8013482,47.2700054 C17.6216558,47.0401563 16.5156941,46.8103073 15.3360017,46.5804583 C14.7461555,46.4272256 14.1563092,46.2739929 13.6401938,46.1207602 C13.4190015,46.0441439 13.1978091,46.0441439 13.0503476,46.1207602 C12.902886,46.1973766 12.7554245,46.5038419 12.6816937,46.733691 C12.3130398,47.8063197 12.5378815,49.6276195 12.5378815,50.853481 C12.6116123,51.7728771 12.9766168,52.6331492 13.0503476,53.5525453 C13.0503476,53.7823944 12.6816937,53.5525453 12.7554245,53.8590107 Z" id="Shape" stroke="#2E333E" stroke-width="0.5" fill="#2E333E" fill-rule="nonzero"></path>
                    <path d="M20.4556562,14.0443294 C22.2237301,14.6340676 23.9347694,15.7063189 24.961393,17.3683084 C25.1895316,17.7972089 25.4176701,18.2261094 25.5317394,18.7086225 C25.6458087,19.1911356 25.6458087,19.7272612 25.7028433,20.1025492 C25.7028433,20.1561617 25.7028433,20.1561617 25.7028433,20.2097743 C25.7028433,20.2097743 25.7028433,20.1561617 25.6458087,20.1025492 C25.6458087,20.1025492 25.5887741,19.995324 25.5317394,19.9417115 C25.4747048,19.8880989 25.4747048,19.8880989 25.4176701,19.8880989 C25.3606355,19.8344863 25.2465662,19.8344863 25.1895316,19.7808738 C25.1324969,19.7808738 25.0184276,19.7808738 24.961393,19.7808738 C24.9043583,19.7808738 24.8473237,19.7808738 24.8473237,19.8344863 C24.7902891,19.8344863 24.6762198,19.9417115 24.6762198,19.9417115 C24.5051158,20.1025492 24.6191851,20.0489366 24.6191851,19.995324 L24.6762198,19.8880989 L24.961393,19.2983607 C25.1324969,18.8694602 25.3036008,18.4941722 25.5317394,18.0652717 C26.3302244,16.4568948 27.356848,14.8485179 28.7256794,13.5618163 C30.0945108,12.2751148 31.8055501,11.2564761 33.6306587,10.8811881 C32.0336887,11.7926017 30.6648573,12.9720781 29.5811991,14.3123922 C28.4975408,15.6527063 27.5849866,17.1002456 26.8435362,18.6550099 C26.6724323,19.0302979 26.4442937,19.4055858 26.2731898,19.8344863 L25.9880166,20.4778371 L25.8739473,20.6386748 C25.759878,20.6922874 25.759878,20.6922874 25.5317394,20.9603502 C25.5317394,20.9603502 25.4176701,21.0675753 25.3036008,21.0675753 C25.2465662,21.0675753 25.1895316,21.1211879 25.1324969,21.1211879 C25.0754623,21.1211879 24.961393,21.1211879 24.8473237,21.1211879 C24.7332544,21.1211879 24.6762198,21.0675753 24.6191851,21.0139628 C24.5621505,20.9603502 24.5621505,20.9603502 24.5051158,20.9067376 C24.4480812,20.8531251 24.3340119,20.7458999 24.3340119,20.7458999 C24.2769773,20.5850622 24.2769773,20.5314497 24.2199426,20.4778371 C24.2199426,20.370612 24.2199426,20.3169994 24.2199426,20.2097743 C24.2199426,19.6736487 24.2769773,19.3519733 24.162908,18.9766853 C24.1058733,18.6013974 23.9918041,18.2261094 23.8207001,17.8508215 C23.2503537,16.4032822 21.9385569,15.1165807 20.4556562,14.0443294 Z" id="Shape" fill="#2E333E" fill-rule="nonzero"></path>
                    <path d="M43.7960817,37.009901 C43.7960817,37.009901 43.722351,37.009901 43.722351,37.009901" id="Fill-1067_2_" fill="#4A4D4C" fill-rule="nonzero"></path>
                    <path d="M7.74173162,36.7326733 C7.74173162,36.7326733 7.66800084,36.7326733 7.74173162,36.7326733" id="Fill-1068_2_" fill="#F1F0EC" fill-rule="nonzero"></path>
                    <path d="M14.0825785,33.0594059 C15.2622709,32.9207921 16.2945018,32.6435644 17.547925,32.5049505" id="Fill-1083_2_" fill="#F1F0EC" fill-rule="nonzero"></path>
                    <path d="M29.787234,30.4950495 C30.8931957,30.4950495 31.0406573,31.2574257 30.3770803,31.6039604" id="Fill-1096_2_" fill="#D3D1D1" fill-rule="nonzero"></path>
                    <path d="M26.4693491,29.2475248 C26.4693491,29.039604 26.6905414,28.7623762 27.0591953,28.7623762 C27.2066568,28.7623762 27.2803876,28.7623762 27.4278492,28.8316832" id="Fill-1104_2_" fill="#D3D1D1" fill-rule="nonzero"></path>
                    <path d="M42.8375816,27.7227723 C42.9113124,27.5148515 43.2062355,27.3762376 43.5011586,27.3762376 C43.722351,27.3762376 43.9435433,27.4455446 44.0910048,27.5148515" id="Fill-1117_2_" fill="#F1F0EC" fill-rule="nonzero"></path>
                    <path d="M44.0172741,28.3465347 C44.0172741,28.0693069 44.0910048,27.7920792 44.0910048,27.5148515 C44.4596587,27.6534653 44.7545818,27.9306931 44.5333895,28.2772277" id="Fill-1118_2_" fill="#4A4D4C" fill-rule="nonzero"></path>
                    <path d="M30.3770803,23.4950495 C30.7457341,23.6336634 31.0406573,23.7722772 31.6305035,23.7722772" id="Fill-1145_2_" fill="#F1F0EC" fill-rule="nonzero"></path>
                    <path d="M36.2018117,23.7029703 C35.759427,23.7029703 35.3170423,23.6336634 34.7271961,23.4950495 C34.7271961,23.3564356 34.6534653,23.2178218 34.6534653,23.0792079 C34.8009269,23.009901 34.9483885,22.9405941 35.0221192,22.7326733 C35.09585,22.5247525 35.09585,22.3168317 35.1695808,22.1089109 C35.1695808,22.1089109 35.1695808,22.1089109 35.1695808,22.1089109 C35.3907731,22.1089109 35.5382347,22.1089109 35.6856962,22.1089109 C37.086581,22.1089109 37.3815041,22.8019802 37.6764272,23.5643564 C37.086581,23.6336634 36.6441963,23.7029703 36.2018117,23.7029703" id="Fill-1149_2_" fill="#D3D1D1" fill-rule="nonzero"></path>
                    <path d="M28.7550032,19.0594059 C28.8287339,19.0594059 28.9024647,19.0594059 28.9024647,19.0594059 C28.9761955,19.0594059 29.0499263,19.0594059 29.123657,19.0594059" id="Fill-1180_2_" fill="#F1F0EC" fill-rule="nonzero"></path>
                    <path d="M24.4786181,13.1683168 C23.8150411,13.1683168 24.2574257,12.6138614 23.9625026,12.2673267 C23.7413103,11.990099 22.9302718,11.990099 23.0777333,11.4356436 C23.2989256,11.2277228 23.5938487,11.1584158 23.8150411,11.1584158 C24.9210027,11.1584158 25.8795028,12.5445545 24.7735412,13.0990099 C24.6998104,13.1683168 24.5523489,13.1683168 24.4786181,13.1683168" id="Fill-1221_2_" fill="#D3D1D1" fill-rule="nonzero"></path>
                    <path d="M2.58057721,12.6138614 C2.58057721,12.6138614 2.50684643,12.6138614 2.58057721,12.6138614" id="Fill-1226_2_" fill="#F1F0EC" fill-rule="nonzero"></path>
                    <path d="M32.1466189,67.2970297 C31.8516958,67.2970297 31.5567727,67.2970297 31.2618496,67.2970297" id="Fill-1937_2_" fill="#F1F0EC" fill-rule="nonzero"></path>
                    <path d="M22.7828102,63.6237624 C22.7828102,63.6237624 22.7090794,63.6237624 22.7090794,63.6237624 C22.4878871,63.4851485 22.856541,63.3465347 23.0777333,63.3465347" id="Fill-1974_2_" fill="#4A4D4C" fill-rule="nonzero"></path>
                    <path d="M22.7090794,63.0693069 C22.5616179,63 22.7090794,62.8613861 22.856541,62.7920792 C22.9302718,62.7920792 23.0777333,62.7920792 23.1514641,62.7920792" id="Fill-1986_2_" fill="#4A4D4C" fill-rule="nonzero"></path>
                    <path d="M20.5708869,63.0693069 C20.6446177,62.9306931 20.7920792,62.7920792 20.9395408,62.6534653 C21.2344639,62.6534653 21.529387,62.7227723 21.8243101,62.7227723" id="Fill-1988_2_" fill="#4A4D4C" fill-rule="nonzero"></path>
                    <path d="M20.7920792,61.8217822 C20.6446177,61.8217822 20.5708869,61.7524752 20.5708869,61.6138614 C20.5708869,61.4752475 20.7183484,61.4059406 20.7920792,61.4059406" id="Fill-2006_2_" fill="#F1F0EC" fill-rule="nonzero"></path>
                    <path d="M5.5298083,61.4059406 C5.5298083,61.3366337 5.5298083,61.3366337 5.5298083,61.3366337 C5.67726985,61.3366337 5.82473141,61.3366337 5.97219296,61.4059406" id="Fill-2013_2_" fill="#D3D1D1" fill-rule="nonzero"></path>
                    <path d="M25.2896566,59.6732673 C24.1099642,59.6039604 24.6260796,58.9108911 25.0684643,58.9108911 C25.2896566,58.980198 25.4371182,59.1188119 25.2896566,59.6732673" id="Fill-2024_2_" fill="#D3D1D1" fill-rule="nonzero"></path>
                    <path d="M8.7739625,53.4356436 C8.62650095,53.4356436 8.55277017,53.3663366 8.55277017,53.2277228 C8.55277017,53.0891089 8.70023173,53.019802 8.7739625,53.019802" id="Fill-2070_2_" fill="#F1F0EC" fill-rule="nonzero"></path>
                    <path d="M39.7638509,55.5643564 C39.395197,55.5643564 38.9528123,55.5643564 38.5841584,55.5643564 C38.5841584,55.2178218 38.5841584,54.8019802 38.5841584,54.4554455 C38.8053507,54.3861386 39.0265431,54.3861386 39.1740046,54.3861386 C39.6901201,54.3861386 39.8375816,54.5940594 39.9113124,54.8712871 C39.8375816,55.0792079 39.8375816,55.3564356 39.7638509,55.5643564" id="Fill-2082_2_" fill="#989998" fill-rule="nonzero"></path>
                </g>
                <g id="Group-15" transform="translate(36.000000, 34.000000)" fill-rule="nonzero">
                    <path d="M8.23762376,7.23762376 C8.17559843,7.42030474 8.65346535,6.47524752 9.48514851,5.71287129 C9.74132984,5.49084747 10.0227626,5.27724082 10.3242615,5.08864473 C11.2462688,4.51190305 12.3559306,4.16905623 13.5049505,4.53465347 C16.2079208,5.43564356 16.2079208,5.43564356 16.2079208,8.13861386 C16.2079208,10.8415842 13.5049505,13.6138614 11.6336634,14.5148515 C11.3564356,14.7920792 10.4554455,15.4158416 9.69306931,15.970297 C9.48514851,16.1089109 9.34653465,16.3861386 9.13861386,16.5940594 C9.06930693,16.6633663 9.13861386,16.6633663 9.13861386,16.7326733 C9.13861386,16.7326733 9.06930693,16.8019802 9,16.8712871 C9,16.8712871 8.93069307,16.9405941 8.93069307,17.009901 C8.86138614,17.0792079 8.86138614,17.1485149 8.86138614,17.1485149 C8.79207921,17.1485149 8.79207921,17.0792079 8.79207921,17.0792079 C8.65346535,17.009901 8.72277228,17.0792079 8.65346535,17.009901 C8.51485149,16.8712871 8.23762376,16.7326733 8.23762376,16.7326733 C8.0990099,16.5940594 8.02970297,16.5247525 8.02970297,16.5247525 C8.02970297,16.5247525 3.45544554,14.5148515 2.55445545,11.7425743 C1.65346535,9.03960396 0.96039604,8.13861386 1.65346535,7.16831683 C2.41584158,6.12871287 3.45544554,5.36633663 4.35643564,5.36633663 C5.25742574,5.36633663 7.33663366,5.43564356 8.23762376,7.23762376 Z" id="Shape" fill="#F3817A"></path>
                    <path d="M8.86808981,17.056661 C8.86808981,17.056661 8.8832036,16.8844356 9.0948485,16.6226896 C9.26193123,16.4160546 9.24231706,16.3525275 9.49205331,16.0863374 C9.59768231,15.9737491 9.72268399,15.8432807 9.85556025,15.7087241 C9.98441173,15.5782432 10.2093477,15.4425981 10.3425241,15.3170045 C10.6406476,15.0358555 11.0547964,14.7166043 11.2290073,14.5740681 C12.0606905,13.9503057 12.6732673,13.5445545 13.4356436,12.9207921 C14.1980198,12.3663366 14.8217822,11.7425743 15.2376238,10.9108911 C15.6534653,10.1485149 15.8613861,9.24752475 15.9306931,8.34653465 C16,7.44554455 15.8613861,6.61386139 15.4455446,5.92079208 C15.029703,5.22772277 14.2673267,4.81188119 13.4356436,4.6039604 C12.5123073,4.41929314 11.6713167,4.48341293 10.6154139,5.15841584 C10.4121399,5.28836202 10.1051691,5.69091472 9.83992175,5.92079208 C9.49551957,6.21926918 9.19234597,6.35475744 8.97801247,6.54393191 C8.60581844,6.87243683 8.55280344,6.87987078 8.26423795,7.24859335 C8.16751355,7.08279805 8.2996024,6.80698844 8.60720418,6.4093725 C8.93349465,5.98759896 10.0273439,4.68144068 10.4554455,4.3960396 C11.3564356,3.84158416 12.3960396,3.4950495 13.5742574,3.56435644 C14.6831683,3.63366337 15.7920792,4.18811881 16.4851485,5.15841584 C17.1782178,6.12871287 17.3861386,7.30693069 17.2475248,8.41584158 C17.1089109,9.45544554 16.9009901,10.5643564 16.3465347,11.5346535 C15.7920792,12.5049505 14.960396,13.2673267 14.0594059,13.7524752 C13.2761543,14.2646013 12.0540885,15.0305091 11.1339798,15.5849292 C10.5864129,15.9148707 10.3169959,16.0201938 9.83992175,16.3641922 C9.5746549,16.5554652 9.31573022,16.8748945 9.0948485,17.056661 C8.8447751,17.2624497 8.86808981,17.056661 8.86808981,17.056661 Z" id="Shape" stroke="#2E333E" stroke-width="0.300000012" fill="#2E333E"></path>
                    <path d="M8.92465378,17.4510376 C8.83383718,17.4510376 8.65969548,17.3573041 8.47075931,17.2152915 C8.32827516,17.1081943 8.12501838,16.8742864 8.03219995,16.8039457 C7.46904737,16.3771713 7.15625029,16.10139 6.5049505,15.9009901 C5.6039604,15.5544554 4.7029703,15.0693069 3.87128713,14.4455446 C3.03960396,13.8217822 2.34653465,13.1287129 1.79207921,12.2277228 C1.23762376,11.3267327 0.891089109,10.2871287 0.891089109,9.24752475 C0.891089109,8.69306931 0.96039604,8.13861386 1.0990099,7.65346535 C1.23762376,7.0990099 1.65346535,6.54455446 2,6.1980198 C2.83168317,5.5049505 3.87128713,5.08910891 4.98019802,5.08910891 C6.08910891,5.08910891 7.12871287,5.64356436 7.75247525,6.47524752 C8.12166578,6.96750157 8.5409384,7.60507353 8.76445204,8.14588655 C8.91857375,8.51879904 8.92465378,8.67117733 8.92465378,8.92923476 C8.92465378,9.06662237 8.87804544,9.26037806 8.83383718,9.17821782 C8.58968262,8.72446104 8.37822965,8.19652788 8.03219995,7.7591775 C7.85922153,7.54054835 7.61204984,7.0072805 7.40594059,6.82178218 C6.71287129,6.1980198 5.88118812,5.85148515 4.98019802,5.92079208 C4.14851485,5.99009901 3.24752475,6.33663366 2.69306931,6.96039604 C2.41584158,7.23762376 2.20792079,7.51485149 2.06930693,7.93069307 C1.93069307,8.34653465 1.93069307,8.76237624 1.93069307,9.17821782 C1.93069307,10.9108911 2.97029703,12.5742574 4.42574257,13.8217822 C5.11881188,14.4455446 5.95049505,14.9306931 6.78217822,15.4158416 C6.88637099,15.4916181 7.9302424,16.2194739 8.03219995,16.2998978 C8.67626357,16.807934 8.92465378,17.0904727 8.92465378,17.4510376 Z" id="Shape" stroke="#2E333E" stroke-width="0.400000006" fill="#2E333E"></path>
                    <path d="M17.1782178,2.73267327 C17.9405941,3.00990099 18.7722772,3.28712871 19.3960396,3.91089109 C19.7425743,4.18811881 20.0891089,4.6039604 20.1584158,5.08910891 C20.2277228,5.57425743 20.1584158,5.99009901 19.950495,6.40594059 C19.950495,6.40594059 19.8811881,6.40594059 19.8811881,6.40594059 C19.8811881,6.40594059 19.8811881,6.40594059 19.8811881,6.40594059 C19.6039604,5.99009901 19.4653465,5.64356436 19.3267327,5.36633663 C19.1881188,5.08910891 19.1188119,4.74257426 18.9108911,4.3960396 C18.4950495,3.77227723 17.8712871,3.28712871 17.1782178,2.8019802 C17.1089109,2.8019802 17.1089109,2.8019802 17.1782178,2.73267327 C17.1089109,2.73267327 17.1782178,2.73267327 17.1782178,2.73267327 Z" id="Shape" fill="#2E333E"></path>
                    <path d="M16.2772277,0.930693069 C17.4554455,0.792079208 18.7029703,1 19.8811881,1.55445545 C20.4356436,1.83168317 20.990099,2.17821782 21.4059406,2.73267327 C21.6138614,3.00990099 21.6831683,3.35643564 21.7524752,3.7029703 C21.8217822,3.98019802 21.8217822,4.32673267 21.8217822,4.6039604 C21.8217822,4.6039604 21.8217822,4.67326733 21.7524752,4.67326733 C21.7524752,4.67326733 21.7524752,4.67326733 21.6831683,4.67326733 C21.1980198,4.25742574 20.9207921,3.63366337 20.6435644,3.28712871 C20.2970297,2.94059406 19.950495,2.52475248 19.4653465,2.17821782 C18.5643564,1.55445545 17.4554455,1.13861386 16.2772277,1 C16.2079208,1 16.2079208,1 16.2772277,0.930693069 C16.2079208,0.930693069 16.2079208,0.930693069 16.2772277,0.930693069 Z" id="Shape" fill="#2E333E"></path>
                </g>
            </g>
        </g>
    </g>
</svg>