<?xml version="1.0" encoding="UTF-8"?>
<svg width="323px" height="206px" viewBox="0 0 323 206" version="1.1" xmlns="http://www.w3.org/2000/svg" xmlns:xlink="http://www.w3.org/1999/xlink">
    <!-- Generator: Sketch 51.2 (57519) - http://www.bohemiancoding.com/sketch -->
    <title>Ilustration Hashtag instagram</title>
    <desc>Created with Sketch.</desc>
    <defs></defs>
    <g id="Page-1" stroke="none" stroke-width="1" fill="none" fill-rule="evenodd">
        <g id="UI-kit" transform="translate(-3708.000000, -382.000000)" fill-rule="nonzero">
            <g id="Ilustration-Hashtag-instagram" transform="translate(3708.000000, 382.000000)">
                <path d="M97.2312548,101.536026 C97.8298517,91.7642422 97.380904,81.844401 97.2312548,72.0726171 C97.0816055,62.8930626 94.3879192,49.5679028 103.217224,43.4975522 C109.801791,38.9077749 118.631096,39.0558322 126.412856,38.9077749 C135.840758,38.7597176 145.41831,38.7597176 154.846212,38.7597176 C163.675517,38.7597176 172.504822,38.4636029 181.184478,39.3519469 C187.469746,39.9441762 196.4487,40.3883482 198.992737,47.4951001 C200.638879,52.0848774 200.48923,57.5629986 200.938178,62.4488906 C201.686424,73.9973624 200.189931,85.3977769 200.040282,96.7981914 C200.040282,98.7229367 202.883618,98.5748794 202.883618,96.7981914 C203.931162,80.956057 204.829058,64.9658652 201.985722,49.1237308 C200.48923,40.8325202 196.4487,39.2038896 188.217992,37.7233163 C177.143948,35.7985709 165.770606,36.3908003 154.696563,36.5388576 C143.32322,36.6869149 131.800229,36.5388576 120.426887,37.1310869 C113.99197,37.4272016 106.958455,38.1674882 101.720732,41.8689215 C94.5375685,46.9028708 94.6872177,55.1940813 94.9865162,63.1891772 C95.2858147,75.9221077 94.9865162,88.8030955 96.3333593,101.536026 C96.3333593,102.128255 97.2312548,102.128255 97.2312548,101.536026 Z" id="Shape" stroke="#2E333E" stroke-width="0.5" fill="#2E333E"></path>
                <path d="M95.0988357,123.898559 C96.9009899,133.944862 102.90817,140.445411 112.820018,143.547946 C124.834379,147.24144 138.500714,146.355001 150.815434,146.207261 C158.474589,146.207261 166.133744,145.911782 173.792899,145.468563 C179.499721,145.173083 185.356722,145.320823 190.312646,142.218288 C191.363902,141.627329 190.462825,140.002192 189.411568,140.593151 C183.554568,143.843425 176.045592,143.400206 169.587873,143.695686 C163.430513,143.991165 157.122974,144.138905 150.965614,144.286645 C140.002509,144.434384 128.288508,145.025343 117.475583,142.809247 C103.659068,140.002192 97.3515284,131.433286 95.6995538,118.136709 C94.1977587,106.169789 94.3479382,94.2028692 94.3479382,82.2359494 C94.0475792,81.6449904 93.4468611,81.6449904 93.4468611,82.0882096 C92.3956045,95.8280064 92.6959636,110.306502 95.0988357,123.898559 Z" id="Shape" stroke="#2E333E" stroke-width="0.5" fill="#2E333E"></path>
                <path d="M135.958721,102.179762 C141.42975,109.238831 156.955644,105.6342 161.391614,98.8755167 C163.757464,95.1206925 163.90533,88.5122019 163.018136,84.3067988 C162.130942,79.3504309 159.025763,76.1963786 154.441928,74.6944489 C146.013585,71.9909755 134.62793,74.6944489 131.966348,84.3067988 C129.304766,94.3697276 133.740736,106.385165 145.422123,105.934586 C146.752914,105.934586 146.752914,103.982078 145.422123,103.831885 C135.367258,103.08092 130.783423,91.5160612 135.219392,82.8048691 C138.472437,76.3465715 148.083705,75.2952208 154.146197,77.6983082 C162.574539,81.1527465 162.722405,96.3222362 155.181256,100.677832 C148.823033,104.282463 142.908407,103.982078 136.402318,101.278604 C135.958721,101.278604 135.662989,101.879376 135.958721,102.179762 Z" id="Shape" stroke="#2E333E" stroke-width="0.5" fill="#2E333E"></path>
                <path d="M178.716268,52.6209694 C176.279927,52.6209694 173.843586,52.4737344 172.01633,54.2405546 C170.493617,55.7129049 169.73226,57.6269602 169.579989,59.6882505 C169.427718,63.9580662 172.777687,67.6389417 177.345826,67.6389417 C181.913965,67.7861768 185.873019,64.3997712 185.720748,59.8354855 C185.568476,54.3877897 180.543523,51.8847943 175.366299,52.6209694 C174.452671,52.7682044 174.452671,54.3877897 175.366299,54.5350247 C178.563996,55.1239648 182.066236,55.7129049 182.675322,59.3937804 C183.284407,62.780186 180.543523,65.4304164 177.193554,65.5776514 C173.843586,65.7248864 171.559516,63.221891 171.407245,60.1299556 C171.407245,58.6576053 171.864059,57.0380201 172.929958,55.8601399 C174.452671,54.2405546 176.432198,54.5350247 178.563996,54.5350247 C179.934438,54.5350247 179.934438,52.6209694 178.716268,52.6209694 Z" id="Shape" fill="#2E333E"></path>
                <path d="M100.994576,84.7396277 C110.304006,81.4103218 119.613436,80.8049935 129.070634,83.5289711 C130.252784,83.8316352 130.69609,82.0156502 129.51394,81.5616539 C119.761204,78.8376764 109.712931,79.1403406 100.403501,82.9236427 C99.5168888,83.377639 99.9601949,85.193624 100.994576,84.7396277 Z" id="Shape" fill="#2E333E"></path>
                <path d="M163.378908,82.5502539 C171.697551,80.4894203 178.679269,82.2558491 186.997912,83.4334683 C192.494159,84.1694803 197.693311,84.0222779 202.298274,80.9310275 C203.635198,80.0478131 202.446821,78.2813843 201.109896,78.8701939 C188.631932,84.6110875 174.519948,74.4541219 162.784719,81.2254323 C162.190531,81.6670395 162.636172,82.6974563 163.378908,82.5502539 Z" id="Shape" fill="#2E333E"></path>
                <g id="Group" transform="translate(178.659375, 72.693069)" fill="#2E333E" stroke="#2E333E" stroke-width="0.5">
                    <path d="M34.0979492,50.6937186 C26.0923438,56.0577828 2.66853516,65.1468917 4.00280273,46.6706703 C4.89231445,34.0055186 17.6419824,26.2574257 28.7608789,23.7243954 C29.2056348,23.5753936 29.0573828,22.8303847 28.612627,22.9793865 C20.4587695,24.6184061 12.749668,27.3004382 7.2643457,34.0055186 C3.26154297,39.0715793 -0.148251953,47.1176757 2.5202832,53.5247525 C7.85735352,66.4879078 28.1678711,59.0378185 34.2462012,50.9917221 C34.3944531,50.6937186 34.2462012,50.5447168 34.0979492,50.6937186 Z" id="Shape"></path>
                    <path d="M12.4531641,57.8458043 C6.22658203,45.7766596 24.1650684,36.6875507 32.7636816,32.5155007 C33.3566895,32.2174972 32.9119336,31.1744847 32.3189258,31.3234864 C25.351084,34.1545204 18.0867383,38.3265704 13.3426758,44.2866418 C10.2293848,48.1606882 6.81958984,54.567765 12.1566602,57.994806 C12.4531641,58.2928096 12.601416,57.994806 12.4531641,57.8458043 Z" id="Shape"></path>
                    <path d="M37.0629883,62.7628632 C30.3916504,67.6799221 20.9035254,69.9149489 12.8979199,67.3819185 C-0.148251953,63.0608667 2.96503906,50.8427203 5.18881836,40.5615971 C5.33707031,39.8165882 4.29930664,39.2205811 3.85455078,39.96559 C-0.741259766,48.4586918 -1.63077148,61.7198507 7.70910156,67.5309203 C16.7524707,73.1929882 30.3916504,70.510956 37.5077441,63.0608667 C37.6559961,62.911865 37.3594922,62.6138614 37.0629883,62.7628632 Z" id="Shape"></path>
                    <path d="M41.3622949,60.82584 C47.1441211,57.8458043 51.7399316,53.5247525 54.2602148,47.5646811 C55.2979785,45.0316507 56.3357422,42.4986204 56.4839941,39.6675864 C56.4839941,37.879565 56.6322461,35.6445382 56.3357422,33.8565168 C55.5944824,30.5784775 54.5567188,28.3434507 52.7776953,26.108424 C50.8504199,23.7243954 47.440625,22.0853758 44.0308301,21.7873722 C42.9930664,21.6383704 42.8448145,23.4263918 44.0308301,23.5753936 C48.3301367,23.8733972 51.1469238,26.2574257 52.9259473,29.8334686 C53.5189551,30.8764811 54.1119629,32.0684954 54.5567188,33.707515 C55.0014746,35.6445382 55.0014746,38.3265704 54.8532227,40.4125954 C54.7049707,43.3926311 53.3707031,46.0746632 52.4811914,48.0116864 C49.9609082,53.5247525 45.9581055,57.1007953 41.214043,60.82584 C41.065791,60.6768382 41.214043,60.82584 41.3622949,60.82584 Z" id="Shape"></path>
                    <path d="M40.1762793,46.0746632 C43.7343262,42.051615 47.292373,37.7305632 49.3679004,32.5155007 C50.2574121,30.1314722 52.1846875,24.7674079 48.7748926,23.4263918 C47.588877,22.9793865 46.5511133,23.7243954 47.588877,24.3204025 C50.2574121,25.9594222 46.6993652,35.6445382 45.8098535,37.1345561 C44.0308301,40.1145918 41.8070508,42.7966239 39.5832715,45.4786561 C39.2867676,45.9256614 39.7315234,46.5216686 40.1762793,46.0746632 Z" id="Shape"></path>
                    <path d="M41.3622949,43.2436293 C37.3594922,38.3265704 34.0979492,34.4525239 33.8014453,27.7474436 C33.6531934,22.5323811 33.3566895,17.3173186 36.3217285,12.9962668 C36.9147363,12.1022561 36.1734766,11.3572472 35.7287207,12.1022561 C29.9468945,21.0423633 29.7986426,37.7305632 40.7692871,44.13764 C41.214043,44.4356436 41.6587988,43.8396364 41.3622949,43.2436293 Z" id="Shape"></path>
                    <path d="M40.1762793,7.48320078 C53.3707031,-1.30790456 74.5707324,1.07612401 84.2071094,13.7412758 C84.8001172,14.4862847 86.1343848,13.7412758 85.541377,12.9962668 C80.6490625,5.69517935 71.4574414,2.1191365 63.155332,0.778120435 C53.9637109,-0.711897419 46.6993652,1.52312936 39.7315234,7.03619542 C39.2867676,7.33419899 39.7315234,7.93020614 40.1762793,7.63220256 L40.1762793,7.48320078 Z" id="Shape"></path>
                    <path d="M89.8406836,48.1606882 C97.1050293,41.6046096 94.732998,28.9394579 89.8406836,21.6383704 C89.5441797,21.191365 88.8029199,21.4893686 88.9511719,22.0853758 C91.9162109,31.62149 93.8434863,38.4755721 89.3959277,47.8626846 C89.2476758,48.1606882 89.6924316,48.4586918 89.8406836,48.1606882 Z" id="Shape"></path>
                    <path d="M51.5916797,53.5247525 C58.8560254,59.9318292 77.2392676,63.5078721 84.3553613,54.8657685 C84.9483691,54.1207596 84.2071094,53.0777471 83.3175977,53.5247525 C72.9399609,59.3358221 62.4140723,57.1007953 52.0364355,52.9287453 C51.5916797,52.9287453 51.2951758,53.3757507 51.5916797,53.5247525 Z" id="Shape"></path>
                    <path d="M37.2112402,19.850349 C44.6238379,9.56922578 60.9315527,13.1452686 68.9371582,20.2973543 C76.053252,26.7044311 87.7651562,40.5615971 77.6840234,49.2037007 C77.3875195,49.3527025 77.6840234,49.9487096 77.9805273,49.7997078 C91.9162109,44.13764 76.3497559,24.4694043 70.2714258,18.9563383 C61.9693164,11.3572472 43.5860742,7.93020614 37.0629883,19.5523454 C37.0629883,19.850349 37.2112402,19.9993508 37.2112402,19.850349 Z" id="Shape"></path>
                    <path d="M73.0882129,53.6737543 C75.756748,52.6307418 78.2770312,51.1407239 80.0560547,48.9056971 C80.5008105,48.30969 79.6112988,47.8626846 79.166543,48.1606882 C77.2392676,49.9487096 75.6084961,51.4387275 72.9399609,53.2267489 C72.791709,53.5247525 72.9399609,53.822756 73.0882129,53.6737543 Z" id="Shape"></path>
                    <path d="M46.2546094,30.1314722 C46.2546094,30.1314722 46.2546094,29.9824704 46.2546094,30.1314722 C46.1063574,29.9824704 46.1063574,30.1314722 46.2546094,30.1314722 Z" id="Shape"></path>
                    <path d="M43.7343262,16.2743061 C43.8825781,16.2743061 43.8825781,16.2743061 43.7343262,16.2743061 C43.7343262,16.2743061 43.7343262,16.2743061 43.7343262,16.2743061 Z" id="Shape"></path>
                    <path d="M46.6993652,29.6844668 C45.5133496,27.7474436 44.6238379,25.5124168 44.179082,23.1283882 C43.5860742,20.2973543 44.4755859,17.764324 44.327334,14.9332901 C44.327334,14.4862847 43.7343262,14.3372829 43.4378223,14.6352865 C40.9175391,18.5093329 41.8070508,27.5984418 46.2546094,29.8334686 C46.4028613,30.2804739 46.8476172,29.9824704 46.6993652,29.6844668 Z" id="Shape"></path>
                    <path d="M56.0392383,41.3066061 C61.5245605,46.8196721 73.9777246,46.9686739 80.7973145,44.13764 C81.8350781,43.6906346 81.3903223,42.3496186 80.3525586,42.4986204 C72.643457,43.8396364 62.7105762,45.7766596 55.8909863,40.4125954 C55.7427344,40.4125954 55.8909863,41.1576043 56.0392383,41.3066061 Z" id="Shape"></path>
                </g>
                <g id="Group-10" transform="translate(116.000000, 0.000000)" fill="#2E333E">
                    <path d="M1.80931118,17.5882017 C3.00332847,16.0341463 3.40133423,14.091577 4.19734576,12.2785124 C5.25869446,10.2064386 6.58538034,8.52287856 8.0447348,6.83931855 C9.63675785,5.02625393 12.0247924,2.82467546 10.9634437,0.364087762 C10.8307751,-0.0244260856 10.3001008,-0.153930701 10.0347636,0.234583146 C9.1060835,2.17715238 8.57540915,3.60170316 7.11605469,5.28526316 C6.05470599,6.58030932 4.8606887,7.74585087 3.93200858,9.04089702 C2.33998553,11.3719801 0.615293892,14.4800909 1.27863683,17.4586971 C1.41130542,17.7177063 1.80931118,17.7177063 1.80931118,17.5882017 Z" id="Shape"></path>
                    <path d="M7.38898963,18.5122258 C7.7903963,17.7489947 9.12841852,16.7313532 9.6636274,15.968122 C10.4664407,14.8232754 11.4030563,13.6784287 12.2058696,12.533582 C13.6776941,10.6255042 15.2833207,8.71742644 16.2199363,6.55493827 C16.4875407,6.04611753 15.6847274,5.66450197 15.2833207,6.04611753 C13.0086829,7.82699013 11.5368585,10.498299 9.79742963,12.7879924 C8.59320963,14.3144546 6.05096741,16.604148 6.18476964,18.639431 C6.18476964,19.1482517 6.85378075,19.5298673 7.25518741,19.2754569 C7.52279185,19.0210465 7.65659408,19.0210465 7.7903963,18.639431 C8.05800074,18.5122258 7.52279185,18.2578154 7.38898963,18.5122258 Z" id="Shape"></path>
                    <path d="M1.48488575,7.10621938 C1.48488575,7.10621938 1.48488575,6.979097 1.48488575,6.979097 C1.23080134,7.10621938 1.10375914,7.36046414 0.849674741,7.48758653 C1.73897015,7.61470891 2.88234996,8.75881034 3.51756096,9.26729986 C4.66094077,10.1571565 5.67727838,11.0470132 6.69361598,11.9368699 C8.4722068,13.5894608 9.86967101,15.4962965 11.3941774,17.4031323 C12.0293884,18.1658666 13.2998104,17.1488875 12.7916416,16.3861532 C11.0130508,13.7165832 8.7262912,11.4283803 6.31248938,9.26729986 C5.16910957,8.25032081 2.24713895,5.07226128 0.595590339,6.08924033 C0.341505938,6.21636271 0.214463737,6.59772986 0.341505938,6.85197462 C0.341505938,6.85197462 0.341505938,6.979097 0.341505938,6.979097 C0.341505938,7.74183129 1.35784354,7.74183129 1.48488575,7.10621938 Z" id="Shape"></path>
                    <path d="M2.03048369,0.897029703 C4.44694254,2.76831683 5.84594503,5.76237624 8.0080398,7.88316832 C9.66140638,9.5049505 12.4594114,12.6237624 15.0030523,12.6237624 C15.3845984,12.6237624 15.5117804,12.249505 15.3845984,12 C14.6215061,10.7524752 13.3496857,10.2534653 12.2050473,9.38019802 C10.5516807,8.13267327 9.02549616,6.88514851 7.62649366,5.38811881 C5.97312708,3.64158416 4.70130663,0.897029703 2.03048369,0.897029703 C2.03048369,0.772277228 1.90330164,0.897029703 2.03048369,0.897029703 Z" id="Shape"></path>
                </g>
                <g id="Group-9" transform="translate(49.000000, 81.000000)" fill="#2E333E">
                    <path d="M24.5992119,3.59828865 C20.2382334,6.47553017 16.2215427,9.57409797 11.9753268,12.6726658 C8.18816125,15.4392442 3.82718276,17.6525069 0.499067595,20.8617378 C0.0400172279,21.3043903 0.499067595,22.3003586 1.18764315,21.9683692 C5.54862164,20.3084221 9.45054976,16.9885281 13.1229527,14.2219497 C17.3691686,11.0127187 21.2710967,7.8034878 24.8287371,3.81961492 C25.0582623,3.70895178 24.8287371,3.48762551 24.5992119,3.59828865 Z" id="Shape"></path>
                    <path d="M6.76013672,28.8583576 C14.9585906,24.3448894 23.8308901,17.8498985 29.4462695,10.474231 C29.7831922,10.1439772 29.1093467,9.48346964 28.7724239,9.81372341 C25.2908887,12.4557536 22.1462763,15.4280375 18.7770486,18.1801523 C14.6216679,21.5927746 10.2416719,24.4549739 5.97398361,27.6474271 C5.30013808,28.19785 5.97398361,29.2986959 6.76013672,28.8583576 Z" id="Shape"></path>
                    <path d="M3.48038416,6.35754999 C5.49059523,10.447228 7.6124847,14.4263742 9.51101737,18.5160522 C11.4095501,22.6057302 12.7496908,27.0270037 15.094937,30.8956181 C15.5416506,31.6693409 16.6584345,31.1166817 16.4350777,30.3429589 C14.6482234,21.8320073 9.1759822,12.8789284 4.82052488,5.47329528 C4.3738113,4.58904057 3.03367059,5.47329528 3.48038416,6.35754999 Z" id="Shape"></path>
                    <path d="M12.6190476,0.826638683 C14.0022684,4.97438722 15.9618312,9.01003444 17.4603204,13.0456817 C19.0740779,17.4176328 20.4572987,22.2379892 22.7626667,26.2736364 C23.2237403,27.0583456 24.2611559,26.4978391 24.1458875,25.7131299 C22.9932035,20.2201656 20.3420303,14.8393026 18.2671992,9.68264231 C16.9992468,6.43170427 15.8465628,2.84446229 12.9648528,0.490334748 C12.8495844,0.490334748 12.6190476,0.602436059 12.6190476,0.826638683 Z" id="Shape"></path>
                </g>
                <path d="M287.747578,87.0336634 C287.848516,87.0336634 287.848516,86.8316832 287.747578,86.8316832 C287.646641,86.8316832 287.646641,87.0336634 287.747578,87.0336634 Z" id="Shape" fill="#2E333E"></path>
                <g id="Group" transform="translate(151.406250, 8.059406)" fill="#2E333E">
                    <path d="M26.019676,176.990715 C33.2968685,173.276197 41.3166317,170.750325 50.2274797,169.858841 C71.4650006,167.48155 92.2569792,170.007422 110.524218,156.93232 C141.563671,134.793795 166.514046,95.8656514 156.563599,56.7889267 C153.593316,45.0510512 147.504237,33.7589178 138.890417,24.9926563 C134.286479,20.2380738 128.93997,16.5235563 123.147919,13.5519422 C122.256834,13.1062001 111.712331,7.75729482 110.821246,7.75729482 C110.524218,7.75729482 109.18759,7.46013341 111.118274,8.35161763 C113.791528,9.68884395 119.732094,12.8090387 120.474664,13.1062001 C123.147919,14.4434264 125.672659,16.3749756 128.197399,18.157944 C144.979496,30.3415616 157.009141,53.8173126 156.26657,77.2930636 C155.375486,104.780494 139.632988,126.621857 120.474664,145.045864 C109.18759,155.892255 96.8609173,163.469871 81.1184193,165.40142 C68.6432321,167.035808 56.0195308,165.995743 43.5443437,168.373034 C37.0097219,169.56168 30.4751,171.79039 24.3860206,174.762004 C12.50489,180.556652 9.23757905,184.41975 0.475245225,195.414722 C-0.415839572,196.454787 1.51484415,197.792013 2.40592895,196.751948 C2.40592895,196.751948 7.00986706,190.065817 13.8415172,184.41975 C17.4058564,181.448136 22.1583086,179.070845 26.019676,176.990715 Z" id="Shape"></path>
                    <path d="M96.5638891,2.25980882 C100.128228,4.48851936 102.949997,7.01439131 105.771765,10.1345861 C107.850963,12.3632966 110.227189,14.7405878 113.197472,15.9292335 C116.167755,17.1178791 120.474664,17.4150405 121.514263,13.7005229 C121.662777,13.1062001 120.920207,12.660458 120.474664,13.1062001 C113.048958,20.6838159 103.841082,3.44845444 96.7124032,1.96264742 C96.4153749,1.81406672 96.4153749,2.11122812 96.5638891,2.25980882 Z" id="Shape"></path>
                    <path d="M96.5638891,1.96264742 C100.276742,3.29987374 103.989596,2.11122812 107.850963,2.40838953 C111.563816,2.55697023 115.27667,3.74561585 118.098438,6.4200685 C120.029122,8.35161763 120.771693,10.5803282 121.514263,13.1062001 C121.662777,13.4033615 121.959806,13.4033615 122.10832,13.8491036 C122.256834,14.4434264 122.999405,14.4434264 123.147919,14.146265 C124.187518,9.54026325 120.623179,5.23142288 116.761811,3.15129304 C110.227189,-0.563224524 103.692567,2.40838953 96.8609173,1.21974391 C96.2668608,1.0711632 95.9698325,1.81406672 96.5638891,1.96264742 Z" id="Shape"></path>
                    <path d="M140.227044,0.0310982866 C138.593389,8.79735974 134.880535,21.129558 139.930016,29.3014967 C140.375558,30.0444002 141.712185,29.5986581 141.266643,28.7071739 C138.890417,22.9125265 139.038931,17.8607826 139.930016,11.7689738 C140.524072,7.90587552 141.266643,4.93426147 140.524072,1.0711632 C140.524072,0.774001799 140.227044,-0.117482416 140.227044,0.0310982866 Z" id="Shape"></path>
                    <path d="M140.07853,1.36832461 C141.118129,7.16297201 143.048813,12.5118773 144.830982,18.157944 C146.613152,23.9525914 146.761666,29.3014967 146.464638,35.2447248 C146.464638,36.136209 147.801265,36.2847897 148.098293,35.3933055 C152.405203,24.2497528 144.38544,11.4718124 140.672586,1.36832461 C140.524072,1.0711632 140.227044,0.774001799 140.375558,1.0711632 L140.07853,1.36832461 Z" id="Shape"></path>
                    <path d="M140.821101,15.6320721 C140.672586,22.4667844 143.494355,30.9358844 147.504237,36.4333704 C147.801265,36.8791125 147.058694,36.2847897 147.504237,35.8390476 C147.949779,35.0961441 147.949779,35.0961441 147.801265,34.650402 C146.464638,31.6787879 144.830982,28.7071739 143.791383,25.4383984 C142.751784,22.169623 142.306242,18.9008475 141.266643,15.6320721 C141.266643,15.1863299 140.821101,15.3349106 140.821101,15.6320721 Z" id="Shape"></path>
                    <path d="M129.236998,38.0677581 C131.46471,41.633695 134.880535,43.4166634 138.890417,44.1595669 C142.306242,44.9024705 145.12801,44.9024705 148.098293,46.9826003 C151.21709,49.2113108 152.553717,51.8857635 153.593316,55.4517003 C154.038858,56.640346 155.672514,56.1946038 155.524,55.0059582 C154.929943,50.6971179 151.959661,46.8340196 148.098293,44.605309 C146.167609,43.5652441 144.088412,43.119502 141.8607,42.8223406 C136.811219,42.2280178 133.395394,41.1879529 129.385512,37.9191774 C129.236998,37.7705967 129.088484,37.9191774 129.236998,38.0677581 Z" id="Shape"></path>
                    <path d="M130.425111,39.8507266 C134.434993,51.14286 143.939897,57.0860881 154.929943,60.2062828 C155.969542,60.5034442 156.712113,58.8690565 155.672514,58.4233144 C151.068576,56.3431845 146.316124,55.600281 142.157728,52.628667 C137.405276,49.2113108 133.543908,44.9024705 130.72214,39.8507266 C130.573625,39.5535652 130.425111,39.7021459 130.425111,39.8507266 Z" id="Shape"></path>
                    <path d="M141.712185,48.9141494 C144.236926,49.9542143 146.761666,50.9942793 148.840864,52.628667 C151.068576,54.2630547 152.256689,56.4917652 154.187373,58.4233144 C154.632915,58.8690565 155.524,58.4233144 155.375486,57.6804109 C154.038858,52.3315056 146.91018,48.4684073 141.712185,48.616988 C141.563671,48.7655687 141.563671,48.9141494 141.712185,48.9141494 Z" id="Shape"></path>
                    <path d="M170.523927,39.7021459 C163.840791,46.8340196 151.811146,58.8690565 156.860627,69.7154478 C157.157655,70.3097706 158.197254,70.0126092 158.197254,69.4182864 C158.197254,63.3264776 158.642797,58.4233144 162.058622,53.0744091 C164.88039,48.616988 168.593243,44.9024705 171.415012,40.4450494 C171.71204,39.8507266 170.96947,39.4049845 170.523927,39.7021459 Z" id="Shape"></path>
                    <path d="M170.523927,41.4851143 C166.365531,49.3598915 169.335814,58.2747337 163.692277,65.8523495 C160.424966,70.3097706 156.860627,74.0242881 157.603198,79.9675162 C157.603198,80.2646777 157.900226,80.5618391 158.197254,80.5618391 C158.642797,80.5618391 158.494282,80.2646777 158.642797,79.8189355 C159.83091,72.2413197 166.217017,68.3782215 168.890272,61.6920898 C171.266498,55.4517003 170.226899,46.6854389 171.415012,40.147888 C171.415012,39.8507266 170.672441,41.1879529 170.523927,41.4851143 Z" id="Shape"></path>
                    <path d="M164.137819,55.0059582 C159.979424,61.5435091 157.157655,68.8239636 157.157655,76.6987408 C157.157655,77.590225 158.494282,77.7388057 158.642797,76.8473215 C159.83091,69.2697057 161.316051,62.1378319 164.434848,55.0059582 C164.434848,55.0059582 164.137819,54.8573775 164.137819,55.0059582 Z" id="Shape"></path>
                    <path d="M140.07853,66.595253 C140.227044,71.4984162 143.048813,74.0242881 146.613152,76.9959022 C154.484401,83.6820338 152.702231,92.596876 152.256689,101.80888 C152.256689,102.700364 153.593316,102.848944 153.74183,101.95746 C155.672514,96.1628128 156.26657,88.1394549 153.74183,82.3448075 C150.920062,75.5100952 142.454756,73.8757074 140.524072,66.4466723 C140.524072,66.2980916 140.07853,66.2980916 140.07853,66.595253 Z" id="Shape"></path>
                    <path d="M140.227044,67.1895758 C139.781502,72.5384811 140.227044,79.5217741 142.157728,84.573518 C142.751784,86.2079058 143.642869,87.6937128 144.830982,89.0309391 C148.543836,93.7855216 150.474519,97.6486199 151.068576,103.740429 C151.21709,105.226236 153.296288,105.226236 153.296288,103.740429 C153.147774,98.2429427 152.108175,94.2312637 148.989378,89.9224233 C146.167609,86.0593251 143.939897,82.9391303 143.048813,78.3331285 C142.306242,74.618611 142.009214,70.7555127 140.821101,67.1895758 C140.524072,66.8924144 140.227044,66.8924144 140.227044,67.1895758 Z" id="Shape"></path>
                    <path d="M145.425039,80.4132584 C148.989378,86.6536479 150.474519,93.1911988 152.405203,100.025911 C152.553717,100.768815 153.74183,100.620234 153.593316,99.8773304 C153.147774,92.7454567 149.731949,86.0593251 145.573553,80.4132584 C145.573553,80.116097 145.276525,80.2646777 145.425039,80.4132584 Z" id="Shape"></path>
                    <path d="M149.880463,111.912367 C154.484401,103.740429 160.57348,98.2429427 169.929871,96.7571356 C170.078385,96.7571356 170.523927,96.6085549 170.523927,96.3113935 C170.523927,95.8656514 169.929871,95.4199093 169.781356,95.4199093 C160.870509,96.3113935 151.662632,102.700364 149.286406,111.615206 C149.137892,111.912367 149.583434,112.209529 149.880463,111.912367 Z" id="Shape"></path>
                    <path d="M169.484328,96.3113935 C167.553644,100.174492 165.771475,103.889009 162.652678,106.860623 C159.682395,109.535076 155.672514,111.169464 152.108175,113.101013 C146.464638,116.369788 141.712185,120.678629 138.444874,126.324695 C137.999332,127.21618 139.187445,128.256245 139.781502,127.36476 C145.573553,120.084306 152.108175,116.072627 159.83091,111.169464 C165.325932,107.603527 168.296215,102.848944 170.523927,96.7571356 C170.820955,96.1628128 169.781356,95.7170707 169.484328,96.3113935 Z" id="Shape"></path>
                    <path d="M159.088339,103.443267 C150.771547,109.237915 143.345841,116.964111 138.444874,125.878953 C137.850818,126.770438 139.187445,127.513341 139.781502,126.770438 C145.722067,118.598499 152.256689,111.169464 159.682395,104.334751 C159.979424,103.740429 159.533881,102.997525 159.088339,103.443267 Z" id="Shape"></path>
                    <path d="M133.24688,100.620234 C132.504309,105.820558 135.623106,110.27798 136.217162,115.478304 C137.256761,123.501662 133.989451,128.999148 130.276597,135.68528 C129.831055,136.428183 130.72214,137.468248 131.46471,136.873925 C135.77162,133.60515 137.999332,127.810502 138.593389,122.461597 C139.484473,114.438239 135.474592,108.34643 133.543908,100.768815 C133.692422,100.323072 133.24688,100.323072 133.24688,100.620234 Z" id="Shape"></path>
                    <path d="M132.652823,102.700364 C130.276597,110.42656 126.41523,118.004176 125.821173,126.176115 C125.672659,129.742052 125.524145,137.022506 129.831055,138.062571 C130.72214,138.359732 131.316196,137.171087 130.72214,136.576764 C123.444947,127.36476 132.504309,112.952432 132.949852,102.848944 C133.098366,102.403202 132.801337,102.403202 132.652823,102.700364 Z" id="Shape"></path>
                    <path d="M131.761739,116.66695 C131.316196,120.827209 131.613224,124.838888 130.870654,128.999148 C130.128083,132.713666 128.791456,135.982441 127.900371,139.548378 C127.751857,140.439862 128.791456,140.885604 129.385512,140.142701 C133.395394,133.902311 134.732021,123.501662 132.207281,116.518369 C132.058767,116.369788 131.761739,116.369788 131.761739,116.66695 Z" id="Shape"></path>
                    <path d="M146.613152,145.640187 C135.177564,142.817153 118.989523,145.045864 110.672732,154.257868 C110.078675,154.85219 110.821246,156.040836 111.563816,155.446513 C116.01924,152.177738 120.474664,149.354704 125.969687,147.868897 C132.801337,146.085929 139.484473,146.828832 146.464638,146.23451 C146.91018,146.38309 147.058694,145.788767 146.613152,145.640187 Z" id="Shape"></path>
                    <path d="M145.276525,146.531671 C134.732021,150.989092 124.336032,159.161031 112.75193,154.257868 C112.157873,153.960706 110.375703,153.514964 111.118274,153.514964 C111.860845,153.514964 110.375703,155.446513 110.672732,155.743675 C120.029122,163.767032 138.29636,153.217803 145.722067,146.977413 C145.722067,146.680252 145.425039,146.38309 145.276525,146.531671 Z" id="Shape"></path>
                    <path d="M135.177564,149.651866 C127.454829,148.017478 117.949924,150.394769 109.930161,153.960706 C107.108392,155.149352 101.910398,159.606773 102.652969,159.161031 C108.147991,156.635159 113.643014,154.406448 119.58358,152.920641 C124.781574,151.583415 130.128083,151.434834 135.177564,149.651866 C135.177564,149.800446 135.177564,149.651866 135.177564,149.651866 Z" id="Shape"></path>
                    <path d="M104.88068,137.468248 C103.989596,142.817153 103.098511,147.868897 100.276742,152.62348 C97.1579456,157.972385 92.7025216,160.795418 87.8015552,164.212775 C87.2074987,164.658517 87.504527,165.698582 88.3956118,165.40142 C99.2371435,162.578387 107.553935,148.166059 105.326223,137.468248 C105.177709,137.319667 104.88068,137.319667 104.88068,137.468248 Z" id="Shape"></path>
                    <path d="M104.286624,137.76541 C101.910398,140.588443 76.365967,160.646838 81.4154475,166.590066 C81.8609899,167.035808 84.2372161,166.144324 83.7916737,165.847162 C83.6431595,165.698582 83.4946454,165.550001 83.3461313,165.40142 C80.6728769,161.835483 94.0391488,149.651866 95.9698325,148.017478 C99.5341717,145.194445 103.395539,142.519992 104.88068,138.062571 C105.177709,137.76541 104.583652,137.468248 104.286624,137.76541 Z" id="Shape"></path>
                    <path d="M95.2272619,152.029157 C93.2965781,154.406448 91.6629227,157.080901 89.4352107,159.309611 C87.0589846,161.686903 84.3857302,163.618452 81.5639617,165.550001 C80.821391,165.995743 81.4154475,167.035808 82.3065323,166.738647 C88.0985835,164.212775 94.1876629,158.566708 95.9698325,152.474899 C96.1183467,152.029157 95.5242901,151.583415 95.2272619,152.029157 Z" id="Shape"></path>
                    <path d="M94.6332053,181.299555 C88.2470976,172.236133 75.4748822,164.955678 64.1878081,166.887227 C62.9996951,167.035808 63.2967233,168.967357 64.4848364,168.967357 C71.0194582,169.264518 76.8115094,170.453164 82.4550465,173.87052 C86.464928,176.247811 89.5837248,179.665168 93.4450923,182.33962 C94.1876629,182.933943 95.0787477,182.042459 94.6332053,181.299555 Z" id="Shape"></path>
                    <path d="M93.4450923,182.19104 C82.4550465,181.745297 74.5837974,180.11091 65.9699777,172.979036 C62.2571244,169.858841 59.58387,166.887227 54.5343895,167.778711 C53.4947906,167.927292 53.940333,169.413099 54.8314178,169.413099 C61.9600962,170.304583 68.6432321,179.070845 75.3263681,182.042459 C81.1184193,184.568331 87.9500694,185.756976 93.7421205,182.785362 C93.8906347,182.636782 93.7421205,182.19104 93.4450923,182.19104 Z" id="Shape"></path>
                    <path d="M77.9996225,175.653489 C72.950142,171.196068 67.3066049,168.373034 60.623469,167.48155 C59.7323842,167.332969 59.58387,168.818776 60.4749548,168.967357 C66.5640343,170.453164 72.5045996,172.830455 77.7025942,176.247811 C77.9996225,176.544973 78.2966507,175.95065 77.9996225,175.653489 Z" id="Shape"></path>
                    <path d="M53.940333,144.600122 C50.5245079,150.246189 43.5443437,150.989092 38.1978349,154.257868 C34.6334957,156.337997 31.514699,159.161031 29.286987,162.578387 C27.8018456,164.807097 25.2771054,169.413099 26.3167043,172.236133 C27.3563032,175.059166 30.7721283,173.573359 32.9998403,173.127617 C34.4849816,172.830455 33.8909251,170.601745 32.4057838,170.898906 C28.5444163,171.493229 28.5444163,170.750325 29.8810435,167.035808 C30.6236142,165.104259 31.514699,163.618452 32.702812,162.132645 C35.2275523,159.01245 38.4948632,156.486578 42.2077165,154.70361 C47.257197,152.177738 53.1977623,150.989092 54.5343895,144.897283 C54.3858754,144.451541 54.0888471,144.30296 53.940333,144.600122 Z" id="Shape"></path>
                    <path d="M53.0492482,147.423155 C50.9700503,151.583415 48.7423383,155.743675 46.069084,159.458192 C43.0988013,163.618452 39.385948,166.292904 35.3760664,169.413099 C34.6334957,170.007422 35.3760664,171.047487 36.2671512,170.898906 C45.6235416,168.075873 51.2670786,156.189417 53.4947906,147.571736 C53.3462765,147.423155 53.0492482,147.274574 53.0492482,147.423155 Z" id="Shape"></path>
                    <path d="M39.385948,159.606773 C35.5245805,163.469871 31.6632131,168.373034 30.1780718,173.72194 C30.0295576,174.464843 30.9206424,174.762004 31.3661848,174.167682 C34.4849816,169.56168 36.8612077,164.509936 40.1285186,160.052515 C40.4255469,159.755354 39.8314904,159.309611 39.385948,159.606773 Z" id="Shape"></path>
                </g>
                <g id="Group" transform="translate(0.000000, 5.029703)" fill="#2E333E">
                    <path d="M177.844509,199.481628 C164.568404,181.617602 143.535474,174.620858 121.010846,171.792387 C99.8287461,169.112783 78.7958158,171.345787 60.5971102,158.096634 C29.8681482,135.468867 5.10597495,96.1680088 15.5478552,57.1648845 C18.6804193,45.4044004 24.9455475,34.2393839 33.5973912,25.6051045 C38.2216524,20.990231 43.5917623,17.2685589 49.558551,14.2912211 C50.4535693,13.8446205 61.0446193,8.63427943 62.0888074,8.63427943 C62.3871468,8.63427943 63.7296743,8.33654565 61.7904679,9.22974697 C59.105413,10.569549 52.9894546,13.5468867 52.243606,13.9934873 C49.558551,15.1844224 47.0226658,17.119692 44.4867806,18.9060946 C27.4814327,30.8154455 15.2495158,54.1875468 15.697025,77.7085149 C16.2937038,105.248889 31.8073545,127.281188 50.7519088,146.038416 C61.9396377,157.054565 74.1715546,164.795644 90.1327144,167.028647 C102.662971,168.81505 115.342397,168.070715 127.872653,170.452585 C147.115547,174.323124 169.491005,180.873267 179.336206,197.992959 C179.932885,199.183894 178.590357,200.523696 177.844509,199.481628 Z" id="Shape"></path>
                    <path d="M76.5582701,2.82847085 C69.3981236,4.16827283 60.0004313,21.4368317 52.5419454,13.6957536 C52.0944362,13.2491529 51.3485877,13.6957536 51.4977574,14.2912211 C52.5419454,18.0128933 56.8678672,17.7151595 59.8512616,16.5242244 C62.834656,15.3332893 65.2213715,13.100286 67.3097475,10.8672827 C70.2931419,7.88994499 72.9781968,5.35920792 76.7074398,3.12620462 C76.8566095,3.12620462 76.7074398,2.82847085 76.5582701,2.82847085 Z" id="Shape"></path>
                    <path d="M76.4091003,2.08413641 C69.5472933,3.27507151 62.9838257,0.297733773 56.4203581,3.72167217 C52.6911151,5.65694169 49.2602116,9.82521452 49.8568905,14.1423542 C49.8568905,14.2912211 49.8568905,14.440088 50.0060602,14.5889549 C50.1552299,15.3332893 51.6469271,13.3980198 51.9452665,12.8025523 C54.331982,6.84787679 58.2103947,3.42393839 65.3705412,2.97733773 C69.2489539,2.82847085 72.9781968,4.01940594 76.7074398,2.67960396 C77.1549489,2.67960396 77.0057792,2.08413641 76.4091003,2.08413641 Z" id="Shape"></path>
                    <path d="M32.4040334,0.44660066 C31.6581848,4.76374037 32.5532031,8.9320132 33.149882,13.2491529 C33.8957306,18.9060946 33.7465609,23.9675688 31.5090151,29.3267767 C31.2106757,30.0711111 32.4040334,30.6665787 32.8515426,29.9222442 C38.0724827,21.7345655 34.4924095,9.37861386 32.8515426,0.595467547 C32.8515426,0.297733773 32.5532031,0.297733773 32.4040334,0.44660066 Z" id="Shape"></path>
                    <path d="M32.8515426,1.63753575 C29.1222996,11.760484 20.4704559,24.8607701 24.6472081,36.0257866 C24.9455475,36.770121 26.288075,36.770121 26.288075,35.8769197 C25.9897355,29.7733773 26.288075,24.5630363 28.0781116,18.7572277 C29.7189785,13.8446205 31.6581848,9.08088009 32.8515426,4.01940594 C33.0007123,3.12620462 32.8515426,1.33980198 32.8515426,1.63753575 Z" id="Shape"></path>
                    <path d="M31.5090151,15.9287569 C30.4648271,19.2038284 30.0173179,22.4788999 28.8239602,25.7539714 C27.7797721,28.880176 26.288075,31.7086469 24.9455475,34.5371177 C24.6472081,34.9837184 25.0947172,35.430319 24.9455475,36.0257866 C24.9455475,36.0257866 24.6472081,37.2167217 24.9455475,36.770121 C28.9731299,31.2620462 32.105694,22.7766337 31.9565243,15.9287569 C31.9565243,15.77989 31.6581848,15.77989 31.5090151,15.9287569 Z" id="Shape"></path>
                    <path d="M43.1442531,38.5565237 C39.1166707,41.8315952 35.6857672,42.8736634 30.6139968,43.320264 C28.376451,43.6179978 26.288075,43.9157316 24.3488686,44.9577998 C20.4704559,47.0419362 17.3378919,50.9124752 16.741213,55.229615 C16.5920433,56.4205501 18.2329102,57.0160176 18.6804193,55.6762156 C19.7246074,52.4011441 21.2163045,49.2749395 24.1996989,47.33967 C27.1830933,45.2555336 30.1664876,45.2555336 33.5973912,44.660066 C37.7741433,43.9157316 41.0558771,42.1293289 43.4425926,38.5565237 C43.5917623,38.5565237 43.2934229,38.4076568 43.1442531,38.5565237 Z" id="Shape"></path>
                    <path d="M41.8017257,40.3429263 C38.8183313,45.4044004 34.9399186,49.870407 30.0173179,53.1454785 C25.6913961,55.9739494 21.0671348,56.7182838 16.4428735,58.8024202 C15.3986855,59.2490209 16.1445341,60.8865567 17.1887221,60.5888229 C28.376451,57.6114851 37.923313,51.8056766 42.1000651,40.4917932 C42.1000651,40.1940594 41.9508954,40.1940594 41.8017257,40.3429263 Z" id="Shape"></path>
                    <path d="M30.7631665,49.2749395 C25.5422264,49.1260726 18.5312496,52.9966117 16.8903827,58.2069527 C16.741213,58.8024202 17.6362313,59.3978878 18.0837404,58.9512871 C20.0229468,57.0160176 21.2163045,54.7830143 23.60302,53.1454785 C25.8405658,51.6568097 28.376451,50.4658746 30.7631665,49.5726733 C30.7631665,49.4238064 30.7631665,49.2749395 30.7631665,49.2749395 Z" id="Shape"></path>
                    <path d="M1.07839255,40.4917932 C3.9126172,44.9577998 7.49269044,48.8283388 10.3269151,53.2943454 C13.6086489,58.6535534 14.0561581,63.5661606 13.9069883,69.8185699 C13.9069883,70.5629043 14.9511764,70.8606381 15.2495158,70.1163036 C20.4704559,59.2490209 8.53687847,47.0419362 1.82424114,39.8963256 C1.52590171,39.449725 0.780053113,40.0451925 1.07839255,40.4917932 Z" id="Shape"></path>
                    <path d="M1.07839255,40.4917932 C2.12258058,47.0419362 0.929222832,55.5273487 3.31593833,61.9286249 C5.85182354,68.7765017 12.4152911,73.6891089 13.4594792,81.2813201 C13.6086489,82.0256546 14.3544975,81.1324532 14.5036672,80.3881188 C15.3986855,74.5823102 11.8186123,70.7117712 8.53687847,66.2457646 C2.86842917,58.5046865 6.59767213,49.7215402 2.42092002,41.8315952 C2.2717503,41.5338614 1.52590171,40.6406601 1.52590171,40.9383938 L1.07839255,40.4917932 Z" id="Shape"></path>
                    <path d="M7.9401996,55.5273487 C10.923594,62.5240924 12.4152911,69.8185699 13.4594792,77.4107811 C13.6086489,78.3039824 14.9511764,78.0062486 14.9511764,77.2619142 C14.9511764,69.3719692 12.4152911,61.9286249 8.23853903,55.3784818 C8.08936932,55.229615 7.79102988,55.229615 7.9401996,55.5273487 Z" id="Shape"></path>
                    <path d="M31.5090151,67.1389659 C29.5698088,74.5823102 21.0671348,76.219846 18.0837404,82.9188559 C15.5478552,88.7246645 15.9953644,96.6146095 17.785401,102.569285 C18.0837404,103.462486 19.4262679,103.313619 19.2770982,102.420418 C18.9787588,93.1906711 17.1887221,84.2586579 25.2438869,77.7085149 C28.8239602,74.7311771 31.8073545,72.3493069 31.9565243,67.4366997 C32.105694,66.8412321 31.6581848,66.8412321 31.5090151,67.1389659 Z" id="Shape"></path>
                    <path d="M31.5090151,67.5855666 C30.3156574,70.8606381 29.8681482,74.2845765 29.2714693,77.7085149 C28.2272813,82.9188559 26.288075,86.1939274 23.0063412,90.5110671 C19.7246074,94.8282068 18.6804193,98.8476128 18.5312496,104.355688 C18.5312496,105.844356 20.6196257,105.69549 20.7687954,104.355688 C21.3654743,98.6987459 23.0063412,95.1259406 26.4372447,90.5110671 C27.7797721,88.7246645 28.9731299,87.2359956 29.8681482,85.1518592 C31.9565243,80.090385 32.4040334,73.0936414 31.9565243,67.7344334 C31.9565243,67.4366997 31.6581848,67.4366997 31.5090151,67.5855666 Z" id="Shape"></path>
                    <path d="M26.4372447,80.8347195 C22.2604926,86.4916612 18.6804193,93.1906711 18.2329102,100.336282 C18.2329102,101.080616 19.2770982,101.229483 19.4262679,100.485149 C21.3654743,93.6372717 23.0063412,87.2359956 26.5864144,80.9835864 C26.5864144,80.8347195 26.4372447,80.6858526 26.4372447,80.8347195 Z" id="Shape"></path>
                    <path d="M22.4096623,112.096766 C20.1721165,102.718152 10.0285757,96.0191419 0.780053113,95.5725413 C-0.114965197,95.5725413 0.0342045214,96.7634763 0.780053113,96.7634763 C10.7744242,98.1032783 17.1887221,103.76022 21.8129834,112.245633 C21.9621531,112.692233 22.4096623,112.543366 22.4096623,112.096766 Z" id="Shape"></path>
                    <path d="M0.332543958,96.7634763 C0.630883395,97.6566777 1.82424114,98.8476128 2.12258058,99.5919472 C4.21095664,104.504554 7.04518129,108.375094 11.6694426,111.501298 C19.4262679,116.413905 25.8405658,120.582178 31.6581848,128.025523 C32.2548637,128.769857 33.5973912,127.727789 33.0007123,126.983454 C29.7189785,121.326513 24.9455475,117.009373 19.4262679,113.585435 C15.9953644,111.501298 11.967782,109.863762 8.98438763,107.184158 C6.44850241,104.951155 4.80763551,101.973817 3.31593833,98.9964796 C2.86842917,98.2521452 1.67507142,97.210077 1.22756227,96.3168757 C0.929222832,95.7214081 -0.114965197,95.5725413 0.18337424,96.1680088 L0.18337424,96.7634763 L0.332543958,96.7634763 Z" id="Shape"></path>
                    <path d="M11.967782,104.504554 C19.4262679,111.501298 25.6913961,118.944642 31.6581848,127.281188 C32.2548637,128.174389 33.5973912,127.430055 33.0007123,126.387987 C28.0781116,117.455974 20.7687954,109.566029 12.5644609,103.76022 C12.1169517,103.462486 11.6694426,104.206821 11.967782,104.504554 Z" id="Shape"></path>
                    <path d="M38.0724827,101.229483 C36.2824461,108.375094 32.2548637,114.329769 32.7023729,121.92198 C33.0007123,127.430055 35.0890883,133.831331 39.5641799,137.25527 C40.3100285,137.850737 41.5033862,137.106403 40.9067074,136.213201 C37.3266341,129.514191 34.0449003,124.006117 35.2382581,115.967305 C35.9841067,110.756964 39.2658405,106.439824 38.5199919,101.229483 C38.5199919,101.080616 38.0724827,101.080616 38.0724827,101.229483 Z" id="Shape"></path>
                    <path d="M38.5199919,103.462486 C38.8183313,113.585435 47.9176841,128.174389 40.4591982,137.25527 C39.8625193,137.999604 40.4591982,139.041672 41.3542165,138.743938 C45.6801384,137.70187 45.6801384,130.407393 45.5309686,126.983454 C45.0834595,118.795776 40.9067074,109.566029 38.5199919,101.82495 C38.5199919,101.82495 38.6691616,103.164752 38.5199919,103.462486 Z" id="Shape"></path>
                    <path d="M39.4150102,117.307107 C36.879125,124.154983 38.0724827,134.724532 41.9508954,140.976942 C42.3984045,141.721276 43.5917623,141.274675 43.4425926,140.381474 C42.5475743,136.808669 41.2050468,133.38473 40.6083679,129.663058 C39.8625193,125.494785 40.1608588,121.47538 39.8625193,117.307107 C39.7133496,117.15824 39.5641799,117.15824 39.4150102,117.307107 Z" id="Shape"></path>
                    <path d="M24.6472081,147.080484 C31.6581848,147.675952 38.3708222,146.931617 45.2326292,148.866887 C50.7519088,150.504422 55.0778306,153.184026 59.5529222,156.607965 C60.2987708,157.203432 61.0446193,156.012497 60.4479405,155.41703 C52.243606,146.038416 35.9841067,143.507679 24.4980383,146.33615 C24.0505292,146.485017 24.1996989,147.080484 24.6472081,147.080484 Z" id="Shape"></path>
                    <path d="M25.6913961,147.527085 C33.0007123,153.779494 50.6027391,164.349043 60.149601,157.203432 C60.5971102,156.905699 61.3429588,155.41703 60.2987708,154.523828 C59.7020919,154.077228 59.105413,155.119296 58.3595644,155.41703 C46.7243264,160.031903 36.4316158,151.844224 25.9897355,147.229351 C25.6913961,147.080484 25.3930566,147.229351 25.6913961,147.527085 Z" id="Shape"></path>
                    <path d="M35.9841067,150.653289 C40.9067074,152.290825 46.4259869,152.439692 51.6469271,153.928361 C57.4645461,155.565897 62.9838257,157.947767 68.5031053,160.478504 C69.3981236,160.925105 63.878844,156.310231 60.8954496,154.970429 C52.9894546,151.397624 43.740932,148.866887 35.9841067,150.653289 C35.9841067,150.504422 35.9841067,150.504422 35.9841067,150.653289 Z" id="Shape"></path>
                    <path d="M66.2655595,138.595072 C63.878844,149.313487 72.0831785,163.753575 82.972568,166.87978 C83.7184165,167.028647 84.1659257,166.135446 83.5692468,165.688845 C78.6466461,162.11604 74.3207243,159.287569 71.1881602,153.928361 C68.5031053,149.16462 67.608087,144.103146 66.7130686,138.743938 C66.5638989,138.446205 66.2655595,138.446205 66.2655595,138.595072 Z" id="Shape"></path>
                    <path d="M66.4147292,139.339406 C67.9064264,144.103146 72.0831785,146.78275 75.8124215,149.760088 C77.7516278,151.397624 91.4752419,164.49791 87.2984898,167.177514 C86.4034715,167.772981 88.790187,168.666183 89.2376961,168.368449 C96.5470123,163.158108 69.5472933,141.721276 67.1605778,138.743938 C67.0114081,138.595072 66.4147292,138.297338 66.2655595,138.297338 C66.1163898,138.743938 66.4147292,139.190539 66.4147292,139.339406 Z" id="Shape"></path>
                    <path d="M75.2157426,153.779494 C77.0057792,159.883036 83.1217377,165.688845 88.790187,168.219582 C89.5360356,168.517316 90.1327144,167.624114 89.5360356,167.028647 C86.8509806,165.093377 84.1659257,163.158108 81.7792102,160.627371 C79.5416644,158.394367 78.0499672,155.714763 76.1107609,153.184026 C75.8124215,152.886293 75.0665729,153.332893 75.2157426,153.779494 Z" id="Shape"></path>
                    <path d="M77.4532884,183.850605 C81.3317011,181.171001 84.6134349,177.89593 88.6410173,175.514059 C94.3094666,172.090121 100.127086,171.048053 106.690553,170.899186 C107.883911,170.899186 108.18225,168.963916 106.988893,168.81505 C95.8011637,166.730913 82.8233982,173.876524 76.2599306,182.808537 C75.8124215,183.404004 76.7074398,184.297206 77.4532884,183.850605 Z" id="Shape"></path>
                    <path d="M77.3041187,184.148339 C83.1217377,187.125677 89.9835447,186.083608 95.8011637,183.552871 C102.662971,180.7244 109.375608,172.090121 116.535755,171.19692 C117.430773,171.048053 117.878282,169.708251 116.834094,169.559384 C111.463984,168.517316 108.48059,172.090121 104.453007,175.216326 C95.9503335,181.915336 88.0443384,183.255138 77.6024581,183.552871 C77.1549489,183.552871 77.0057792,183.999472 77.3041187,184.148339 Z" id="Shape"></path>
                    <path d="M93.563618,177.747063 C98.7845581,174.471991 104.900517,172.090121 110.867305,170.750319 C111.762324,170.601452 111.613154,169.112783 110.718136,169.26165 C103.856329,170.154851 98.3370489,172.834455 93.1161088,177.300462 C92.8177694,177.449329 93.1161088,178.044796 93.563618,177.747063 Z" id="Shape"></path>
                    <path d="M117.281603,146.485017 C118.474961,152.439692 123.994241,153.779494 128.916841,156.161364 C132.347745,157.7989 135.629479,160.031903 138.165364,162.860374 C139.657061,164.646777 140.850419,166.433179 141.745437,168.666183 C143.087964,172.387855 143.237134,173.281056 139.209552,172.685589 C137.717855,172.536722 137.121176,174.620858 138.612873,174.918592 C140.850419,175.514059 143.982983,176.853861 145.176341,174.174257 C146.518868,171.64352 143.833813,166.582046 142.640455,164.49791 C140.552079,161.073971 137.270345,158.096634 133.839442,156.012497 C128.469332,152.737426 121.309186,151.844224 117.878282,146.038416 C117.579943,146.038416 117.281603,146.33615 117.281603,146.485017 Z" id="Shape"></path>
                    <path d="M118.176621,149.462354 C120.264998,158.245501 125.784277,170.005985 135.181969,172.983322 C135.927818,173.281056 136.673667,172.090121 136.076988,171.494653 C132.198575,168.219582 128.469332,165.688845 125.485938,161.371705 C122.800883,157.501166 120.861676,153.332893 118.624131,149.16462 C118.474961,149.015754 118.176621,149.16462 118.176621,149.462354 Z" id="Shape"></path>
                    <path d="M131.303557,160.627371 C134.585291,165.242244 136.972006,170.154851 139.9554,174.918592 C140.25374,175.514059 141.297928,175.067459 141.148758,174.471991 C139.657061,169.112783 135.927818,164.051309 132.049405,160.18077 C131.751066,159.883036 131.005217,160.329637 131.303557,160.627371 Z" id="Shape"></path>
                </g>
                <path d="M254.53209,59.5830007 C252.712515,59.7263463 251.347833,61.3031484 250.286414,62.5932592 C249.073364,64.1700612 248.466839,65.8902089 248.315207,67.7537023 C248.163576,68.9004674 249.983152,68.9004674 250.286414,68.0403936 C250.892939,66.6069372 251.651096,65.1734807 252.712515,63.8833699 C253.622303,62.7366048 254.835353,61.8765309 255.290247,60.5864202 C255.59351,60.1563832 254.986984,59.439655 254.53209,59.5830007 Z" id="Shape" fill="#2E333E"></path>
                <path d="M239.997705,53.1199792 C239.211764,56.0423433 239.099486,59.5491802 239.324041,62.6176625 C239.436319,63.9327264 240.783647,63.9327264 240.895924,62.6176625 C240.895924,59.5491802 241.232757,56.4806979 241.232757,53.4122156 C241.345034,52.2432699 240.22226,52.2432699 239.997705,53.1199792 Z" id="Shape" fill="#2E333E"></path>
                <path d="M226.108948,57.4503559 C226.260585,60.8768084 227.625322,64.1662028 229.141697,67.181481 C229.596609,68.1408877 231.416258,67.4555972 231.112983,66.4961905 C230.051521,63.4809123 229.444971,60.1915179 228.231872,57.1762397 C227.77696,56.2168329 225.957311,56.353891 226.108948,57.4503559 Z" id="Shape" fill="#2E333E"></path>
                <g id="Group" transform="translate(104.975000, 111.069307)">
                    <g transform="translate(4.542188, 2.942178)" id="Shape">
                        <path d="M13.6265625,5.00170297 C13.6265625,5.00170297 9.084375,0.441326733 5.29921875,2.05952475 C1.5140625,3.82483168 1.5140625,3.82483168 1.96828125,7.50255446 C2.4225,11.3273861 6.81328125,14.7108911 9.53859375,15.5935446 C9.9928125,15.8877624 11.3554687,16.6233069 12.5667187,17.2117426 C13.0209375,17.5059604 13.4751562,17.6530693 13.7779687,17.8001782 C14.2321875,17.9472871 14.3835937,18.094396 14.3835937,18.094396 L14.9892187,17.3588515 C14.9892187,17.3588515 21.196875,14.1224554 21.9539062,10.1505149 C22.8623437,6.17857426 23.9221875,4.85459406 22.408125,3.67772277 C20.8940625,2.50085149 19.5314062,1.47108911 18.16875,1.61819802 C17.2603125,2.05952475 14.6864062,2.35374257 13.6265625,5.00170297 Z" fill="#F3817A"></path>
                        <path d="M13.929375,18.6828317 C11.6582812,16.7704158 8.93296875,16.476198 6.20765625,15.2993267 C4.845,14.7108911 3.48234375,13.8282376 2.4225,12.5042574 C1.5140625,11.1802772 0.9084375,9.85629703 0.605625,8.23809901 C0.3028125,6.7670099 0.3028125,5.00170297 1.21125,3.53061386 C2.1196875,2.05952475 3.63375,1.02976238 5.29921875,0.735544554 C8.63015625,0.147108911 11.8096875,1.91241584 13.0209375,4.41326733 C10.90125,2.50085149 8.1759375,1.61819802 5.7534375,2.35374257 C3.3309375,3.08928713 2.27109375,5.4430297 2.87671875,7.79677228 C3.17953125,8.97364356 3.63375,10.2976238 4.239375,11.1802772 C4.845,12.2100396 5.90484375,12.9455842 7.11609375,13.6811287 C8.32734375,14.4166733 9.53859375,15.0051089 10.90125,15.7406535 C11.9610937,16.476198 13.1723437,17.3588515 13.929375,18.6828317 Z" fill="#2E333E"></path>
                        <path d="M14.0807813,19.1241584 C14.9892188,18.094396 15.74625,16.9175248 16.9575,16.0348713 C18.0173438,15.1522178 19.0771875,14.4166733 19.985625,13.3869109 C21.8025,11.474495 23.01375,9.12075248 22.7109375,6.61990099 C22.7109375,6.03146535 22.5595313,5.4430297 22.2567188,4.85459406 C22.1053125,4.26615842 21.6510938,3.97194059 21.196875,3.67772277 C20.2884375,2.94217822 19.0771875,2.6479604 17.8659375,2.6479604 C16.6546875,2.6479604 15.4434375,3.23639604 14.6864063,4.26615842 C13.7779688,5.14881188 13.1723438,6.47279208 12.718125,7.79677228 C12.8695313,6.47279208 13.1723438,5.00170297 13.929375,3.82483168 C14.6864063,2.6479604 16.2004688,1.61819802 17.7145313,1.47108911 C19.2285938,1.3239802 20.8940625,1.61819802 22.2567188,2.50085149 C22.8623438,2.94217822 23.619375,3.67772277 23.9221875,4.41326733 C24.225,5.14881188 24.3764063,5.88435644 24.5278125,6.61990099 C24.830625,9.70918812 23.1651563,12.6513663 21.0454688,14.5637822 C19.985625,15.5935446 18.774375,16.3290891 17.563125,16.9175248 C16.2004688,17.3588515 15.2920313,18.241505 14.0807813,19.1241584 Z" fill="#2E333E"></path>
                    </g>
                    <path d="M4.5421875,5.00170297 C5.29921875,3.53061386 6.661875,2.50085149 8.02453125,1.61819802 C8.47875,1.3239802 8.1759375,0.441326733 7.5703125,0.588435644 C5.60203125,1.3239802 4.39078125,2.79506931 3.78515625,4.70748515 C3.63375,5.14881188 4.239375,5.29592079 4.5421875,5.00170297 Z" id="Shape" fill="#2E333E"></path>
                    <path d="M1.66546875,5.29592079 C1.96828125,4.26615842 2.57390625,3.23639604 3.028125,2.35374257 C3.48234375,1.61819802 2.57390625,1.02976238 1.96828125,1.47108911 C0.9084375,2.50085149 0.45421875,3.67772277 0.45421875,5.00170297 C0.45421875,5.88435644 1.5140625,5.88435644 1.66546875,5.29592079 Z" id="Shape" fill="#2E333E"></path>
                </g>
            </g>
        </g>
    </g>
</svg>