<?xml version="1.0" encoding="UTF-8"?>
<svg width="304px" height="206px" viewBox="0 0 304 206" version="1.1" xmlns="http://www.w3.org/2000/svg" xmlns:xlink="http://www.w3.org/1999/xlink">
    <!-- Generator: Sketch 51.2 (57519) - http://www.bohemiancoding.com/sketch -->
    <title>Main Illustration</title>
    <desc>Created with Sketch.</desc>
    <defs></defs>
    <g id="Page-1" stroke="none" stroke-width="1" fill="none" fill-rule="evenodd">
        <g id="UI-kit" transform="translate(-3294.000000, -137.000000)">
            <g id="Main-Illustration" transform="translate(3294.000000, 137.000000)">
                <g id="Group-23" transform="translate(163.000000, 128.000000)">
                    <path d="M1.16073313,11.0555548 C2.48668106,9.19403184 4.2302976,5.61886854 5.99989352,5.61886854 C7.17962413,5.61886854 11.9205291,4.62332511 20.2226086,2.63223826 L30.4644822,0.825671676 L33.7378849,0.825671676 L30.4644822,22.9271354 L25.7722053,22.9271354 C16.2770725,26.9652647 10.8567066,28.9843293 9.51110756,28.9843293 C7.49270905,28.9843293 4.58101932,28.2199358 4.58101932,26.7171282 C4.58101932,25.2143206 -0.165214803,12.9170778 1.16073313,11.0555548 Z" id="Path-17" fill="#FFFFFF"></path>
                    <path d="M1.01067605,11.2358431 C0.870752906,15.9331911 2.13006118,20.7728829 3.38936945,25.1855432 C4.08898515,27.747733 4.36883144,29.0288279 6.74752484,29.7405473 C9.96575708,30.7369544 14.4432976,28.6017962 17.3816836,27.747733 C21.4394547,26.4666381 25.9169952,25.327887 29.69492,23.3350727 C30.2546126,23.050385 29.9747663,22.0539778 29.4150737,22.0539778 C23.8181481,22.6233533 18.6409918,25.4702309 13.1839893,26.8936697 C11.9246811,27.3207013 9.82583394,28.1747646 8.42660253,27.8900768 C5.34829342,27.3207013 4.928524,24.0467921 4.22890829,21.7692901 C3.24944631,18.2106931 2.96960002,14.5097523 1.57036861,11.0934992 C1.43044547,10.9511553 1.01067605,10.9511553 1.01067605,11.2358431 Z" id="Shape" fill="#2E333E" fill-rule="nonzero"></path>
                    <path d="M0.851988256,13.74677 C1.2842044,3.18346253 25.9205245,3.7622739 32.6919107,1.0129199 C33.1241269,0.868217054 33.1241269,0 32.5478387,0 C24.479804,0.434108527 15.4032651,2.60465116 7.62337449,4.7751938 C3.30121306,5.93281654 -1.16502041,8.5374677 0.275700066,13.6020672 C0.563844161,14.1808786 0.851988256,14.0361757 0.851988256,13.74677 Z" id="Shape" fill="#2E333E" fill-rule="nonzero"></path>
                    <path d="M2.2330136,11.197247 C7.01464272,11.6174712 10.9524549,12.7380692 15.3121756,14.5590409 C16.2966286,14.9792652 17.8436263,16.2399379 18.9687155,15.9597884 C20.7969855,15.3994894 22.7658916,12.5979944 23.8909808,11.3373217 C26.7037038,8.53582677 29.3757906,5.59425707 31.9072413,2.51261262 C32.1885136,2.23246312 31.7666052,1.81223888 31.4853329,2.09238837 C26.9849761,6.01448131 21.5001662,14.4189662 15.0309033,13.0182187 C10.3899103,12.0376955 7.01464272,10.636948 2.09237745,10.7770227 C1.9517413,10.7770227 1.9517413,11.197247 2.2330136,11.197247 Z" id="Shape" fill="#2E333E" fill-rule="nonzero"></path>
                    <path d="M18.3633354,11.6367058 C18.6497166,10.9059325 19.0792884,9.88284989 19.9384319,9.44438592 C20.7975754,9.00592195 21.9431001,8.85976729 22.3726719,9.1520766 C22.9454343,9.44438592 23.9477684,10.3213139 24.3773401,11.0520871 C24.8069119,11.7828604 24.8069119,12.0751697 24.9501025,12.805943 C25.0932931,13.682871 24.9501025,15.4367268 24.2341495,16.3136548 C23.5181966,17.0444281 22.8022437,17.482892 22.3726719,18.2136653 C22.0862907,18.9444386 21.7999095,18.9444386 21.7999095,19.6752119 C21.656719,20.4059852 20.940766,19.6752119 20.940766,19.6752119 C20.940766,19.6752119 19.5088601,18.2136653 18.7929072,18.2136653 C18.2201448,18.2136653 17.5041919,17.921356 16.6450484,17.6290467 C15.7859048,17.3367374 14.4971895,17.0444281 14.4971895,16.1675001 C14.4971895,15.2905722 13.7812366,14.7059536 14.0676178,14.1213349 C14.353999,13.5367163 14.4971895,12.5136337 15.0699519,12.367479 C15.6427142,12.2213244 16.072286,11.3443965 17.0746201,11.4905511 C18.0769542,11.6367058 18.3633354,11.6367058 18.3633354,11.6367058 Z" id="Shape" fill="#F3817A" fill-rule="nonzero"></path>
                    <path d="M18.9222222,11.08 C19.9333333,8.7 22.9666667,9.4 23.9777778,11.36 C24.4111111,12.2 24.5555556,13.18 24.5555556,14.02 C24.5555556,15.42 23.8333333,15.84 22.8222222,16.54 C21.5222222,17.66 20.8,18.92 21.0888889,20.6 C21.2333333,21.16 22.2444444,21.02 22.2444444,20.46 C22.2444444,18.78 23.1111111,17.94 24.2666667,16.82 C24.7,16.4 24.9888889,15.84 25.2777778,15.28 C25.7111111,13.74 25.2777778,11.78 24.2666667,10.52 C22.6777778,8.42 19.3555556,8.42 18.2,10.94 C18.2,11.08 18.7777778,11.36 18.9222222,11.08 Z" id="Shape" fill="#2E333E" fill-rule="nonzero"></path>
                    <path d="M18.3444444,11.78 C16.3222222,9.96 13.1444444,12.48 13.2888889,14.72 C13.4333333,15.98 14.1555556,17.1 15.4555556,17.66 C16.3222222,18.08 17.3333333,18.08 18.0555556,18.36 C19.5,18.92 20.2222222,19.76 21.0888889,20.88 C21.2333333,21.16 21.6666667,21.02 21.8111111,20.74 C21.9555556,18.92 19.3555556,17.66 17.9111111,17.24 C16.3222222,16.82 14.5888889,16.96 14.1555556,14.86 C13.5777778,12.2 16.3222222,11.78 18.2,12.06 C18.4888889,12.06 18.4888889,11.78 18.3444444,11.78 Z" id="Shape" fill="#2E333E" fill-rule="nonzero"></path>
                </g>
                <g id="Group-22" transform="translate(150.000000, 84.000000)">
                    <path d="M3.50583964,19.3228412 C2.37606939,18.3835865 1.81118426,15.3653147 1.81118426,10.2680257 L1.81118426,4.05995152 C1.77054983,3.55635109 2.33543496,2.84658093 3.50583964,1.93064101 C4.67624432,1.01470109 11.4695209,1.01470109 23.8856694,1.93064101 C25.6902375,2.58478864 26.5925216,3.68991179 26.5925216,5.24601044 C26.5925216,6.8021091 26.213156,8.99503579 25.4544246,11.8247905 L25.4544246,17.7261082 C24.7729653,18.7905969 23.647525,19.3228412 22.0781036,19.3228412 C19.7239714,19.3228412 5.20049503,20.7317234 3.50583964,19.3228412 Z" id="Path-18" fill="#FFFFFF"></path>
                    <path d="M1.12,6.44 C0.98,9.66 -2.70894418e-13,14.28 0.84,17.5 C1.12,18.76 0.98,18.9 2.1,19.6 C4.48,20.86 9.24,20.02 11.76,20.16 C15.82,20.3 19.88,20.44 23.94,20.02 C24.64,19.88 24.64,19.04 23.94,19.04 C18.76,18.62 13.44,18.76 8.26,18.62 C7.28,18.62 5.74,18.76 4.76,18.48 C2.8,17.78 2.52,16.1 2.1,14.56 C1.54,12.18 1.96,9.1 1.82,6.72 C1.82,6.02 1.12,6.02 1.12,6.44 Z" id="Shape" fill="#2E333E" fill-rule="nonzero"></path>
                    <path d="M2.1,6.3 C1.96,0.28 8.96,1.54 12.46,1.82 C15.4,1.96 18.9,1.82 21.7,2.52 C23.38,2.94 24.92,3.08 25.48,5.18 C25.76,6.3 25.2,8.68 25.2,9.94 C25.06,12.32 25.76,18.2 22.96,18.76 C22.26,18.9 22.4,19.46 23.1,19.32 C24.08,19.18 23.38,20.02 24.22,19.88 C24.5,19.88 25.9,19.18 25.9,18.34 C26.04,15.26 26.18,12.04 26.32,8.96 C26.32,7.42 27.44,3.78 26.46,2.52 C25.34,0.98 19.88,1.54 18.06,1.4 C15.12,1.12 -1.68,-1.4 1.4,6.58 C1.54,6.72 2.1,6.72 2.1,6.3 Z" id="Shape" fill="#2E333E" fill-rule="nonzero"></path>
                    <path d="M2.1,3.78 C5.32,5.46 7.28,7.7 9.8,10.22 C10.64,11.06 11.76,12.6 13.02,12.74 C14.56,13.02 16.66,10.36 17.5,9.66 C20.44,7.56 23.38,5.88 26.6,4.2 C27.02,4.06 26.74,3.22 26.32,3.5 C24.22,4.34 22.26,5.18 20.3,6.3 C18.2,7.56 15.68,10.08 13.3,10.22 C9.8,10.36 6.3,4.48 2.38,3.08 C1.96,3.08 1.82,3.64 2.1,3.78 Z" id="Shape" fill="#2E333E" fill-rule="nonzero"></path>
                    <path d="M12.32,15.4 C11.76,14.42 11.2,12.88 10.08,12.04 C8.82,11.2 8.82,9.94 9.1,9.38 C9.38,8.82 10.22,7.98 11.2,7.98 C12.18,7.98 12.88,8.26 13.16,8.82 C13.3,9.1 14.28,8.12 15.12,7.84 C15.82,7.7 16.66,8.26 16.8,8.54 C17.36,9.1 17.78,9.8 17.78,10.78 C17.64,11.76 15.82,12.88 14.98,13.44 C14.14,14 12.32,15.4 12.32,15.4 Z" id="Shape" fill="#F3817A" fill-rule="nonzero"></path>
                    <path d="M13.44,9.38 C14.98,6.72 18.62,8.82 17.22,11.34 C16.8,12.18 15.82,12.74 14.98,13.16 C13.72,13.86 12.6,14.7 12.04,15.96 C11.9,16.38 12.6,16.66 12.74,16.24 C14,14 18.06,13.3 18.06,10.22 C17.92,7.42 14.42,6.72 13.02,9.1 C12.88,9.38 13.3,9.66 13.44,9.38 Z" id="Shape" fill="#2E333E" fill-rule="nonzero"></path>
                    <path d="M13.44,9.24 C13.16,8.54 13.44,8.54 12.88,8.12 C12.46,7.84 11.9,7.7 11.34,7.56 C10.36,7.42 9.38,7.98 8.82,8.82 C7,12.04 11.76,12.88 11.62,15.68 C11.62,16.1 12.04,16.1 12.32,15.82 C13.02,14.56 12.04,13.3 11.2,12.6 C10.36,11.9 9.24,11.06 9.52,9.8 C9.8,8.68 10.92,8.12 12.04,8.68 C11.9,8.68 13.3,9.52 13.3,9.52 C13.16,9.52 13.44,9.38 13.44,9.24 Z" id="Shape" fill="#2E333E" fill-rule="nonzero"></path>
                </g>
                <g id="Безымянный-3" transform="translate(177.000000, 55.000000)" fill="#2E333E" fill-rule="nonzero">
                    <path d="M3.5,4.5 C4.1,6.6 5.7,8.6 6.7,10.7 C7.2,11.7 7.6,14.4 9,14.4 C9.4,14.4 9.6,14.1 9.7,13.7 C9.7,13.7 9.7,13.6 9.7,13.6 C9.7,13.4 9.6,13.2 9.4,13.1 C9.4,13.1 9.3,13.1 9.3,13 C9,12.8 8.6,13 8.5,13.3 C8.5,13.3 8.5,13.3 8.5,13.4 C8.4,13.7 8.7,14 9,14.1 C9,14.1 9,14.1 9.1,14.1 C8.9,14 8.7,13.8 8.6,13.7 C8.6,13.6 8.7,13.4 8.7,13.3 C9,13.3 9.2,13.2 9.5,13.2 C9.1,12.9 8.8,11.7 8.6,11.2 C8.2,10.3 7.7,9.4 7.2,8.5 C6.4,7 5.6,5.2 4.2,4.2 C3.8,4 3.4,4.2 3.5,4.5 Z" id="Shape"></path>
                    <path d="M6.8,1.9 C7.6,3.6 8.5,5.3 9.3,7.1 C10,8.6 10.6,10.4 11.8,11.6 C12.1,11.8 12.6,11.7 12.6,11.3 C12.4,9.7 11.3,8.3 10.5,6.9 C9.5,5.1 8.5,3.4 7.3,1.7 C7.1,1.2 6.6,1.5 6.8,1.9 Z" id="Shape"></path>
                    <path d="M1,11.1 C3.3,10.4 5.4,8.7 7.2,7.1 C8.7,5.7 11.4,3.4 11.7,1.2 C11.5,1.1 11.3,1.1 11.1,1 C11.1,1.2 11,1.5 11,1.7 C11,1.8 11.1,2 11.2,1.8 C11.3,1.6 11.5,1.4 11.6,1.3 C11.8,1 11.5,0.6 11.2,0.8 C10.4,1.3 10,2.1 9.4,2.9 C8.6,4 7.7,5 6.7,6 C4.9,7.7 2.7,9 0.9,10.7 C0.6,10.8 0.8,11.1 1,11.1 Z" id="Shape"></path>
                    <path d="M4.2,13.8 C7.7,12.9 11.6,9.4 13.6,6.4 C14,5.8 13.1,5.2 12.7,5.7 C11.3,7.1 10.1,8.6 8.6,9.9 C7.1,11.2 5.5,12.2 4.1,13.5 C3.9,13.6 4,13.8 4.2,13.8 Z" id="Shape"></path>
                </g>
                <g>
                    <g id="Main-Illustration-1">
                        <g id="Group-24" transform="translate(133.000000, 142.000000)" fill="#2E333E" fill-rule="nonzero">
                            <path d="M5.89277108,4.30240964 C7.5060241,6.03975904 8.87108434,7.90120482 10.1120482,9.88674699 C10.9807229,11.3759036 11.4771084,13.8578313 13.0903614,14.6024096 C13.4626506,14.8506024 14.0831325,14.6024096 14.2072289,14.1060241 C14.7036145,12.2445783 12.8421687,10.0108434 11.8493976,8.52168675 C10.4843373,6.53614458 8.99518072,4.6746988 7.25783133,3.06144578 C6.38915663,2.31686747 5.14819277,3.55783133 5.89277108,4.30240964 Z" id="Shape"></path>
                            <path d="M1.79759036,5.91566265 C2.04578313,8.0253012 4.52771084,9.88674699 5.64457831,11.5 C7.25783133,13.8578313 8.74698795,16.339759 9.86385542,18.9457831 C10.360241,20.0626506 11.973494,19.0698795 11.4771084,17.953012 C10.2361446,15.346988 8.74698795,12.7409639 7.00963855,10.5072289 C5.89277108,8.8939759 4.0313253,5.91566265 1.79759036,5.91566265 C1.92168675,5.79156627 1.79759036,5.91566265 1.79759036,5.91566265 Z" id="Shape"></path>
                            <path d="M1.4253012,13.4855422 C5.39638554,10.6313253 9.36746988,6.41204819 11.7253012,2.0686747 C12.0975904,1.32409639 11.1048193,0.579518072 10.6084337,1.2 C8.99518072,3.06144578 7.63012048,5.29518072 6.01686747,7.15662651 C4.40361446,9.14216867 2.66626506,10.8795181 0.928915663,12.7409639 C0.556626506,13.113253 0.928915663,13.7337349 1.4253012,13.4855422 Z" id="Shape"></path>
                            <path d="M4.52771084,18.9457831 C6.88554217,17.3325301 8.87108434,15.0987952 10.6084337,12.7409639 C12.2216867,10.6313253 14.4554217,7.90120482 14.7036145,5.17108434 C14.7036145,4.6746988 14.2072289,4.55060241 13.8349398,4.79879518 C11.973494,6.53614458 10.8566265,9.39036145 9.36746988,11.5 C7.75421687,13.9819277 5.7686747,16.0915663 4.0313253,18.573494 C4.0313253,18.8216867 4.27951807,19.0698795 4.52771084,18.9457831 Z" id="Shape"></path>
                        </g>
                        <path d="M38.6249854,189.515645 C36.7740292,185.578056 37.6876247,180.435249 43.4127716,176.780197 C49.1379185,173.125144 53.7162974,170.866454 60.2082064,159.154839 C66.7001154,147.443223 68.6145108,134.634569 68.6145108,132.31915 C68.6145108,130.775538 67.976379,131.603207 66.7001154,134.802155 C60.3048242,140.675128 55.5807847,144.195982 52.5279968,145.364717 C47.948815,147.11782 39.6516758,149.010394 36.9448418,149.010394 C34.2380078,149.010394 19.780731,145.815037 16.5212287,143.488593 C13.2617265,141.162149 4.26329513,134.318955 4.26329513,132.31915 C4.26329513,130.319346 7.78826187,132.837227 9.3801118,130.938033 C10.9719617,129.038839 16.5212287,128.31154 16.5212287,125.224316 C16.5212287,122.137092 15.1113045,109.593866 13.2837781,106.021507 C11.4562517,102.449147 2.23179141,83.4558278 2.23179141,75.6716127 C2.23179141,67.8873976 0.194774781,57.8980224 4.26329513,47.1671621 C8.33181548,36.4363019 12.4844076,28.7444279 16.5212287,25.3925846 C20.5580499,22.0407412 33.590546,13.7190184 39.9097079,12.0238016 C46.2288697,10.3285847 58.2979865,10.3285847 60.2082064,10.3285847 C62.1184263,10.3285847 65.8933848,4.50420568 72.3682861,2.58433818 C78.8431873,0.664470685 95.406696,2.53747853 98.8839578,4.50420568 C102.36122,6.47093283 113.772923,11.2781818 117.516182,13.8885401 C121.259442,16.4988983 125.237583,25.669781 127.620534,28.9499567 C130.003485,32.2301323 133.412658,42.7761371 133.412658,47.1671621 C133.412658,51.5581872 132.826884,61.2453249 130.886344,64.6826182 C130.07608,66.1178429 130.797333,65.0474441 132.175234,68.371587 C132.723302,69.6937851 133.789056,73.1633112 135.372495,78.7801651 C135.199821,88.4135731 134.546542,95.1724103 133.412658,99.0566765 C131.711831,104.883076 125.649816,114.017359 123.042531,116.410909 C120.435246,118.80446 117.535877,122.978973 114.610103,125.224316 C112.659587,126.721212 108.27578,128.077497 101.458684,129.293171 C99.7421999,140.007535 100.842521,147.789791 104.759647,152.639939 C110.635336,159.91516 115.996095,168.370241 119.147324,169.338174 C121.248144,169.983462 126.003256,174.128018 133.412658,181.77184 C138.002092,186.310205 140.296809,189.37097 140.296809,190.954134 C140.296809,192.537299 138.655371,195.635691 135.372495,200.249309 L123.042531,201.793176 L110.415444,203.471039 L89.0250182,203.471039 L74.4532419,201.793176 L58.5065498,198.900027 L38.6249854,190.954134 C39.8589562,192.620201 39.8589562,192.140704 38.6249854,189.515645 Z" id="Combined-Shape" fill="#FFFFFF"></path>
                        <path d="M60.6108576,158.496112 C62.9624511,155.773474 67.8501734,149.408481 67.8501734,147.240437 C67.8501734,145.072392 69.2425773,136.545275 69.2425773,136.545275 C69.2425773,136.545275 67.9777406,132.893271 69.7280477,130.729941 C71.4783548,128.566612 74.3838228,123.197749 75.0550875,121.094453 C75.5025973,119.692255 76.0715343,117.972619 76.7618983,115.935543 C76.3831254,112.555397 76.3831254,110.925122 76.7618983,111.044721 C79.656074,111.958561 83.0765769,111.958561 83.9362754,111.958561 C85.5013728,111.958561 93.3973549,109.460415 95.8417095,108.030512 C98.2860641,106.600609 105.40021,102.851116 107.243591,100.825174 C108.472511,99.4745451 111.107103,95.6079806 115.147367,89.2254801 C115.318385,89.7354683 115.064099,89.1010081 114.384509,87.3220995 C113.365123,84.6537366 113.663319,80.8730403 113.663319,76.3794388 C113.663319,71.8858374 119.784092,69.1562839 122.352742,69.1562839 C124.065176,69.1562839 125.485922,69.7631679 126.614981,70.9769358 C128.602836,69.4404668 130.505914,66.0762571 132.324216,60.8843068 C135.051669,53.0963812 133.479663,40.2723254 131.746806,37.0700926 C130.739755,35.2091128 132.712748,41.9949197 133.239729,49.4167631 C133.619537,54.7658648 132.566063,60.8066115 132.324216,62.473594 C131.939276,65.1268671 132.633544,69.0735971 134.407018,74.3137837 C135.584485,76.103823 136.173218,78.1492635 136.173218,80.4501053 C136.173218,83.9013679 135.358689,93.497655 132.324216,101.871815 C130.301233,107.454588 127.25273,112.306166 123.178704,116.426549 C120.180807,119.538485 118.129371,121.755262 117.024399,123.076879 C115.366939,125.059306 105.187973,129.584592 101.418435,129.584592 C100.122632,129.584592 100.55703,131.870182 100.457752,133.341584 C100.268228,136.150543 100.696871,139.570413 101.418435,143.569065 C102.151459,147.631227 104.616806,152.889677 108.814475,159.344414 C106.738922,162.1742 102.050246,165.03185 94.7484472,167.917363 C83.7957489,172.245634 76.5619827,171.213461 71.9885997,170.097196 C68.9396776,169.353019 65.7177463,167.002129 62.3228058,163.044525 C61.4149833,161.505621 60.8443339,160.512178 60.6108576,160.064193 C60.0883817,159.061689 59.6722651,159.5828 60.6108576,158.496112 Z" id="Path-6" fill="#FFFFFF"></path>
                        <path d="M78.6189434,18.5863419 C82.5444148,19.2765184 85.7466995,21.8364248 88.2257975,26.2660609 C90.7048954,30.695697 90.7048954,35.7507063 88.2257975,41.4310886 C85.610202,45.2717219 82.8322174,47.1920385 79.8918435,47.1920385 C76.9514696,47.1920385 74.4424105,47.1920385 72.3646662,47.1920385 C71.1090505,46.6247073 70.6936454,46.1362283 71.1184509,45.7266014 C73.2654397,43.6563262 78.0059532,41.1781453 78.6189434,39.0262606 C79.8113243,34.8404418 83.0295042,31.9914737 82.034813,30.1737691 C81.3716855,28.961966 80.2330623,25.0994903 78.6189434,18.5863419 Z" id="Path-8" fill="#38D9F4"></path>
                        <path d="M3.22650602,131.542169 C8.06626506,132.53494 12.7819277,130.549398 15.760241,126.578313 C20.3518072,120.49759 18.986747,111.93494 16.3807229,105.357831 C13.1542169,97.4156627 8.19036145,90.4662651 5.70843373,82.1518072 C3.35060241,74.0855422 2.6060241,65.5228916 3.59879518,57.2084337 C5.70843373,38.8421687 16.6289157,22.7096386 34.0024096,15.5120482 C42.9373494,11.7891566 52.7409639,10.6722892 62.1722892,12.5337349 C72.4722892,14.3951807 83.3927711,21.9650602 80.1662651,33.8783133 C77.560241,43.6819277 66.7638554,42.9373494 61.5518072,50.2590361 C57.0843373,56.5879518 58.3253012,64.9024096 59.8144578,71.8518072 C60.0626506,73.2168675 61.9240964,72.5963855 61.8,71.3554217 C61.1795181,66.639759 60.3108434,61.1795181 61.5518072,56.4638554 C63.0409639,50.5072289 67.5084337,48.1493976 72.5963855,45.5433735 C78.0566265,42.813253 81.7795181,38.9662651 82.5240964,32.6373494 C84.3855422,16.753012 68.1289157,10.1759036 54.8506024,9.67951807 C20.9722892,8.31445783 -2.23373494,38.9662651 1.24096386,71.2313253 C2.10963855,79.5457831 4.71566265,87.4879518 8.68674699,94.8096386 C11.7891566,100.642169 15.3879518,106.226506 16.5048193,112.803614 C17.9939759,121.366265 13.526506,131.418072 3.4746988,130.79759 C2.97831325,130.79759 2.85421687,131.418072 3.22650602,131.542169 Z" id="Shape" fill="#2E333E" fill-rule="nonzero"></path>
                        <path d="M3.22650602,131.914458 C4.71566265,137.126506 10.7963855,141.221687 15.2638554,143.951807 C20.6,147.178313 26.4325301,149.163855 32.6373494,149.660241 C45.7915663,150.901205 59.1939759,145.192771 67.7566265,135.140964 C76.0710843,125.461446 80.1662651,112.431325 75.326506,100.393976 C70.3626506,88.2325301 59.0698795,77.9325301 60.8072289,63.7855422 C60.9313253,62.5445783 58.9457831,62.2963855 58.6975904,63.5373494 C57.2084337,72.5963855 61.4277108,80.5385542 66.0192771,88.1084337 C68.873494,92.9481928 72.1,97.7879518 73.9614458,103.248193 C76.6915663,110.818072 75.4506024,118.387952 71.8518072,125.461446 C65.3987952,138.36747 52.6168675,146.681928 38.2216867,147.550602 C31.2722892,147.922892 24.1987952,146.309639 17.8698795,143.207229 C12.0373494,140.353012 8.5626506,135.016867 3.35060241,131.790361 C3.35060241,131.790361 3.22650602,131.914458 3.22650602,131.914458 Z" id="Shape" fill="#2E333E" fill-rule="nonzero"></path>
                        <path d="M77.8084337,18.986747 C85.626506,20.8481928 90.0939759,28.4180723 88.7289157,36.2361446 C87.860241,41.3240964 85.1301205,45.2951807 79.5457831,45.7915663 C76.939759,46.039759 74.3337349,45.5433735 71.8518072,45.5433735 C70.7349398,45.5433735 70.486747,47.2807229 71.6036145,47.5289157 C80.5385542,49.7626506 89.1012048,46.1638554 90.5903614,36.4843373 C91.9554217,27.7975904 86.8674699,19.6072289 78.1807229,17.8698795 C77.4361446,17.9939759 77.1879518,18.8626506 77.8084337,18.986747 Z" id="Shape" fill="#2E333E" fill-rule="nonzero"></path>
                        <path d="M61.9240964,10.0518072 C68.1289157,1.48915663 81.4072289,1.86144578 90.8385542,3.4746988 C99.2771084,4.96385542 107.219277,8.5626506 113.920482,13.8987952 C121.242169,19.7313253 126.950602,27.673494 129.928916,36.6084337 C133.279518,46.660241 132.659036,55.8433735 131.045783,66.0192771 C130.79759,67.260241 132.53494,67.7566265 132.907229,66.5156627 C139.856627,46.2879518 129.556627,22.5855422 112.803614,10.5481928 C104.240964,4.46746988 94.1891566,1.24096386 83.7650602,0.868674699 C75.4506024,0.620481928 65.3987952,1.48915663 60.5590361,9.18313253 C59.9385542,10.1759036 61.3036145,10.9204819 61.9240964,10.0518072 Z" id="Shape" fill="#2E333E" fill-rule="nonzero"></path>
                        <path d="M29.0385542,133.527711 C42.813253,130.79759 56.2156627,113.175904 53.6096386,98.9048193 C53.4855422,98.2843373 52.6168675,98.2843373 52.4927711,98.9048193 C51.1277108,106.10241 50.5072289,112.555422 46.2879518,118.884337 C41.8204819,125.585542 35.739759,129.43253 28.7903614,133.031325 C28.5421687,133.155422 28.7903614,133.527711 29.0385542,133.527711 Z" id="Shape" fill="#2E333E" fill-rule="nonzero"></path>
                        <path d="M22.7096386,143.331325 C38.3457831,142.462651 53.2373494,133.279518 59.1939759,118.387952 C62.1722892,111.066265 62.6686747,102.751807 60.186747,95.1819277 C58.6975904,90.7144578 56.2156627,86.6192771 54.726506,82.1518072 C52.9891566,76.5674699 52.7409639,70.8590361 53.113253,65.026506 C53.113253,64.0337349 51.5,63.7855422 51.2518072,64.7783133 C49.886747,71.8518072 50.8795181,79.0493976 53.6096386,85.7506024 C56.960241,93.9409639 60.5590361,100.518072 59.4421687,109.701205 C57.0843373,128.936145 40.4554217,139.73253 22.5855422,142.710843 C22.213253,142.83494 22.3373494,143.455422 22.7096386,143.331325 Z" id="Shape" fill="#2E333E" fill-rule="nonzero"></path>
                        <path d="M25.1915663,41.4481928 C29.5349398,33.1337349 35.3674699,26.1843373 44.3024096,22.5855422 C52.4927711,19.2349398 70.1144578,17.1253012 73.0927711,28.6662651 C73.3409639,29.5349398 74.8301205,29.4108434 74.7060241,28.4180723 C74.3337349,17.4975904 57.953012,17.2493976 50.3831325,18.7385542 C38.5939759,21.0963855 28.0457831,29.5349398 24.3228916,41.0759036 C24.1987952,41.5722892 24.9433735,41.8204819 25.1915663,41.4481928 Z" id="Shape" fill="#2E333E" fill-rule="nonzero"></path>
                        <path d="M17.2493976,37.7253012 C21.5927711,30.9 27.4253012,26.1843373 34.126506,21.9650602 C34.6228916,21.7168675 34.2506024,20.8481928 33.7542169,21.0963855 C26.1843373,24.1987952 20.4759036,30.4036145 16.753012,37.4771084 C16.6289157,37.7253012 17.0012048,37.973494 17.2493976,37.7253012 Z" id="Shape" fill="#2E333E" fill-rule="nonzero"></path>
                        <path d="M131.16988,67.260241 C137.374699,79.4216867 136.381928,92.8240964 130.053012,104.737349 C124.96506,114.292771 113.796386,130.301205 101.262651,128.563855 C100.145783,128.439759 99.8975904,129.928916 101.014458,130.053012 C114.168675,131.790361 125.213253,116.278313 130.79759,106.226506 C137.498795,94.1891566 139.73253,78.6771084 131.666265,66.7638554 C131.418072,66.5156627 130.921687,66.8879518 131.16988,67.260241 Z" id="Shape" fill="#2E333E" fill-rule="nonzero"></path>
                        <path d="M103.496386,123.972289 C96.0506024,134.768675 100.145783,149.163855 107.46747,158.96747 C112.307229,165.544578 118.636145,170.756627 124.96506,175.968675 C130.425301,180.436145 146.93012,192.349398 134.520482,198.926506 C133.527711,199.422892 134.148193,201.036145 135.26506,200.787952 C139.608434,199.671084 141.593976,195.451807 140.973494,191.108434 C139.980723,183.910843 132.286747,179.195181 127.198795,175.1 C111.810843,162.690361 94.0650602,145.813253 103.744578,124.220482 C103.868675,123.848193 103.620482,123.724096 103.496386,123.972289 Z" id="Shape" fill="#2E333E" fill-rule="nonzero"></path>
                        <path d="M72.4722892,128.439759 C72.1,128.315663 71.6036145,128.563855 71.4795181,128.936145 C71.4795181,129.060241 71.6036145,129.060241 71.6036145,129.060241 C71.7277108,128.812048 71.9759036,128.687952 72.2240964,128.812048 C72.5963855,128.812048 72.5963855,128.563855 72.4722892,128.439759 Z" id="Shape" fill="#000000" fill-rule="nonzero"></path>
                        <path d="M69.1216867,131.542169 C68.6253012,140.973494 66.2674699,149.908434 60.6831325,157.726506 C55.5951807,165.048193 48.0253012,170.136145 42.3168675,176.837349 C39.0903614,180.684337 35.6156627,186.144578 37.353012,191.356627 C39.0903614,196.444578 44.6746988,197.933735 49.5144578,197.933735 C50.2590361,197.933735 50.3831325,196.940964 49.6385542,196.692771 C44.1783133,195.079518 37.8493976,193.962651 39.7108434,185.648193 C40.5795181,181.925301 43.9301205,178.326506 46.5361446,175.596386 C50.8795181,171.004819 55.8433735,167.033735 59.8144578,162.193976 C66.7638554,153.631325 70.2385542,142.462651 69.4939759,131.542169 C69.6180723,131.16988 69.2457831,131.16988 69.1216867,131.542169 Z" id="Shape" fill="#2E333E" fill-rule="nonzero"></path>
                        <path d="M135.513253,199.174699 C127.819277,199.050602 119.753012,201.904819 111.93494,202.649398 C104.36506,203.26988 96.6710843,203.393976 89.1012048,202.89759 C72.4722892,201.780723 57.7048193,196.692771 41.9445783,191.977108 C41.0759036,191.728916 40.4554217,192.96988 41.3240964,193.466265 C55.2228916,201.036145 72.4722892,203.766265 88.1084337,204.883133 C96.7951807,205.503614 105.481928,205.255422 114.168675,204.262651 C120.993976,203.518072 129.556627,203.021687 135.637349,199.671084 C135.885542,199.422892 135.761446,199.174699 135.513253,199.174699 Z" id="Shape" fill="#2E333E" fill-rule="nonzero"></path>
                        <path d="M138.739759,62.2963855 C137.746988,63.413253 136.63012,64.4060241 135.140964,65.026506 C134.024096,65.5228916 132.286747,65.3987952 131.418072,66.2674699 C131.16988,66.5156627 131.16988,67.0120482 131.542169,67.1361446 C132.783133,68.0048193 134.768675,66.8879518 135.761446,66.1433735 C137.250602,65.2746988 138.243373,64.0337349 138.987952,62.5445783 C139.360241,62.2963855 138.987952,62.0481928 138.739759,62.2963855 Z" id="Shape" fill="#2E333E" fill-rule="nonzero"></path>
                        <path d="M103,9.05903614 C118.512048,18.2421687 127.943373,39.2144578 115.781928,54.9746988 C110.321687,62.0481928 95.8024096,72.5963855 105.606024,82.4 C106.598795,83.3927711 107.963855,81.9036145 107.095181,80.9108434 C98.7807229,71.6036145 112.555422,62.7927711 117.519277,56.339759 C121.242169,51.5 123.227711,45.4192771 123.351807,39.3385542 C123.724096,25.6879518 114.913253,14.7674699 103.248193,8.81084337 C103,8.5626506 102.875904,8.93493976 103,9.05903614 Z" id="Shape" fill="#2E333E" fill-rule="nonzero"></path>
                        <path d="M113.175904,31.8927711 C115.285542,38.0975904 115.657831,44.426506 112.307229,50.2590361 C110.073494,54.1060241 106.474699,56.960241 104.240964,60.6831325 C100.642169,66.5156627 100.518072,74.0855422 104.489157,79.7939759 C105.109639,80.5385542 106.226506,79.9180723 105.854217,79.0493976 C102.875904,72.2240964 102.751807,66.2674699 106.971084,60.0626506 C109.328916,56.7120482 112.431325,53.8578313 114.168675,50.1349398 C117.022892,44.3024096 116.898795,37.353012 113.548193,31.7686747 C113.424096,31.5204819 113.175904,31.6445783 113.175904,31.8927711 Z" id="Shape" fill="#2E333E" fill-rule="nonzero"></path>
                        <path d="M125.213253,32.7614458 C125.957831,37.7253012 127.074699,42.5650602 125.957831,47.5289157 C125.089157,51.5 122.483133,54.6024096 121.242169,58.3253012 C121.118072,58.6975904 121.614458,59.0698795 121.862651,58.8216867 C129.680723,53.4855422 128.06747,40.2072289 125.709639,32.513253 C125.585542,32.2650602 125.213253,32.3891566 125.213253,32.7614458 Z" id="Shape" fill="#2E333E" fill-rule="nonzero"></path>
                        <path d="M123.351807,89.473494 C116.278313,92.0795181 113.672289,85.1301205 114.168675,79.6698795 C114.416867,77.560241 114.913253,75.5746988 116.03012,73.713253 C117.643373,70.9831325 124.592771,65.026506 126.578313,72.9686747 C126.70241,73.5891566 127.819277,73.4650602 127.819277,72.8445783 C127.695181,69.7421687 125.213253,67.7566265 122.110843,67.8807229 C117.76747,68.1289157 114.540964,72.4722892 113.3,76.1951807 C111.810843,80.5385542 112.307229,85.7506024 114.789157,89.5975904 C117.146988,93.3204819 120.745783,93.4445783 123.6,89.9698795 C123.848193,89.8457831 123.6,89.473494 123.351807,89.473494 Z" id="Shape" fill="#2E333E" fill-rule="nonzero"></path>
                        <path d="M126.454217,70.7349398 C128.439759,69.8662651 129.680723,68.7493976 130.79759,66.8879518 C131.914458,65.1506024 132.410843,63.1650602 132.53494,61.1795181 C132.53494,60.4349398 131.293976,60.186747 131.16988,61.0554217 C130.549398,64.6542169 128.687952,67.8807229 126.081928,70.3626506 C125.833735,70.486747 126.206024,70.8590361 126.454217,70.7349398 Z" id="Shape" fill="#2E333E" fill-rule="nonzero"></path>
                        <path d="M79.4216867,112.183133 C79.5457831,112.183133 79.5457831,112.059036 79.4216867,112.183133 C79.2975904,112.059036 79.2975904,112.183133 79.4216867,112.183133 Z" id="Shape" fill="#000000" fill-rule="nonzero"></path>
                        <path d="M77.0638554,111.066265 C84.2614458,115.409639 93.1963855,110.693976 99.6493976,106.846988 C105.854217,103.248193 113.548193,98.2843373 115.037349,90.7144578 C115.161446,89.9698795 114.168675,89.473494 113.796386,90.2180723 C106.722892,102.379518 91.8313253,112.927711 77.1879518,110.818072 C77.0638554,110.942169 76.939759,111.066265 77.0638554,111.066265 Z" id="Shape" fill="#2E333E" fill-rule="nonzero"></path>
                        <path d="M60.8072289,161.077108 C66.639759,180.063855 99.4012048,170.508434 109.328916,160.953012 C109.949398,160.33253 109.204819,159.339759 108.460241,159.712048 C101.759036,163.683133 95.6783133,167.53012 87.9843373,169.143373 C79.4216867,170.880723 65.5228916,171.253012 62.1722892,160.828916 C61.8,160.084337 60.5590361,160.33253 60.8072289,161.077108 Z" id="Shape" fill="#2E333E" fill-rule="nonzero"></path>
                        <path d="M57.7048193,163.683133 C55.8433735,165.792771 59.3180723,168.646988 60.8072289,170.136145 C64.7783133,173.859036 69.9903614,175.844578 75.326506,176.713253 C88.6048193,178.822892 101.262651,172.36988 112.431325,166.040964 C113.424096,165.544578 112.555422,163.931325 111.562651,164.551807 C102.627711,169.639759 93.0722892,174.851807 82.6481928,175.596386 C78.553012,175.844578 74.4578313,175.472289 70.6108434,174.107229 C68.0048193,173.238554 56.8361446,168.274699 58.3253012,164.179518 C58.3253012,163.683133 57.8289157,163.43494 57.7048193,163.683133 Z" id="Shape" fill="#2E333E" fill-rule="nonzero"></path>
                    </g>
                    <g id="Phone" transform="translate(189.000000, 33.000000)">
                        <path d="M32.4731588,2.68137888 L38.0089828,2.68137888 L56.2141642,5.20289548 L71.1396893,7.23864107 L86.264577,9.44005423 C89.8531051,9.31182566 92.3671339,10.7490152 93.8066634,13.751623 C95.9659577,18.2555346 95.9659577,25.9534608 95.9659577,28.7066313 C95.9659577,30.5420782 92.7321641,47.3994556 86.264577,79.2787635 L83.8948299,97.0816144 L76.2598008,138.76989 C72.8463931,144.404712 71.1396893,147.222124 71.1396893,147.222124 C71.1396893,147.222124 68.8329789,148.064969 64.2195582,149.75066 L54.127876,149.75066 L27.7937519,144.645852 L14.4940153,142.911959 C8.0951249,141.017132 4.25313286,139.301751 2.96803921,137.765816 C1.04039873,135.461913 0.910760287,133.690152 0.910760287,130.441383 C0.910760287,128.275537 3.21369944,114.687246 7.81957773,89.6765096 L15.2863003,54.6512955 L18.5436115,36.320449 L20.9391584,18.4266966 L23.4651558,7.23864107 L27.7937519,2.68137888 L32.4731588,2.68137888 Z M11.1469688,121.984494 C11.1469688,125.866918 12.3117897,129.433919 14.6414314,132.685496 L30.9498595,137.251182 C47.3462692,140.9071 56.2721947,142.735059 57.7276358,142.735059 C59.9107974,142.735059 66.062961,138.910666 68.6322123,135.246324 C71.2014636,131.581982 76.4312238,97.0978553 76.4312238,95.2025059 C76.4312238,93.3071566 79.9944806,75.5779185 79.9944806,72.1494421 C79.9944806,68.7209657 84.1558254,53.1201347 84.1558254,50.8429076 C84.1558254,48.5656805 85.9093745,35.9201905 85.9093745,32.5422567 C85.9093745,29.164323 81.0741277,29.5602404 78.5161081,26.8927117 C75.9580885,24.225183 58.7806076,22.7945453 55.5444741,22.7945453 C52.3083406,22.7945453 38.0342541,19.3379897 33.0979221,19.3379897 C29.807034,19.3379897 27.9107487,22.7454066 27.4090661,29.5602404 L23.2336817,56.0473965 L17.1039816,89.4139686 C13.1326397,107.245228 11.1469688,118.10207 11.1469688,121.984494 Z" id="Combined-Shape" fill="#FFFFFF"></path>
                        <path d="M62.0891006,128.018725 C62.0891006,122.053756 62.0891006,117.411788 62.0891006,114.092821 C62.0891006,109.11437 60.2667573,101.217081 62.0891006,99.4930152 C63.9114439,97.7689493 72.2004384,97.7689493 74.5647112,97.7689493 C76.928984,97.7689493 87.3239221,99.4930152 91.4263005,99.4930152 C94.1612194,99.4930152 99.4265467,99.4930152 107.222282,99.4930152 L112.123515,99.4930152 L114.032904,109.350236 L114.032904,128.018725 L112.123515,131.454221 L84.6943004,131.454221 L68.1640463,131.454221 L62.0891006,128.018725 Z" id="Path-2" fill="#FFFFFF"></path>
                        <path d="M64.7142857,120.142857 C65.1428571,122.285714 64.2857143,125 66.2857143,126.714286 C67.1428571,127.428571 68.2857143,127.571429 69.2857143,127.714286 C71,127.857143 72.8571429,128.142857 74.4285714,127.857143 C75,127.714286 74.8571429,127 74.4285714,126.857143 C72.2857143,126.142857 68.5714286,127.142857 66.8571429,125.571429 C65.5714286,124.428571 65.4285714,121.857143 64.7142857,120.142857 C64.8571429,119.857143 64.7142857,120 64.7142857,120.142857 Z" id="Shape" fill="#2E333E" fill-rule="nonzero"></path>
                        <path d="M46.8567649,41.9397094 L48.0747136,41.3717431 L49.6786067,41.9397094 L51.5932444,42.8150681 L52.7396805,43.8916677 L52.8563354,45.4568994 L52.0662331,46.658199 C51.57518,46.9276376 51.2325155,47.125936 51.0382397,47.2530943 C50.8439638,47.3802526 50.3907528,47.5519946 49.6786067,47.7683201 C48.8483158,47.3988385 48.3136848,47.1759203 48.0747136,47.0995658 C47.8357423,47.0232112 47.200733,46.769714 46.1696854,46.3390741 L45.8263133,44.783005 L45.5915509,43.8916677 L45.5915509,42.8150681 L46.3622107,42.0745777 L46.8567649,41.9397094 Z" id="Path-9" fill="#38D9F4"></path>
                        <path d="M34.7230769,1.71390322 C23.9076923,-3.45491563 21.2038462,12.4822758 20.0653846,19.3740343 C17.2192308,37.4649003 14.3730769,55.5557663 10.9576923,73.503054 C7.68461538,91.0196067 4.26923077,108.679738 1.42307692,126.339869 C0.711538462,130.647218 -0.426923077,134.66741 2.84615385,138.11329 C5.83461538,141.272012 10.6730769,142.851374 14.9423077,143.13853 C16.2230769,143.282108 16.2230769,141.128434 14.9423077,141.128434 C12.2384615,140.984856 8.11153846,140.123386 5.97692308,138.11329 C1.99230769,134.236675 2.70384615,130.50364 3.55769231,125.478399 C4.55384615,119.160954 5.69230769,112.843509 6.83076923,106.669642 C8.82307692,95.3269558 11.1,84.1278483 13.0923077,72.7851625 C15.2269231,61.15532 17.3615385,49.5254776 19.2115385,37.8956352 C20.35,30.4295635 21.2038462,-1.58839771 34.1538462,3.14968624 C35.0076923,3.29326454 35.4346154,2.00105982 34.7230769,1.71390322 Z" id="Shape" fill="#2E333E" fill-rule="nonzero"></path>
                        <path d="M15.0846154,143.425687 C14.9423077,143.425687 14.9423077,143.425687 15.0846154,143.425687 C9.96153846,142.994952 5.40769231,141.128434 2.70384615,138.256868 C-0.284615385,135.098145 0.284615385,131.508688 0.996153846,127.632074 C1.13846154,127.201339 1.13846154,126.627026 1.28076923,126.196291 C3.55769231,112.125617 6.26153846,98.0549435 8.82307692,84.2714266 C9.53461538,80.681969 10.2461538,76.9489332 10.8153846,73.3594757 C14.2307692,54.8378748 17.2192308,35.885539 19.9230769,19.230456 C20.6346154,14.6359504 22.3423077,4.01115605 27.8923077,0.996011714 C30.0269231,-0.152614698 32.4461538,-0.0090363966 35.15,1.28316832 C35.5769231,1.57032492 35.8615385,2.14463813 35.5769231,2.57537303 C35.2923077,3.14968624 34.8653846,3.43684284 34.2961538,3.14968624 C32.3038462,2.43179473 30.5961538,2.57537303 29.0307692,3.58042114 C22.9115385,7.45703528 21.2038462,23.96854 20.35,32.8703946 C20.2076923,34.8804909 19.9230769,36.6034305 19.7807692,37.7520569 C17.9307692,50.0997908 15.6538462,62.3039465 13.6615385,72.6415842 C12.95,76.2310417 12.3807692,79.8204992 11.6692308,83.4099568 C10.2461538,91.0196067 8.82307692,98.772835 7.4,106.526063 C6.26153846,112.556352 5.12307692,119.017376 4.12692308,125.334821 L3.98461538,126.052712 C3.27307692,130.647218 2.70384615,133.949519 6.40384615,137.538976 C8.25384615,139.405494 12.0961538,140.266964 15.0846154,140.410542 C15.6538462,140.410542 16.0807692,140.697699 16.2230769,141.128434 C16.5076923,141.559169 16.3653846,142.133482 16.0807692,142.564217 C15.7961538,143.282108 15.5115385,143.425687 15.0846154,143.425687 Z M30.7384615,1.13959002 C29.7423077,1.13959002 28.7461538,1.42674662 27.8923077,1.85748152 C22.6269231,4.58546925 21.0615385,15.0666853 20.35,19.5176126 C17.7884615,36.1726956 14.8,55.1250314 11.2423077,73.6466323 C10.5307692,77.2360898 9.81923077,80.9691256 9.25,84.5585832 C6.68846154,98.1985218 3.98461538,112.412774 1.70769231,126.483447 C1.56538462,126.914182 1.56538462,127.488495 1.42307692,127.91923 C0.711538462,131.652266 0.142307692,134.954567 2.98846154,137.826133 C5.55,140.554121 9.96153846,142.420639 14.8,142.707795 C15.0846154,142.707795 15.2269231,142.707795 15.2269231,142.564217 C15.3692308,142.420639 15.3692308,141.989904 15.2269231,141.846325 C15.0846154,141.702747 14.9423077,141.559169 14.6576923,141.415591 C13.0923077,141.272012 8.11153846,140.697699 5.55,138.256868 C1.56538462,134.380254 2.13461538,130.647218 2.84615385,126.052712 L2.98846154,125.334821 C3.98461538,118.873797 5.12307692,112.412774 6.26153846,106.382485 C7.68461538,98.6292567 9.10769231,90.8760284 10.5307692,83.2663785 C11.2423077,79.6769209 11.9538462,76.0874634 12.5230769,72.4980059 C14.5153846,62.1603681 16.65,49.9562125 18.6423077,37.6084786 C18.7846154,36.4598522 18.9269231,34.7369126 19.2115385,32.8703946 C20.2076923,23.2506484 21.7730769,7.16987868 28.1769231,3.00610793 C29.8846154,1.85748152 31.8769231,1.71390322 34.0115385,2.57537303 C34.2961538,2.71895133 34.4384615,2.43179473 34.4384615,2.28821643 C34.4384615,2.28821643 34.5807692,2.00105982 34.2961538,1.85748152 C33.1576923,1.42674662 31.8769231,1.13959002 30.7384615,1.13959002 Z" id="Shape" fill="#2E333E" fill-rule="nonzero"></path>
                        <path d="M11.4492754,141.92 C20,143.88 28.5507246,145.28 37.1014493,147.24 C44.3478261,148.92 51.884058,150.88 59.4202899,151.44 C71.3043478,152.14 78.2608696,143.88 79.4202899,132.96 C79.5652174,131.7 77.2463768,131.42 76.9565217,132.68 C75.5072464,139.4 73.3333333,146.82 65.3623188,148.78 C58.6956522,150.46 50.7246377,147.94 44.2028986,146.54 C33.4782609,144.3 22.4637681,140.94 11.4492754,141.36 C11.3043478,141.22 11.1594203,141.78 11.4492754,141.92 Z" id="Shape" fill="#2E333E" fill-rule="nonzero"></path>
                        <path d="M61.0144928,151.72 C60.5797101,151.72 60,151.72 59.5652174,151.72 C53.4782609,151.3 47.2463768,149.9 41.3043478,148.5 C40,148.22 38.5507246,147.8 37.2463768,147.52 C33.1884058,146.68 29.1304348,145.84 25.0724638,145 C20.5797101,144.16 15.942029,143.18 11.4492754,142.2 C11.1594203,142.06 10.8695652,141.78 10.8695652,141.5 C10.8695652,141.22 11.1594203,140.94 11.5942029,140.94 C20.1449275,140.66 28.6956522,142.62 37.1014493,144.58 C39.5652174,145.14 42.0289855,145.7 44.3478261,146.26 C45.5072464,146.54 46.8115942,146.82 47.9710145,147.1 C53.6231884,148.36 60,149.9 65.3623188,148.5 C72.8985507,146.54 75.0724638,139.96 76.6666667,132.68 C76.8115942,131.84 77.6811594,131.42 78.4057971,131.56 C79.2753623,131.7 79.8550725,132.26 79.7101449,133.1 C78.6956522,144.44 71.3043478,151.72 61.0144928,151.72 Z M11.884058,141.64 C16.2318841,142.62 20.8695652,143.6 25.2173913,144.44 C29.2753623,145.28 33.3333333,145.98 37.3913043,146.96 C38.6956522,147.24 40.1449275,147.52 41.4492754,147.94 C47.3913043,149.34 53.4782609,150.74 59.7101449,151.16 C70.4347826,151.86 78.115942,144.72 79.2753623,132.96 C79.2753623,132.54 78.9855072,132.26 78.5507246,132.26 C78.2608696,132.26 77.6811594,132.26 77.5362319,132.82 C75.942029,140.1 73.6231884,147.24 65.6521739,149.2 C60.1449275,150.6 53.6231884,149.06 47.9710145,147.8 C46.6666667,147.52 45.5072464,147.24 44.3478261,146.96 C41.884058,146.4 39.4202899,145.84 37.1014493,145.28 C28.6956522,143.32 20.1449275,141.22 11.884058,141.64 Z" id="Shape" fill="#2E333E" fill-rule="nonzero"></path>
                        <path d="M33.3024178,1.58529412 C44.8794649,4.46764706 56.8906512,5.47647059 68.7571244,6.91764706 C74.2562218,7.63823529 79.9000322,8.07058824 85.3991296,9.22352941 C93.3583495,10.8088235 96.5420374,15.9970588 96.1078981,23.6352941 C95.5290458,35.5970588 92.2006447,47.9911765 90.1746615,59.8088235 C88.1486783,71.7705882 85.8332689,83.8764706 83.9519987,95.9823529 C83.8072856,97.2794118 85.6885558,97.8558824 85.9779819,96.5588235 C88.8722437,81.8588235 91.1876531,67.0147059 93.7924887,52.1705882 C95.0949065,44.8205882 96.5420374,37.3264706 97.6997421,29.9764706 C98.4233075,25.6529412 99.146873,21.0411765 97.8444552,16.7176471 C95.3843327,7.78235294 86.4121212,7.06176471 78.5976144,6.05294118 C63.6921663,4.17941176 48.4972921,1.29705882 33.4471309,1.00882353 C33.0129916,0.864705882 32.8682785,1.44117647 33.3024178,1.58529412 Z" id="Shape" fill="#2E333E" fill-rule="nonzero"></path>
                        <path d="M85.1097034,97.4235294 C84.9649903,97.4235294 84.9649903,97.4235294 84.8202772,97.4235294 C84.0967118,97.2794118 83.3731464,96.7029412 83.5178594,95.6941176 C84.8202772,87.0470588 86.4121212,78.4 87.8592521,70.0411765 C88.4381044,66.5823529 89.1616699,63.1235294 89.7405222,59.5205882 C90.3193746,55.9176471 91.04294,52.1705882 91.7665055,48.5676471 C93.5030625,40.2088235 95.2396196,31.7058824 95.6737589,23.3470588 C96.1078981,15.4205882 92.634784,10.8088235 85.2544165,9.36764706 C81.6365893,8.64705882 77.874049,8.21470588 74.2562218,7.78235294 C72.3749516,7.63823529 70.6383946,7.35 68.7571244,7.06176471 C65.8628627,6.62941176 62.9686009,6.34117647 60.0743391,5.90882353 C51.2468407,4.9 42.1299162,3.74705882 33.4471309,1.58529412 C33.1577047,1.44117647 32.8682785,1.15294118 32.8682785,0.864705882 C32.8682785,0.432352941 33.1577047,0.288235294 33.591844,0.288235294 C44.7347518,0.432352941 56.1670858,2.16176471 67.1652805,3.74705882 C70.9278208,4.32352941 74.9797872,4.9 78.7423275,5.33235294 L79.7553191,5.76470588 C87.2803997,6.77352941 95.818472,7.78235294 98.1338814,16.4294118 C99.2915861,20.8970588 98.5680206,25.6529412 97.9891683,29.8323529 C97.2656028,34.5882353 96.3973243,39.2 95.5290458,43.8117647 C95.0949065,46.55 94.5160542,49.2882353 94.0819149,52.0264706 C93.3583495,56.4941176 92.4900709,61.1058824 91.7665055,65.7176471 C90.0299484,75.8058824 88.2933914,86.3264706 86.2674081,96.4147059 C86.122695,96.9911765 85.6885558,97.4235294 85.1097034,97.4235294 Z M33.4471309,1.29705882 C42.1299162,3.45882353 51.2468407,4.46764706 60.0743391,5.62058824 C62.9686009,5.90882353 65.8628627,6.34117647 68.7571244,6.77352941 C70.6383946,7.06176471 72.3749516,7.20588235 74.2562218,7.49411765 C77.874049,7.92647059 81.6365893,8.35882353 85.3991296,9.07941176 C93.0689233,10.5205882 96.8314636,15.7088235 96.3973243,23.7794118 C95.963185,32.1382353 94.226628,40.7852941 92.4900709,49 C91.7665055,52.6029412 91.04294,56.35 90.4640877,59.8088235 C89.8852353,63.2676471 89.306383,66.7264706 88.5828175,70.3294118 C87.1356867,78.6882353 85.5438427,87.3352941 84.2414249,95.9823529 C84.0967118,96.5588235 84.6755642,96.8470588 84.9649903,96.8470588 C85.1097034,96.8470588 85.5438427,96.8470588 85.5438427,96.4147059 C87.5698259,86.1823529 89.306383,75.8058824 91.04294,65.7176471 C91.7665055,61.1058824 92.634784,56.6382353 93.3583495,52.0264706 C93.7924887,49.2882353 94.3713411,46.55 94.8054803,43.8117647 C95.6737589,39.2 96.5420374,34.4441176 97.2656028,29.8323529 C97.9891683,25.7970588 98.7127337,21.0411765 97.555029,16.7176471 C95.3843327,8.50294118 87.4251128,7.49411765 79.7553191,6.48529412 L78.5976144,6.34117647 C74.6903611,5.90882353 70.7831077,5.33235294 67.0205674,4.75588235 C55.8776596,3.02647059 44.5900387,1.44117647 33.4471309,1.29705882 Z" id="Shape" fill="#2E333E" fill-rule="nonzero"></path>
                        <path d="M27.1727931,22.4165025 C24.2686782,40.248803 20.2029174,58.0811035 17.008391,75.913404 C15.4111278,85.117172 13.8138647,94.32094 12.2166015,103.524708 C11.0549555,110.571343 8.29604639,118.768449 9.16728085,125.958893 C9.74810382,131.279821 12.7974244,133.868381 17.589214,135.450278 C25.8659414,138.182647 34.7234918,139.333118 43.1454249,141.202633 C52.729004,143.359766 67.5399899,146.092135 68.9920473,132.71791 C69.137253,131.567439 67.2495784,131.279821 66.9591669,132.430292 C63.474229,147.817842 38.6440468,137.895029 27.8988218,135.594087 C24.8495012,134.875043 20.9289461,134.587425 18.0248312,133.293145 C10.3289268,129.841732 10.764544,125.671275 11.6357785,119.343684 C12.6522187,112.440858 13.9590704,105.538032 15.1207163,98.6352063 C19.4768887,73.3248443 24.4138839,48.1582911 28.1892333,22.7041202 C28.4796448,21.9850759 27.3179988,21.6974581 27.1727931,22.4165025 Z" id="Shape" fill="#2E333E" fill-rule="nonzero"></path>
                        <path d="M26.4610758,23.1655192 C30.9259826,18.4249748 37.1192403,20.8670734 42.5923518,21.8726435 C47.0572585,22.7345607 51.5221652,23.3091721 55.9870719,24.0274364 C61.3161542,24.8893536 66.6452364,25.6076179 72.1183479,26.4695351 C79.1757811,27.4751051 84.6488925,30.4918152 83.6406878,39.1109869 C82.3444246,49.453993 80.4720443,59.7969991 78.5996641,70.1400051 C77.0153423,78.9028297 74.1347574,88.2402658 73.7026696,97.1467432 C73.7026696,98.1523132 75.2869913,98.2959661 75.4310206,97.4340489 C75.4310206,97.4340489 75.4310206,97.2903961 75.4310206,97.2903961 C75.5750498,96.4284789 74.4228158,95.7102146 73.9907281,96.7157846 C73.9907281,96.7157846 73.9907281,96.8594375 73.8466989,96.8594375 C74.2787866,97.1467432 74.8549036,97.4340489 75.2869913,97.7213547 C77.4474301,92.5498516 77.8795178,85.94182 78.8877226,80.3393583 C80.3280151,72.5821038 81.6242783,64.8248492 82.9205416,57.0675947 C83.9287463,50.7468688 85.2250095,44.28249 85.8011265,37.961764 C86.2332143,34.0831368 86.2332143,30.2045095 82.9205416,27.618758 C79.4638396,24.8893536 73.9907281,24.8893536 69.9579091,24.1710893 C62.7564467,23.1655192 55.6990134,22.0162963 48.497551,21.1543792 C42.0162348,20.292462 30.3498656,15.8392233 26.0289881,23.0218664 C25.8849589,23.0218664 26.3170466,23.3091721 26.4610758,23.1655192 Z" id="Shape" fill="#2E333E" fill-rule="nonzero"></path>
                        <path d="M52.9375886,12.5558744 C52.3804606,12.5558744 51.9626145,12.6924572 51.4054864,12.6924572 C49.8733842,12.0095429 49.4555381,14.6046173 50.8483583,14.4680345 C54.8875369,14.1948687 58.6481515,14.4680345 62.5480481,15.8338631 C62.6873301,15.1509488 62.6873301,14.4680345 62.8266121,13.7851201 C60.5980998,13.6485373 58.3695874,13.5119544 56.2803571,13.1022058 C54.4696909,12.8290401 52.7983066,12.1461258 50.9876404,12.0095429 C50.0126662,11.87296 49.7341022,13.2387887 50.5697943,13.7851201 C53.9125628,15.8338631 59.0659975,16.1070288 62.9658941,15.970446 C64.2194323,15.970446 64.3587143,14.1948687 63.2444582,13.921703 C59.2052796,12.5558744 55.026819,12.1461258 50.7090763,12.8290401 C50.9876404,13.3753715 51.4054864,13.921703 51.6840505,14.4680345 C51.9626145,14.1948687 52.9375886,13.5119544 53.3554347,13.2387887 C53.4947167,12.8290401 53.2161527,12.5558744 52.9375886,12.5558744 Z" id="Shape" fill="#2E333E" fill-rule="nonzero"></path>
                        <path d="M60.5800365,99.4250419 C59.7166957,107.500838 59.8605858,115.718314 60.7239266,123.79411 C61.0117069,126.911084 60.5800365,129.886377 63.6017293,131.444864 C65.9039714,132.719989 70.2206755,132.153267 72.8106979,132.294948 C77.4151821,132.578309 82.0196664,132.86167 86.4802606,132.86167 C94.6819982,133.003351 103.171516,133.286712 111.373254,132.153267 C112.380485,132.011586 112.092704,130.453099 111.085473,130.453099 C98.2792515,130.028057 85.4730296,131.019822 72.6668077,130.169738 C70.3645656,130.028057 64.8967405,130.311419 63.1700589,128.186209 C61.7311576,126.344361 62.0189378,118.976969 61.8750477,116.426717 C61.4433773,110.759492 61.4433773,105.092267 61.2994872,99.4250419 C61.2994872,98.8583194 60.5800365,98.8583194 60.5800365,99.4250419 Z" id="Shape" fill="#2E333E" fill-rule="nonzero"></path>
                        <path d="M61.0876346,100.331146 C74.7505225,97.1095324 87.8320108,99.4907251 101.640249,100.051006 C103.384447,100.051006 109.053092,99.0705146 110.361241,99.9109356 C113.122888,101.591778 112.250789,106.494233 112.250789,109.295636 C112.541489,116.579285 111.66939,123.722863 111.52404,131.006511 C111.52404,132.127072 113.413588,132.407213 113.704288,131.286651 C115.739186,120.641319 115.012437,109.295636 113.994988,98.510234 C113.994988,97.9499534 113.413588,97.2496026 112.686839,97.2496026 C95.3902041,98.9304445 77.0761204,92.4872172 60.3608852,98.9304445 C59.6341359,99.2105848 60.0701855,100.471216 61.0876346,100.331146 Z" id="Shape" fill="#2E333E" fill-rule="nonzero"></path>
                        <path d="M61.3506119,100.538834 C67.885229,104.025416 74.2746323,107.22145 79.937967,112.015501 C82.4066001,113.904066 85.7465155,119.279214 89.3768583,118.988666 C92.4263462,118.843391 95.3306205,114.775712 97.2183987,112.887146 C102.300879,107.657273 107.383359,103.880142 113.482334,99.9577366 C114.49883,99.3766395 113.917976,97.6333483 112.611052,98.0691711 C108.545068,99.3766395 105.059939,101.701028 101.720024,104.461239 C98.2348947,107.511999 92.5715599,116.809552 87.0534389,115.356809 C85.3108744,114.920986 82.987455,111.724952 81.3901041,110.562758 C79.3571122,108.964741 77.3241202,107.511999 75.1459145,106.059256 C70.9347169,103.444319 66.2878781,101.119931 61.4958256,99.667188 C61.2053982,99.086091 60.6245434,100.103011 61.3506119,100.538834 Z" id="Shape" fill="#2E333E" fill-rule="nonzero"></path>
                        <path d="M88.9050459,112.107477 C90.0108497,111.262574 91.8077808,110.136035 93.3282611,110.276853 C94.8487413,110.41767 95.8163196,110.558487 96.6456725,111.685026 C97.4750253,112.670747 98.3043782,113.374833 97.8897017,114.923824 C97.4750253,116.331997 96.9221234,117.036083 96.0927706,118.303439 C95.2634177,119.429977 94.5722903,120.415698 93.3282611,121.683054 C92.0842318,122.809592 90.978428,123.232044 90.2873006,123.795314 C89.5961732,124.358583 89.1814968,123.654496 88.2139185,122.95041 C87.2463402,122.246323 86.6934383,122.668775 85.5876345,121.964689 C84.4818307,121.260602 82.9613504,119.993246 82.1319976,119.148343 C81.3026447,118.303439 80.8879683,117.74017 81.0261938,116.050362 C81.0261938,114.501372 81.5790957,113.656468 81.9937721,112.670747 C82.4084485,111.685026 81.7173212,110.980939 83.3760269,110.41767 C85.0347326,109.713583 85.0347326,109.995218 86.1405364,110.558487 C86.8316637,110.980939 88.2139185,112.248295 88.6285949,112.811564 C88.6285949,112.811564 88.9050459,112.107477 88.9050459,112.107477 Z" id="Shape" fill="#F3817A" fill-rule="nonzero"></path>
                        <path d="M88.8,113.153846 C90.9,111.492308 93.98,109.830769 96.22,112.323077 C97.62,113.846154 96.22,116.615385 95.24,117.861538 C94.4,119.107692 93.28,120.353846 92.02,121.461538 C91.04,122.430769 89.92,122.846154 89.36,124.092308 C89.08,124.646154 89.78,125.2 90.2,124.784615 C91.18,123.676923 93,123.4 94.26,122.430769 C95.38,121.461538 96.5,120.353846 97.2,119.107692 C98.6,117.169231 99.3,114.538462 98.18,112.184615 C96.22,107.753846 90.34,109.276923 88.24,112.738462 C88.1,113.153846 88.52,113.430769 88.8,113.153846 Z" id="Shape" fill="#2E333E" fill-rule="nonzero"></path>
                        <path d="M88.52,112.461538 C88.38,110.523077 86.14,109.415385 84.32,109.553846 C82.5,109.553846 80.96,111.353846 80.4,113.015385 C79.42,115.646154 80.82,118.553846 82.5,120.630769 C83.2,121.461538 84.32,122.430769 85.3,122.846154 C87.12,123.676923 88.8,122.569231 89.36,125.2 C89.5,125.892308 90.62,125.753846 90.48,125.061538 C90.2,121.461538 86.84,121.876923 84.46,120.215385 C81.8,118.276923 80.68,114.815385 82.64,112.046154 C84.74,109 86.42,111.353846 88.52,112.461538 C88.38,112.461538 88.52,112.461538 88.52,112.461538 Z" id="Shape" fill="#2E333E" fill-rule="nonzero"></path>
                        <path d="M36.5,68.3333333 C32.1666667,64.3333333 31,59 34.1666667,53.8333333 C36.5,50.1666667 41.1666667,46.6666667 45.8333333,47.1666667 C53.5,48 53.1666667,58 50,63 C48.1666667,65.8333333 45.3333333,68.5 41.8333333,68.6666667 C37.6666667,69 33.8333333,66.5 33.5,62.1666667 C33.5,61.5 32.5,61.5 32.5,62.1666667 C32.3333333,70.5 41.5,72 47.3333333,68.1666667 C53.5,64.1666667 56.6666667,53.5 50.5,48 C40.3333333,38.8333333 22.8333333,60.3333333 35.8333333,69 C36.3333333,69.1666667 36.8333333,68.6666667 36.5,68.3333333 Z" id="Shape" fill="#2E333E" fill-rule="nonzero"></path>
                        <path d="M52,71.5 C48.3333333,68 46.5,63 49.1666667,58.3333333 C51.8333333,53.5 58.1666667,48.3333333 63.8333333,51.6666667 C69.3333333,55 67.8333333,62.6666667 64.5,67 C63,69 61.3333333,70.5 59,71.3333333 C54.6666667,72.6666667 50,70.5 49.3333333,65.5 C49.1666667,64.6666667 48,64.6666667 48,65.5 C47.8333333,73.8333333 56.6666667,75.5 62.6666667,72 C69,68.3333333 72.5,58.5 67.5,52.3333333 C58,40.6666667 37.1666667,63.3333333 51.5,72.5 C51.8333333,72.8333333 52.5,72 52,71.5 Z" id="Shape" fill="#2E333E" fill-rule="nonzero"></path>
                        <path d="M45.3333333,42.1666667 C45.1666667,42.6666667 45.3333333,43.3333333 45.5,44 C45.6666667,44.6666667 45.8333333,45.3333333 46.1666667,46 C46.1666667,46.1666667 46.5,46.1666667 46.5,45.8333333 C46.1666667,45.1666667 46,44.5 45.8333333,43.8333333 C45.6666667,43.5 45.8333333,42.6666667 45.3333333,42.1666667 C45.5,42.1666667 45.3333333,42.1666667 45.3333333,42.1666667 Z" id="Shape" fill="#000000" fill-rule="nonzero"></path>
                        <path d="M46.3333333,46.3333333 C46.3333333,46.3333333 46.3333333,46.3333333 46.3333333,46.3333333 C46.1666667,46.3333333 46,46.1666667 46,46.1666667 C45.6666667,45.5 45.5,44.8333333 45.3333333,44.1666667 C45.3333333,44 45.3333333,44 45.3333333,43.8333333 C45.1666667,43.3333333 45,42.6666667 45.1666667,42.1666667 C45.1666667,42 45.3333333,42 45.3333333,42 C45.5,42 45.5,42 45.6666667,42.1666667 C45.8333333,42.5 46,43 46,43.3333333 C46,43.5 46,43.8333333 46.1666667,44 C46.3333333,44.6666667 46.5,45.3333333 46.8333333,45.8333333 C46.8333333,46 46.8333333,46.1666667 46.8333333,46.1666667 C46.6666667,46.3333333 46.5,46.3333333 46.3333333,46.3333333 Z" id="Shape" fill="#2E333E" fill-rule="nonzero"></path>
                        <path d="M45.5,42.3333333 C46.3333333,42 47.1666667,41.6666667 48,41.3333333 C48.1666667,41.3333333 48.1666667,41 47.8333333,41 C47,41.5 46.1666667,41.8333333 45.5,42.3333333 C45.3333333,42.3333333 45.5,42.3333333 45.5,42.3333333 Z" id="Shape" fill="#2E333E" fill-rule="nonzero"></path>
                        <path d="M45.5,42.6666667 C45.3333333,42.6666667 45.3333333,42.6666667 45.3333333,42.5 C45.3333333,42.3333333 45.3333333,42.1666667 45.5,42.1666667 C46.1666667,41.8333333 47,41.5 47.8333333,41.1666667 L48,41 C48.1666667,41 48.1666667,41 48.3333333,41 C48.5,41 48.5,41.1666667 48.5,41.3333333 C48.5,41.5 48.3333333,41.5 48.3333333,41.6666667 L47.8333333,41.6666667 C47.1666667,42 46.3333333,42.3333333 45.5,42.6666667 C45.5,42.6666667 45.5,42.6666667 45.5,42.6666667 Z" id="Shape" fill="#2E333E" fill-rule="nonzero"></path>
                        <path d="M50.1666667,48.1666667 C50.6666667,47.8333333 51,47.5 51.5,47.1666667 C51.8333333,46.8333333 52.3333333,46.6666667 52.6666667,46.3333333 C52.6666667,46.3333333 52.6666667,46.1666667 52.5,46.1666667 C52,46.1666667 51.5,46.5 51.1666667,46.8333333 C50.6666667,47.1666667 50.1666667,47.5 49.8333333,47.8333333 C49.8333333,48 50,48.1666667 50.1666667,48.1666667 Z" id="Shape" fill="#000000" fill-rule="nonzero"></path>
                        <path d="M50.1666667,48.3333333 C50,48.3333333 50,48.3333333 49.8333333,48.1666667 C49.6666667,48 49.6666667,47.8333333 49.8333333,47.6666667 C50.1666667,47.3333333 50.6666667,47 51.1666667,46.6666667 L51.3333333,46.6666667 C51.6666667,46.5 52.1666667,46.1666667 52.6666667,46 C52.8333333,46 53,46 53,46.1666667 C53,46.3333333 53,46.5 53,46.5 C52.8333333,46.6666667 52.5,46.8333333 52.1666667,47 C52,47 51.8333333,47.1666667 51.6666667,47.3333333 C51.3333333,47.6666667 50.8333333,47.8333333 50.5,48.1666667 L50.3333333,48.3333333 C50.3333333,48.3333333 50.1666667,48.3333333 50.1666667,48.3333333 Z" id="Shape" fill="#2E333E" fill-rule="nonzero"></path>
                        <path d="M52.6666667,43.8333333 C52.6666667,44.3333333 52.6666667,44.8333333 52.6666667,45.1666667 C52.6666667,45.5 52.6666667,46 52.8333333,46.5 C52.8333333,46.5 53,46.5 53,46.5 C53,46.1666667 53,45.6666667 53,45.1666667 C52.8333333,44.6666667 52.8333333,44.1666667 52.6666667,43.8333333 C52.8333333,43.6666667 52.6666667,43.6666667 52.6666667,43.8333333 Z" id="Shape" fill="#000000" fill-rule="nonzero"></path>
                        <path d="M52.8333333,46.6666667 C52.6666667,46.6666667 52.6666667,46.6666667 52.6666667,46.5 C52.5,46.1666667 52.5,45.8333333 52.5,45.5 C52.5,45.3333333 52.5,45.3333333 52.5,45.1666667 C52.5,44.6666667 52.5,44.1666667 52.5,43.6666667 C52.5,43.5 52.6666667,43.3333333 52.8333333,43.3333333 C52.8333333,43.3333333 52.8333333,43.3333333 52.8333333,43.3333333 C53,43.3333333 53,43.5 53.1666667,43.5 C53.1666667,44 53.3333333,44.5 53.3333333,44.8333333 C53.3333333,45 53.3333333,45 53.3333333,45.1666667 C53.3333333,45.5 53.3333333,45.8333333 53.3333333,46.1666667 C53.1666667,46.6666667 53,46.6666667 52.8333333,46.6666667 C52.8333333,46.6666667 52.8333333,46.6666667 52.8333333,46.6666667 Z" id="Shape" fill="#2E333E" fill-rule="nonzero"></path>
                        <path d="M48,41.3333333 C49.5,42 51,42.6666667 52.3333333,43.6666667 C52.5,43.8333333 52.8333333,43.5 52.5,43.3333333 C51.3333333,42.3333333 49.8333333,41.5 48,41.3333333 C48,41.1666667 48,41.3333333 48,41.3333333 Z" id="Shape" fill="#000000" fill-rule="nonzero"></path>
                        <path d="M52.5,43.8333333 C52.3333333,43.8333333 52.3333333,43.8333333 52.1666667,43.6666667 C51,42.8333333 49.6666667,42.1666667 47.8333333,41.3333333 C47.6666667,41.3333333 47.6666667,41.1666667 47.6666667,41 C47.6666667,40.8333333 47.8333333,40.8333333 48,40.8333333 C49.5,41.1666667 51,41.8333333 52.6666667,43 C52.8333333,43.1666667 52.8333333,43.1666667 52.8333333,43.3333333 C53,43.6666667 52.8333333,43.8333333 52.5,43.8333333 C52.6666667,43.8333333 52.6666667,43.8333333 52.5,43.8333333 Z" id="Shape" fill="#2E333E" fill-rule="nonzero"></path>
                        <path d="M50.1666667,47.8333333 C49.6666667,47.3333333 48.8333333,47.1666667 48.3333333,46.8333333 C47.6666667,46.5 47,46.1666667 46.3333333,45.8333333 C46.1666667,45.8333333 46.1666667,46 46.1666667,46 C46.6666667,46.5 47.5,46.8333333 48,47 C48.8333333,47.5 49.5,47.8333333 50.1666667,47.8333333 C50.1666667,48 50.3333333,47.8333333 50.1666667,47.8333333 Z" id="Shape" fill="#2E333E" fill-rule="nonzero"></path>
                        <path d="M45.5,42.3333333 C48.1666667,43.3333333 51,43.6666667 52.5,46.3333333 C52.6666667,46.6666667 53,46.3333333 52.8333333,46.1666667 C51.5,43.5 48.1666667,42.8333333 45.5,42.1666667 C45.3333333,42.1666667 45.3333333,42.3333333 45.5,42.3333333 Z" id="Shape" fill="#2E333E" fill-rule="nonzero"></path>
                        <path d="M48.1666667,41.5 C48.5,42.3333333 48.8333333,43 49.3333333,43.6666667 C49.5,43.8333333 49.6666667,43.6666667 49.5,43.5 C49.1666667,42.8333333 48.6666667,42.1666667 48.1666667,41.5 C48.3333333,41.3333333 48.1666667,41.5 48.1666667,41.5 Z" id="Shape" fill="#000000" fill-rule="nonzero"></path>
                        <path d="M49.6666667,44 C49.5,44 49.5,44 49.3333333,43.8333333 C48.8333333,43 48.3333333,42.3333333 48,41.5 L48,41.3333333 L48.3333333,41.1666667 L48.5,41.3333333 C49,42.1666667 49.5,42.8333333 49.8333333,43.3333333 C50,43.5 50,43.5 49.8333333,43.6666667 C49.8333333,43.8333333 49.8333333,44 49.6666667,44 C49.6666667,44 49.6666667,44 49.6666667,44 Z" id="Shape" fill="#2E333E" fill-rule="nonzero"></path>
                        <path d="M50.1666667,43.8333333 C51,44 51.8333333,43.8333333 52.6666667,43.6666667 C52.8333333,43.6666667 52.8333333,43.3333333 52.5,43.3333333 C51.6666667,43.5 51,43.6666667 50.1666667,43.8333333 C50,43.8333333 50,43.8333333 50.1666667,43.8333333 Z" id="Shape" fill="#2E333E" fill-rule="nonzero"></path>
                        <g id="Group" transform="translate(46.000000, 43.333333)" fill="#2E333E" fill-rule="nonzero">
                            <path d="M3.83333333,4.83333333 C3.66666667,4.33333333 3.66666667,3.66666667 3.66666667,3.16666667 C3.66666667,3 3.66666667,2.83333333 3.66666667,2.66666667 L3.66666667,2.33333333 C3.66666667,2.16666667 3.66666667,1.83333333 3.66666667,1.66666667 C3.66666667,1.66666667 3.66666667,1.5 3.66666667,1.33333333 C3.66666667,1.16666667 3.66666667,0.833333333 3.66666667,0.833333333 C3.66666667,0.833333333 3.66666667,0.833333333 3.5,0.833333333 C3.16666667,0.833333333 2.72791878,1.16666667 2.38214887,1.33333333 C2.2154822,1.5 1.66666667,2.16666667 1.5,2.33333333 C0.833333333,2.77777778 0.444444444,2.94444444 0.333333333,2.83333333 C0.166666667,2.66666667 0.333333333,2.5 0.5,2.33333333 C0.833333333,2.16666667 1.16666667,1.83333333 1.5,1.5 C2.16666667,0.833333333 2.5,0.605360341 3.5,0.272027007 C3.66666667,0.272027007 3.83333333,0.535620256 4,0.535620256 C4,0.535620256 4,0.535620256 4.33333333,0.535620256 C4.33333333,0.868953589 4.33333333,1.3357042 4.33333333,1.8357042 C4.33333333,3.16903754 4.33333333,3.8370199 4.33333333,4.55135624 C4,4.88468958 4.33333333,5 4.16666667,5 C4,5 3.83333333,4.83333333 3.83333333,4.83333333 Z" id="Shape"></path>
                        </g>
                    </g>
                    <g id="Group-8" transform="translate(144.000000, 8.000000)">
                        <path d="M4.57216351,19.7950217 C3.96124076,18.2415642 4.52598265,16.1962527 6.26638917,13.6590871 C6.59058254,12.5481499 7.20410181,11.4386964 8.10694697,10.3307266 C9.99312923,9.0081734 11.729641,9.60574265 12.8702527,10.3307266 C13.6306605,10.8140492 17.3344028,12.560947 23.9814798,15.57142 C25.0297297,17.5351268 25.2917922,18.942994 24.7676672,19.7950217 C24.2435423,20.6470493 22.7889378,23.3175644 20.4038538,27.8065669 L10.4710734,23.7943957 C7.14938954,22.6816038 5.18308626,21.3484791 4.57216351,19.7950217 Z" id="Path-19" fill="#FFFFFF"></path>
                        <path d="M7.8875,9.68 C6.30625,12.34 1.99375,17.66 4.29375,20.88 C5.44375,22.56 8.31875,23.26 10.04375,24.1 C13.35,25.5 16.65625,27.04 19.9625,28.44 C20.5375,28.72 21.1125,27.74 20.39375,27.46 C16.08125,25.64 11.76875,23.82 7.45625,21.86 C4.58125,20.46 4.15,19.06 5.15625,16.12 C6.30625,14.02 7.3125,11.92 7.8875,9.68 C8.175,9.68 8.03125,9.54 7.8875,9.68 Z" id="Shape" fill="#2E333E" fill-rule="nonzero"></path>
                        <path d="M8.03125,9.96 C9.6125,12.06 10.7625,14.3 11.9125,16.68 C12.34375,17.52 12.775,19.48 13.78125,19.9 C14.64375,20.32 16.08125,19.48 16.94375,19.2 C19.675,18.36 22.2625,18.22 24.99375,17.66 C25.425,17.52 25.425,17.1 24.99375,16.96 C23.4125,16.54 21.83125,16.82 20.25,17.1 C18.66875,17.38 16.94375,18.5 15.50625,18.5 C13.35,18.5 12.775,16.26 12.05625,14.86 C11.05,13.04 9.75625,11.36 8.4625,9.68 C8.175,9.54 7.8875,9.68 8.03125,9.96 Z" id="Shape" fill="#2E333E" fill-rule="nonzero"></path>
                        <path d="M15.65,17.24 C15.79375,17.1 15.65,16.82 15.50625,16.54 C14.93125,15.84 13.925,15.7 13.20625,15.98 C12.4875,16.26 11.9125,17.1 11.9125,17.94 C11.9125,19.62 13.6375,21.02 13.6375,22.7" id="Shape" fill="#F3817A" fill-rule="nonzero"></path>
                        <path d="M14.93125,17.52 C15.65,17.24 16.36875,16.96 17.0875,17.1 C17.80625,17.24 18.525,17.8 18.525,18.5 C18.525,19.48 17.51875,20.18 16.5125,20.6 C15.50625,20.88 14.35625,21.3 13.925,22.14" id="Shape" fill="#F3817A" fill-rule="nonzero"></path>
                        <path d="M2.66357494,9.70269463 C2.79449718,7.45638742 4.10371957,5.8707588 5.80570867,4.68153733 C6.19847539,4.4172659 5.93663091,3.88872302 5.54386419,4.02085874 C3.1872639,4.81367305 1.87804151,7.3242517 2.00896375,9.70269463 C2.13988599,10.0991018 2.66357494,10.0991018 2.66357494,9.70269463 Z" id="Shape" fill="#2E333E" fill-rule="nonzero"></path>
                        <path d="M0.323872274,4.83592482 C1.1789646,2.87936998 2.88914925,1.52483201 4.74184929,0.772310916 C5.16939546,0.621806697 5.02688007,-0.130714397 4.59933391,0.0197898219 C2.3190877,0.621806697 0.751418437,2.42785732 0.0388414981,4.68542061 C-0.10367389,4.98642904 0.181356886,5.13693326 0.323872274,4.83592482 Z" id="Shape" fill="#2E333E" fill-rule="nonzero"></path>
                        <path d="M17.455144,34.8228675 C19.2550878,35.3079164 21.6088606,34.8228675 22.8549755,33.0443549 C23.2703472,32.559306 22.7165183,31.7508913 22.1626894,32.0742572 C20.63966,33.0443549 19.3935451,33.6910868 17.5936012,33.5294038 C16.9013151,33.3677208 16.7628579,34.6611845 17.455144,34.8228675 Z" id="Shape" fill="#2E333E" fill-rule="nonzero"></path>
                        <path d="M22.3964284,39 C24.229533,38.8547045 25.7806216,38.1282271 26.908686,36.6752724 C27.1907021,36.2393859 26.767678,35.8034995 26.3446538,36.0940904 C25.2165894,37.2564543 23.8065089,37.9829317 22.2554203,38.2735226 C21.8323962,38.2735226 21.9734042,39 22.3964284,39 Z" id="Shape" fill="#2E333E" fill-rule="nonzero"></path>
                        <g id="Group" transform="translate(8.000000, 9.000000)" fill="#2E333E" fill-rule="nonzero">
                            <path d="M0.175,1.1 C2.1875,-0.16 5.0625,1.94 6.93125,2.78 C9.0875,3.76 11.24375,4.74 13.4,5.72 C19.725,8.66 13.83125,15.24 11.675,19.02 C11.53125,19.44 12.10625,19.72 12.39375,19.44 C14.55,16.92 16.5625,13.42 17.425,10.2 C17.85625,8.52 17.425,7.26 15.9875,6.28 C12.96875,4.04 8.36875,2.78 4.91875,1.38 C3.3375,0.68 1.6125,-0.3 0.175,0.96 C-0.1125,0.96 0.03125,1.1 0.175,1.1 Z" id="Shape"></path>
                            <g transform="translate(3.625000, 6.000000)" id="Shape">
                                <g>
                                    <path d="M4.16875,2.24 C4.3125,1.54 3.59375,0.98 2.875,0.7 C1.86875,0.42 0.8625,0.98 0.43125,1.82 C-0.14375,2.52 -1.90097937e-13,3.5 0.2875,4.34 C0.43125,4.9 0.8625,5.32 1.00625,5.88 C1.29375,6.58 1.58125,7.14 1.86875,7.84 C2.0125,8.12 2.3,8.12 2.44375,7.84 C2.5875,6.86 2.0125,6.02 1.4375,5.32 C1.15,4.76 0.71875,4.06 0.575,3.36 C0.43125,2.8 0.71875,1.68 1.29375,1.4 C2.0125,1.12 4.025,0.84 3.7375,2.24 C3.7375,2.38 4.16875,2.38 4.16875,2.24 Z"></path>
                                </g>
                                <g transform="translate(1.437500, 1.400000)">
                                    <path d="M2.0125,1.26 C3.01875,0.84 6.0375,0.42 5.31875,2.66 C5.03125,3.5 3.7375,3.78 3.01875,4.06 C2.15625,4.34 0.8625,4.62 0.71875,5.74 C0.71875,6.02 1.00625,6.16 1.15,6.02 C1.725,5.6 2.0125,5.18 2.73125,4.9 C3.1625,4.62 3.7375,4.48 4.3125,4.2 C5.03125,3.78 5.89375,3.08 5.89375,2.24 C5.89375,0.28 3.30625,0.42 2.0125,0.98 C1.725,1.12 1.86875,1.4 2.0125,1.26 Z"></path>
                                </g>
                            </g>
                        </g>
                    </g>
                </g>
            </g>
        </g>
    </g>
</svg>