<?xml version="1.0" encoding="UTF-8"?>
<svg width="58px" height="41px" viewBox="0 0 58 41" version="1.1" xmlns="http://www.w3.org/2000/svg" xmlns:xlink="http://www.w3.org/1999/xlink">
    <!-- Generator: Sketch 51.2 (57519) - http://www.bohemiancoding.com/sketch -->
    <title>Ic Step 3</title>
    <desc>Created with Sketch.</desc>
    <defs></defs>
    <g id="Page-1" stroke="none" stroke-width="1" fill="none" fill-rule="evenodd">
        <g id="UI-kit" transform="translate(-4216.000000, -439.000000)">
            <g id="Ic-Step-3" transform="translate(4216.000000, 439.000000)">
                <path d="M27.7731478,19.0305861 C29.1918244,16.3717382 30.3645053,15.0423143 31.2911903,15.0423143 C32.6812179,15.0423143 36.2281849,15.0423143 36.2281849,17.0364502 C36.2281849,19.0305861 36.9108025,22.9626618 34.9447646,24.6510247 C32.9787268,26.3393875 32.5076711,29.1301861 31.2911903,29.1301861 C30.0747096,29.1301861 28.7631913,29.1301861 27.7731478,29.1301861 C26.7831044,29.1301861 24.296426,26.6583832 24.296426,26.6583832 C24.296426,26.6583832 19.6065291,22.0862502 19.6065291,22.0862502 C19.6065291,22.0862502 18.3840621,20.1305425 18.3840621,19.0305861 C18.3840621,17.9306297 20.2924524,16.0141766 21.7535515,16.0141766 C23.2146507,16.0141766 24.3079958,15.9364938 25.329443,17.0364502 C26.0104077,17.7697545 26.824976,18.4344665 27.7731478,19.0305861 Z" id="Path-3" fill="#F3817A"></path>
                <path d="M50.3204098,36.0243571 C48.4622312,36.4446071 46.4210169,36.4299643 44.5189098,36.60275 C39.8727312,37.0200714 35.2177669,37.3422143 30.5569455,37.5633214 C26.2856241,37.7683214 22.0128383,37.8825357 17.7371241,37.9191429 C15.8730883,37.9367143 13.7542669,38.2295714 11.9048741,37.9220714 C10.1623741,37.6336071 8.99680263,37.3436786 8.12555263,36.7272143 C12.6194455,33.7386071 16.6140169,29.4131071 20.5631955,25.7699643 L20.6378741,25.6674643 C23.3570526,28.0703571 27.2154455,29.8055357 29.6944812,30.463 C30.0693383,30.5640357 30.3856241,30.3268214 30.5130169,30.0237143 C30.8175883,30.1262143 31.1646241,30.1145 31.4765169,29.8714286 C33.2029098,28.5228214 34.5983741,26.8784286 35.6028741,24.969 L35.7317312,25.0495357 C39.2577312,26.445 42.8188741,27.7496786 46.3551241,29.12025 C47.1985526,29.4467857 53.0059098,31.2639643 54.2681241,31.9199643 C54.2798383,32.3021429 54.5639098,32.5788929 54.9138741,32.6696786 C54.7410883,34.7152857 53.6253026,35.2746429 50.3204098,36.0243571 M6.09312406,33.4442857 C3.46912406,25.5796071 3.30805263,16.4937143 2.20251692,8.23221429 C7.1752312,11.73625 12.4100526,15.457 17.8059455,18.0956429 C16.9273741,20.4707143 17.8279098,22.6788571 19.5250169,24.5663214 L19.4210526,24.6278214 C15.4220883,28.2211786 10.7349098,31.7823214 7.35680263,35.9862857 C6.86919549,35.3815357 6.47237406,34.5835 6.09312406,33.4442857 M34.9088026,21.67875 C34.0580526,24.4608929 32.3858383,26.7202857 30.1044812,28.4979286 C29.9199812,28.6414286 29.8394455,28.8068929 29.8028383,28.9752857 C26.8230169,27.4568214 23.9793741,25.8944286 21.5237669,23.5574286 C19.8486241,21.9642857 18.5571241,19.803 20.2747312,17.7339643 C22.4081955,15.1626786 25.6764812,17.0940714 26.3617669,19.7986071 C26.5667669,20.6112857 27.8436241,20.5190357 27.9373383,19.7400357 C28.1438026,19.7078214 28.3414812,19.5804286 28.4454455,19.3256429 C29.0780169,17.7793571 30.3475526,16.3956071 32.0651598,16.08225 C35.2089812,15.50825 35.5926241,19.44425 34.9088026,21.67875 M27.2491241,5.21285714 C31.1748741,5.02982143 35.1020883,4.84092857 39.0293026,4.65496429 C39.3704812,4.63885714 40.2607669,4.63885714 41.4307312,4.63885714 C43.7545526,4.64032143 47.1824455,4.64032143 49.6175526,4.51146429 C45.1426955,8.05064286 40.7176241,11.6762143 36.5766241,15.5961071 L36.4521598,15.7703571 C33.9043026,12.3878571 28.9960169,14.7570714 27.5741955,18.0165714 C26.1084455,14.3133929 20.9190169,13.4084643 18.5322312,16.73825 C13.5448741,12.8813214 7.68626692,9.71114286 2.14687406,6.64932143 C10.3746955,5.41346429 18.9568741,5.60235714 27.2491241,5.21285714 M52.4319098,4.54660714 C52.4421598,4.69889286 52.4875526,4.84532143 52.5607669,4.97710714 L52.5285526,5.26996429 C53.3441598,13.5841786 54.1173026,21.90425 54.8377312,30.2301786 C53.6179812,29.6137143 51.8989098,29.3472143 51.0686598,29.028 C46.1471955,27.1273571 41.1554455,25.3672857 36.0626598,23.9776786 C36.1475883,23.7814643 36.2559455,23.6013571 36.3320883,23.3992857 C37.0290883,21.5645357 37.7597669,18.7355357 36.9690526,16.6957857 C37.1520883,16.7250714 37.3497669,16.6913929 37.5298741,16.5493571 C42.5377312,12.5987143 47.4196598,8.49285714 52.4319098,4.54660714 M56.3884098,23.9586429 C55.8290526,17.7266429 55.2404098,11.4975714 54.6298026,5.26996429 C54.6122312,5.08839286 54.5536598,4.93610714 54.4731241,4.80285714 L54.5346241,4.73257143 C54.7659812,4.47046429 54.9563383,4.05314286 54.8084455,3.69732143 C53.8800883,1.44817857 51.8579098,1.94457143 49.6321955,2.02364286 C44.1323383,2.22132143 38.6354098,2.542 33.1384812,2.80117857 C27.6400883,3.06035714 22.1431598,3.32685714 16.6447669,3.59482143 C11.3733383,3.85107143 5.99501692,3.6695 1.0149812,5.59064286 C0.771909774,5.68435714 0.648909774,5.85860714 0.612302632,6.04457143 C0.325302632,6.17635714 0.175945489,6.55853571 0.35312406,6.86017857 C0.569838346,12.2150714 1.31955263,17.5509286 2.12930263,22.8457857 C2.78969549,27.1463929 2.8189812,33.7195714 4.93194549,37.5545357 C6.42112406,40.2546786 9.11687406,39.9545 11.9048741,40.0130714 C18.5044098,40.1521786 25.1317669,39.9413214 31.7225169,39.6045357 C37.9354812,39.28825 44.1367312,38.7947857 50.3204098,38.1241429 C52.2269098,37.9176786 55.6504098,38.1475714 56.8701598,36.2015357 C58.6185169,33.4106071 56.6636955,27.0248571 56.3884098,23.9586429" id="Fill-44" fill="#2E333E"></path>
                <path d="M38.5255883,16.4468571 C38.1668383,16.0441786 37.4566598,16.5771786 37.7700169,17.0296429 C38.2107669,17.6680714 38.5592669,18.3665357 38.7232669,19.1294286 C38.8770169,19.8586429 38.7261955,20.5732143 38.8462669,21.2936429 C38.9194812,21.7314643 39.6120883,21.8061429 39.8024455,21.4181071 C40.5711955,19.8557143 39.5871955,17.6329286 38.5255883,16.4468571" id="Fill-45" fill="#2E333E"></path>
                <path d="M41.5844812,16.6240357 C41.4014455,15.9577857 40.4540526,16.24625 40.5668026,16.9037143 C40.7044455,17.70175 40.7879098,18.5085714 40.7966955,19.3168571 C40.8054812,20.0607143 40.6619812,20.8118929 40.7117669,21.5484286 C40.7556955,22.2234643 41.6928383,22.3830714 41.9036955,21.7109643 C42.3898383,20.1544286 42.0047312,18.1600714 41.5844812,16.6240357" id="Fill-46" fill="#2E333E"></path>
                <path d="M23.7114098,35.5616429 C20.8911955,36.0419286 18.4487669,36.1356429 15.6241598,35.59825 C15.1336241,35.5045357 14.9418026,36.1810357 15.4191598,36.3479643 C18.1002669,37.2880357 21.2748383,37.4769286 24.0115883,36.6510714 C24.7188383,36.4372857 24.4157312,35.4415714 23.7114098,35.5616429" id="Fill-47" fill="#2E333E"></path>
                <path d="M23.4961598,34.0973571 C22.0699455,33.9714286 20.5631955,34.153 19.1325883,34.2101071 C18.5659098,34.2320714 18.5659098,35.0667143 19.1325883,35.0886786 C20.5631955,35.1443214 22.0699455,35.3273571 23.4961598,35.2014286 C24.2078026,35.1384643 24.2078026,34.1588571 23.4961598,34.0973571" id="Fill-48" fill="#2E333E"></path>
                <path d="M16.2918741,12.4801071 C14.8246598,11.2398571 13.0631241,10.2690357 11.4641241,9.2045 C11.0204455,8.90871429 10.6250883,9.61157143 11.0497312,9.91321429 C12.5843026,11.0026429 14.0969098,12.2853571 15.7442312,13.1902857 C16.1761955,13.4275 16.7004098,12.8242143 16.2918741,12.4801071" id="Fill-49" fill="#2E333E"></path>
                <path d="M18.3404098,11.6044643 C17.8645169,11.08025 17.1689812,10.7888571 16.5671598,10.4271786 C15.9126241,10.03475 15.2624812,9.63939286 14.6108741,9.24403571 C14.1496241,8.96728571 13.7733026,9.65110714 14.1964812,9.95275 C14.8188026,10.3964286 15.4440526,10.8371786 16.0663741,11.2823214 C16.6447669,11.69525 17.1821598,12.2004286 17.8601241,12.4303214 C18.3535883,12.5987143 18.6508383,11.9471071 18.3404098,11.6044643" id="Fill-50" fill="#2E333E"></path>
                <path d="M3.83812406,16.6518571 C3.44715977,16.6518571 3.23337406,16.2433214 3.24215977,15.8347857 C3.2494812,15.42625 3.47937406,15.0177143 3.97869549,15.0177143 C4.11633835,15.0177143 4.27594549,15.0499286 4.45751692,15.1216786 C4.69326692,15.9167857 4.07826692,16.1305714 3.90840977,16.6474643 C3.8849812,16.6503929 3.86155263,16.6518571 3.83812406,16.6518571" id="Fill-603" fill="#DAD8D2"></path>
                <path d="M26.3998383,13.2488571 C26.3588383,13.2488571 26.3251598,13.2415357 26.3031955,13.2254286 C26.0615883,13.0599643 26.5169812,12.8256786 26.7556598,12.8256786 C26.7966598,12.8256786 26.8318026,12.833 26.8552312,12.8476429 C27.0939098,13.0116429 26.6326598,13.2488571 26.3998383,13.2488571" id="Fill-613" fill="#DAD8D2"></path>
                <path d="M20.8326241,13.2620357 C20.0873026,13.2620357 19.6904812,13.0218929 19.7519812,12.4654643 C20.2966955,12.4654643 20.8399455,12.4654643 21.3919812,12.4654643 C21.3919812,12.7173214 21.3919812,12.9721071 21.3919812,13.2254286 C21.1884455,13.2488571 21.0010169,13.2620357 20.8326241,13.2620357" id="Fill-614" fill="#DAD8D2"></path>
                <path d="M35.6892669,0.711642857 C35.6482669,0.711642857 35.6131241,0.704321429 35.5896955,0.68675 C35.3480883,0.521285714 35.8005526,0.288464286 36.0333741,0.288464286 C36.0743741,0.288464286 36.1095169,0.295785714 36.1314812,0.311892857 C36.3716241,0.477357143 35.9235526,0.711642857 35.6892669,0.711642857" id="Fill-671" fill="#DAD8D2"></path>
                <path d="M26.2680526,38.8416429 C26.4979455,38.3891786 26.9401598,38.0816786 27.8172669,38.0816786 C27.8465526,38.0816786 27.8773026,38.0816786 27.9095169,38.0831429 C28.1672312,38.8943571 27.1305169,38.8050357 26.2680526,38.8416429" id="Fill-1500" fill="#DAD8D2"></path>
                <path d="M52.6208026,35.3976429 C52.6866955,35.3639643 52.7555169,35.3390714 52.8258026,35.3215 C52.7584455,35.3478571 52.6910883,35.37275 52.6208026,35.3976429" id="Fill-1512" fill="#DAD8D2"></path>
                <path d="M51.9413741,36.9424643 C51.9648026,36.0463214 52.2649812,35.5836071 52.6208026,35.3976429 C52.6910883,35.37275 52.7584455,35.3478571 52.8258026,35.3215 C52.8931598,35.3068571 52.9605169,35.2995357 53.0278741,35.2995357 C53.9079098,35.2995357 54.6107669,36.5866429 51.9413741,36.9424643" id="Fill-1513" fill="#DAD8D2"></path>
                <path d="M21.9776955,34.0592857 C21.9323026,34.0138929 21.9030169,33.95825 21.9059455,33.9011429 C21.9469455,33.7195714 22.0494455,33.6536786 22.1548741,33.6536786 C22.2998383,33.6536786 22.4491955,33.7810714 22.4448026,33.9011429 C22.4301598,33.9655714 22.4067312,34.0153571 22.3789098,34.0534286 C22.2456598,34.0534286 22.1124098,34.0563571 21.9776955,34.0592857" id="Fill-1524" fill="#DAD8D2"></path>
                <path d="M22.1914812,34.1500714 C22.1124098,34.1500714 22.0333383,34.1134643 21.9776955,34.0592857 C22.1124098,34.0563571 22.2456598,34.0534286 22.3789098,34.0534286 C22.3276598,34.12225 22.2588383,34.1500714 22.1914812,34.1500714" id="Fill-1525" fill="#DAD8D2"></path>
                <path d="M3.05326692,30.8642143 C2.59933835,30.8642143 2.14540977,30.8642143 1.6914812,30.8642143 C1.6914812,30.4835 1.6914812,30.1027857 1.6914812,29.725 C2.09415977,29.725 2.49976692,29.725 2.90244549,29.725 C2.94930263,30.1057143 2.99908835,30.4864286 3.05326692,30.8642143" id="Fill-1539" fill="#DAD8D2"></path>
                <path d="M3.33440977,30.8642143 C3.24069549,30.8642143 3.1469812,30.8642143 3.05326692,30.8642143 C2.99908835,30.4864286 2.94930263,30.1057143 2.90244549,29.725 C3.04740977,29.725 3.19090977,29.725 3.33440977,29.725 C3.33440977,30.1027857 3.33440977,30.4835 3.33440977,30.8642143" id="Fill-1540" fill="#DAD8D2"></path>
                <path d="M15.8979812,27.4465714 C15.3459455,27.4465714 14.8070883,27.4465714 14.2609098,27.4465714 C14.0266241,26.6543929 14.6313741,26.4362143 14.8070883,25.9266429 C15.7588741,26.0130357 16.0473383,26.5797143 15.8979812,27.4465714" id="Fill-1561" fill="#DAD8D2"></path>
            </g>
        </g>
    </g>
</svg>